<svg xmlns="http://www.w3.org/2000/svg">
<defs>
<font id="Baptiste-Regular" horiz-adv-x="0" >
  <font-face 
    font-family="Baptiste"
    font-weight="400"
    font-stretch="normal"
    units-per-em="1000"
    panose-1="0 0 5 0 0 0 0 0 0 0"
    ascent="800"
    descent="-200"
    x-height="520"
    cap-height="702"
    bbox="-287 -358 2237 1151"
    underline-thickness="50"
    underline-position="-100"
    stemh="24"
    stemv="60"
    unicode-range="U+0020-3000"
  />
<missing-glyph horiz-adv-x="2295" 
d="M354 785c-1 -1 0 -1 1 -4c0 -4 -2 -12 -3 -15c0 -13 -16 -26 -14 -39c0 -5 2 -26 -2 -26c-8 1 -21 39 -21 47s7 12 7 19c0 12 -4 23 -2 33c1 5 55 34 79 12c4 -3 15 -10 10 -13c-8 -6 -55 -13 -55 -14zM472 777c18 -16 33 -53 18 -72c-2 -3 -4 -10 -7 -9s-6 39 -6 44
c0 9 -6 17 -15 24c-12 8 -29 14 -41 10c-9 -3 -50 -30 -60 -42c-10 -13 -2 -34 -4 -41c0 -1 -2 0 -7 2c-1 0 -2 1 -3 2c-6 11 -1 12 0 22c1 4 -3 9 -1 13c1 4 5 7 8 10c7 8 0 22 3 31c4 10 59 25 71 24c20 -1 29 -7 44 -18zM504 743c-1 -4 -4 -8 -2 -13c3 -6 8 -13 5 -20
c0 -2 0 -4 -3 -7c-2 -2 -4 -3 -6 -6c-8 -10 -2 -21 -8 -29c-9 -11 -60 -24 -61 -27c-1 -2 10 -2 12 -3c10 -3 42 -9 52 0c10 10 27 13 32 27l1 5c-6 13 -3 30 2 44c1 2 -5 12 -5 14c-1 11 9 20 6 32c-1 3 1 3 -5 8c-9 7 -36 5 -42 6c7 -7 23 -18 22 -31zM396 735
c8 -5 8 -20 17 -22c5 0 9 0 10 2c8 7 -5 35 6 39c16 6 36 -23 37 -13c1 5 -4 8 -6 11c-21 28 -64 8 -83 -16c1 0 2 -1 2 -1c9 -3 10 6 17 0zM421 634c4 -11 1 -15 -3 -27c-1 -3 -3 -6 -4 -9c-14 -17 -39 -9 -61 7c-25 19 -47 51 -46 71c0 7 4 8 8 4c11 -9 27 -32 31 -35
c18 -19 37 -6 59 -9c5 -1 8 -9 12 -8c2 0 -3 6 -4 7c-1 0 -2 1 -3 2c-1 4 -6 5 -9 5c-15 1 -25 -7 -40 -1c-3 1 -6 2 -8 4c-13 10 -18 28 -31 36c-15 10 -34 -6 -45 2c-2 2 -4 5 -5 12c0 5 -2 15 0 20c1 4 11 21 22 33c5 7 11 13 12 13c0 0 3 -6 3 -9c2 -16 7 -35 17 -50
c0 0 5 0 6 -2c5 -5 9 -10 14 -14c17 -13 45 -10 55 -28c5 -9 17 -16 20 -24zM458 714c3 8 -18 7 -18 12c0 7 3 15 17 7c8 -4 21 -21 13 -30c-7 -8 -33 -6 -41 2c-1 2 -2 5 3 5c9 -1 23 -2 26 4zM362 697c0 10 0 18 4 25c3 5 8 9 14 7c7 -3 13 -5 17 -8c12 -7 17 -23 31 -30

<glyph glyph-name=".notdef" horiz-adv-x="2295" 
d="M354 785c-1 -1 0 -1 1 -4c0 -4 -2 -12 -3 -15c0 -13 -16 -26 -14 -39c0 -5 2 -26 -2 -26c-8 1 -21 39 -21 47s7 12 7 19c0 12 -4 23 -2 33c1 5 55 34 79 12c4 -3 15 -10 10 -13c-8 -6 -55 -13 -55 -14zM472 777c18 -16 33 -53 18 -72c-2 -3 -4 -10 -7 -9s-6 39 -6 44
c0 9 -6 17 -15 24c-12 8 -29 14 -41 10c-9 -3 -50 -30 -60 -42c-10 -13 -2 -34 -4 -41c0 -1 -2 0 -7 2c-1 0 -2 1 -3 2c-6 11 -1 12 0 22c1 4 -3 9 -1 13c1 4 5 7 8 10c7 8 0 22 3 31c4 10 59 25 71 24c20 -1 29 -7 44 -18zM504 743c-1 -4 -4 -8 -2 -13c3 -6 8 -13 5 -20
c0 -2 0 -4 -3 -7c-2 -2 -4 -3 -6 -6c-8 -10 -2 -21 -8 -29c-9 -11 -60 -24 -61 -27c-1 -2 10 -2 12 -3c10 -3 42 -9 52 0c10 10 27 13 32 27l1 5c-6 13 -3 30 2 44c1 2 -5 12 -5 14c-1 11 9 20 6 32c-1 3 1 3 -5 8c-9 7 -36 5 -42 6c7 -7 23 -18 22 -31zM396 735
c8 -5 8 -20 17 -22c5 0 9 0 10 2c8 7 -5 35 6 39c16 6 36 -23 37 -13c1 5 -4 8 -6 11c-21 28 -64 8 -83 -16c1 0 2 -1 2 -1c9 -3 10 6 17 0zM421 634c4 -11 1 -15 -3 -27c-1 -3 -3 -6 -4 -9c-14 -17 -39 -9 -61 7c-25 19 -47 51 -46 71c0 7 4 8 8 4c11 -9 27 -32 31 -35
c18 -19 37 -6 59 -9c5 -1 8 -9 12 -8c2 0 -3 6 -4 7c-1 0 -2 1 -3 2c-1 4 -6 5 -9 5c-15 1 -25 -7 -40 -1c-3 1 -6 2 -8 4c-13 10 -18 28 -31 36c-15 10 -34 -6 -45 2c-2 2 -4 5 -5 12c0 5 -2 15 0 20c1 4 11 21 22 33c5 7 11 13 12 13c0 0 3 -6 3 -9c2 -16 7 -35 17 -50
c0 0 5 0 6 -2c5 -5 9 -10 14 -14c17 -13 45 -10 55 -28c5 -9 17 -16 20 -24zM458 714c3 8 -18 7 -18 12c0 7 3 15 17 7c8 -4 21 -21 13 -30c-7 -8 -33 -6 -41 2c-1 2 -2 5 3 5c9 -1 23 -2 26 4zM362 697c0 10 0 18 4 25c3 5 8 9 14 7c7 -3 13 -5 17 -8c12 -7 17 -23 31 -30
c20 -10 46 5 56 -2c3 -3 6 -6 4 -14c-1 -5 -31 -12 -37 -15s-20 -16 -26 -15c-8 2 -12 15 -19 21c-13 12 -27 9 -38 15h-1c-4 2 -5 12 -5 16zM527 727c1 -8 6 -10 8 -18c4 -23 2 -55 -16 -72c-1 -1 -3 -4 -6 -5l-6 -4c-2 -1 -5 -2 -7 -4c-11 -4 -33 14 -49 6
c-5 -2 -20 -14 -28 -23c-4 -5 -9 -12 -6 -13l1 -1c4 -1 10 8 11 9c4 11 22 17 33 18c13 2 53 -17 57 -8c0 1 1 2 2 3c1 3 5 12 9 14c13 6 31 6 40 20c5 7 11 19 9 26c-1 7 -11 11 -16 15c-11 8 -5 29 -14 36c-5 4 -11 4 -22 1zM293 627c-11 0 -19 -11 -19 -21
c0 -6 3 -12 11 -15c4 -2 12 -2 16 2s-12 1 -16 7c-6 8 1 14 9 14c19 -1 29 -14 40 -24c11 -12 6 -33 -18 -100c-33 -89 -24 -60 -39 -87l1 30c5 5 8 12 10 17c12 33 -22 73 -39 101c-6 11 -11 20 -13 33c-1 7 2 20 1 19c-4 -12 -11 -23 -15 -35c-20 -54 -13 -103 43 -139
c7 -5 1 -34 -4 -54c-15 -51 -33 -101 -49 -153c-4 -8 -9 -18 -12 -26c-2 -6 -4 -7 -10 -7c-4 0 -9 0 -17 1c16 -11 16 -23 12 -41c-5 -13 -22 -57 -41 -111c-6 -15 -11 -29 -17 -45l-27 -5c18 -7 19 -19 17 -23c-38 -104 -81 -216 -87 -239c-1 -1 1 -1 0 -2c7 4 13 9 18 13
c16 14 19 33 25 51c11 32 28 77 39 109c15 46 26 76 42 120c3 9 10 18 23 8c0 11 -4 18 -9 30c4 11 7 22 11 33c9 24 42 113 59 170c6 18 28 32 42 17c17 -21 15 -60 26 -83c6 -13 15 -24 28 -33c27 -18 65 -24 92 -13c0 0 -5 2 -12 6c-8 6 -18 13 -21 28c-3 17 6 35 3 53
c-2 12 -11 21 -21 28c-24 17 -65 18 -86 26c-1 1 2 1 3 1c4 -1 8 4 12 5c13 7 22 10 38 6c10 -2 19 -8 28 -13c10 -6 18 -13 27 -18c10 -6 20 -13 33 -15c76 -15 124 63 146 125c0 1 -1 1 -2 1c-11 4 -22 -6 -33 -8c-17 -4 -36 -5 -53 -13c-32 -13 -59 -54 -95 -60
c-17 -2 -39 8 -56 10c21 16 44 1 73 17c9 6 15 13 20 19c7 11 10 23 17 33c9 12 18 26 47 22v2c-13 6 -24 7 -37 6c-28 -1 -52 2 -79 -11c-6 -3 -11 -8 -15 -13c-17 -23 -2 -31 -16 -49c-6 -8 -7 -20 -16 -24c-1 -1 -16 -2 -19 -3c-23 -5 -42 -16 -65 -23c4 16 20 42 31 25
c0 12 -4 19 -7 29l50 111c2 7 14 2 19 -4c-1 10 -3 18 -10 29l12 32c8 22 12 35 27 44s31 13 46 13c17 0 31 2 39 -9c6 -10 -12 -20 -16 -27c0 0 -1 -1 0 -2c7 -2 28 7 33 20c2 7 1 14 -9 22c-12 10 -38 6 -55 7c-15 1 -33 3 -45 10c-14 9 -27 29 -32 36
c-10 15 -28 37 -49 45c-31 11 -34 -14 -34 -22c0 -10 7 -17 9 -21h3c-2 5 -4 10 -5 16c-1 7 -2 29 24 19c25 -9 32 -27 51 -52c1 -2 -17 22 -36 22zM437 599c5 5 13 13 21 15c11 3 52 3 55 -9c3 -13 -58 -40 -101 -24c-1 0 -4 2 -6 3c5 5 20 5 31 15zM915 274
c0 -14 -6 -19 -25 -20l-7 -1c-3 0 -4 -2 -4 -4c0 -1 1 -3 4 -3c6 0 27 1 44 1s43 -1 49 -1c3 0 4 2 4 3c0 2 -1 4 -4 4h-8c-20 1 -25 7 -25 21v153h16c33 0 40 -25 55 -65c1 -2 3 -2 4 -2s3 2 2 4c-10 25 -17 56 -17 85c0 2 -1 2 -2 2c-2 0 -3 0 -3 -2c0 -9 -1 -15 -11 -15
h-113c-10 0 -11 6 -11 15c0 2 -1 2 -2 2s-3 0 -3 -2c0 -29 -7 -60 -17 -85c0 -2 1 -4 2 -4c2 0 3 0 4 2c16 40 23 65 55 65h13v-153zM824 180c0 -34 -24 -74 -91 -73c-59 0 -83 56 -84 87c0 37 16 58 43 58c31 -1 42 -27 42 -51c0 -2 2 -4 4 -4c1 0 3 2 3 4
c0 37 -16 63 -55 63c-32 1 -66 -22 -66 -69c0 -51 37 -98 114 -98c78 -1 119 51 119 94c0 62 -45 86 -81 106c-41 23 -94 43 -94 86c0 33 28 53 62 53c53 0 87 -58 87 -116c0 -3 2 -4 3 -4c2 0 4 2 4 4c0 14 -2 33 -2 57c0 14 0 35 6 63c0 2 -1 4 -3 4s-4 -1 -4 -3l-4 -19
c-2 -8 -5 -13 -10 -13c-2 0 -5 1 -7 3c-11 11 -36 34 -71 34c-54 0 -85 -29 -84 -74c0 -42 33 -76 93 -106c41 -20 77 -41 76 -86zM1265 116c40 0 50 32 67 90c1 3 3 4 4 3c2 0 4 -2 3 -4c-11 -41 -20 -76 -20 -104c0 -2 -2 -3 -3 -3c-2 0 -3 1 -3 3c0 5 -4 6 -13 6h-103
h-78c-3 0 -4 2 -4 4c0 1 1 3 4 3h11c28 0 34 14 34 24v268c0 14 -5 20 -21 21h-19c-2 0 -3 2 -3 4s1 4 4 3c16 -1 33 -1 51 -1l58 1c3 0 4 -1 4 -3s-1 -4 -4 -4h-12c-20 -1 -25 -7 -25 -21v-272c0 -11 5 -18 22 -18h46zM1362 256c31 0 42 19 59 77c1 3 3 4 4 3
c2 0 4 -2 3 -5c-11 -40 -17 -62 -17 -90c0 -2 -2 -3 -3 -3c-2 0 -3 1 -3 3c0 5 -5 6 -13 6h-71h-77c-3 0 -4 2 -4 4c0 1 1 3 4 3h11c28 0 34 13 34 24v128c0 14 -5 20 -21 21h-19c-2 0 -4 2 -4 4s2 4 4 3c17 -2 34 -1 51 -1l59 1c2 0 3 -1 3 -3s-1 -4 -3 -4h-12
c-20 -1 -26 -7 -26 -21v-132c0 -11 5 -18 23 -18h18zM1076 274c0 -14 6 -21 21 -21h12c2 0 3 -2 3 -4s-1 -3 -3 -3c-16 0 -33 1 -47 1c-15 0 -31 -1 -47 -1c-3 0 -3 1 -3 3s0 4 3 4h12c15 0 21 7 21 21v132c0 14 -6 21 -21 21h-12c-3 0 -3 2 -3 4s0 3 3 3c16 0 32 -1 46 -1
c15 0 32 1 48 1c2 0 3 -1 3 -3s-1 -4 -3 -4h-12c-15 0 -21 -7 -21 -21v-132zM969 -99c-12 0 -29 -1 -44 -1c-3 0 -4 1 -4 3s1 4 4 4h11c20 1 21 7 21 21v132c0 14 -4 20 -21 21l-9 1c-2 0 -4 2 -4 4c0 1 2 3 4 3c17 0 25 -1 42 -1h86c9 0 11 4 12 8c1 2 2 3 4 3s3 -2 3 -4
c-1 -6 -2 -11 -2 -24c-2 -23 -2 -34 -2 -45c0 -3 -2 -4 -4 -4c-1 0 -3 1 -3 4c0 42 -7 53 -33 53h-8c-22 0 -37 -2 -37 -23v-45c0 -9 3 -13 13 -13h14c17 0 20 7 20 35c0 2 2 3 4 3c1 0 3 -1 3 -3v-81c0 -3 -2 -5 -3 -5c-2 0 -4 2 -4 5c0 24 -3 36 -20 36h-14
c-10 0 -13 -2 -13 -11v-45c0 -21 20 -22 34 -22h13c40 0 44 32 58 76c1 3 3 4 4 3c2 0 4 -2 4 -5c-6 -26 -12 -61 -12 -89c0 -2 -1 -3 -3 -3s-3 1 -3 3c0 5 -4 6 -13 6h-98zM2183 -57c0 -31 -29 -42 -42 -41c-43 1 -56 44 -56 88c0 50 17 91 55 90c24 -1 54 -29 54 -73
c0 -2 2 -4 3 -4c2 0 4 2 4 4v14c0 15 0 46 5 69c1 3 -1 5 -3 5s-3 -1 -3 -4l-4 -14c-2 -8 -5 -13 -10 -13c-2 0 -4 0 -6 3c-8 8 -22 22 -49 22c-53 0 -74 -49 -74 -100c0 -46 18 -97 76 -97c25 0 46 10 57 32h4l4 -29c0 -2 2 -4 4 -4c1 0 3 2 3 4l1 60c0 13 -1 21 16 23
l12 1c2 0 3 2 3 4c0 1 -1 3 -3 3c-15 -2 -27 -2 -41 -2c-11 0 -33 2 -42 2c-3 1 -4 -1 -4 -3s1 -3 4 -4l16 -1c10 -2 16 -10 16 -24v-11zM1242 -51c-4 9 -8 11 -20 11h-49c-11 0 -13 -4 -17 -14l-6 -18c-5 -13 1 -19 13 -21c9 -2 20 -3 20 -3h10c2 0 3 -2 3 -4
c0 -1 -1 -3 -3 -3l-56 1c-15 0 -22 -1 -28 -1c-2 0 -3 2 -3 3c0 2 1 4 3 4c24 0 27 11 37 40l37 101c2 6 4 10 4 16c0 10 -15 13 -27 16c-2 1 -4 1 -3 4c0 2 2 3 4 2c22 -5 31 -2 46 9h6l63 -161c7 -18 9 -25 28 -27h5c3 0 4 -2 4 -4c0 -1 -1 -3 -4 -3c-15 0 -30 1 -38 1
l-54 -1c-2 0 -3 2 -3 3c0 2 1 4 3 4h11c18 1 29 8 23 22zM943 -230c40 0 50 32 67 90c1 3 3 4 4 3c2 0 4 -2 3 -4c-11 -41 -20 -76 -20 -104c0 -2 -2 -3 -3 -3c-2 0 -3 1 -3 3c0 5 -4 6 -13 6h-103h-78c-3 0 -4 2 -4 4c0 1 1 3 4 3h11c28 0 34 14 34 24v268
c0 14 -5 20 -21 21h-19c-2 0 -3 2 -3 4s1 4 4 3c16 -1 33 -1 51 -1l58 1c3 0 4 -1 4 -3s-1 -4 -4 -4h-12c-20 -1 -25 -7 -25 -21v-272c0 -11 5 -18 22 -18h46zM1676 -38v102c0 8 -2 15 -12 17c-8 1 -12 1 -12 1l-8 1c-3 0 -4 1 -4 3c0 1 1 2 4 2h41h35c2 0 3 -1 3 -2
c1 -2 -1 -4 -3 -4c-6 0 -9 0 -18 -1c-11 -2 -17 -9 -17 -17v-160c0 -3 -1 -4 -4 -4s-3 1 -4 3l-96 137c-4 6 -6 11 -8 11c-3 0 -3 -3 -3 -8v-119c0 -9 2 -15 12 -17c8 -1 12 -2 12 -2h8c3 0 4 -2 4 -4c0 -1 -1 -2 -4 -2c-13 0 -27 1 -41 1h-33c-3 0 -3 1 -4 2c0 2 1 3 4 3
c5 0 9 1 16 2c11 2 16 8 16 17v139c0 11 -4 17 -19 18h-13c-2 0 -3 1 -3 3s1 4 3 4h52c8 0 7 -2 12 -9l81 -117c1 -2 1 -3 2 -3s1 1 1 3zM2009 -38v102c0 8 -2 15 -12 17c-8 1 -12 1 -12 1l-8 1c-3 0 -4 1 -4 3c0 1 1 2 4 2h41h35c2 0 3 -1 3 -2c1 -2 -1 -4 -3 -4
c-6 0 -9 0 -18 -1c-11 -2 -17 -9 -17 -17v-160c0 -3 -1 -4 -4 -4s-3 1 -4 3l-96 137c-4 6 -6 11 -8 11c-3 0 -3 -3 -3 -8v-119c0 -9 2 -15 12 -17c8 -1 12 -2 12 -2h8c3 0 4 -2 4 -4c0 -1 -1 -2 -4 -2c-13 0 -27 1 -41 1h-33c-3 0 -3 1 -4 2c0 2 1 3 4 3c5 0 9 1 16 2
c11 2 16 8 16 17v139c0 11 -4 17 -19 18h-13c-2 0 -3 1 -3 3s1 4 3 4h52c8 0 7 -2 12 -9l81 -117c1 -2 1 -3 2 -3s1 1 1 3zM1352 86h70c41 0 84 -30 84 -79c0 -38 -28 -74 -62 -74c-4 0 -3 -4 0 -4c93 -21 76 -176 193 -176c59 0 83 31 98 61c3 6 11 3 7 -5
c-19 -38 -50 -68 -115 -68c-160 0 -131 186 -225 186h-16c-14 0 -17 -2 -17 -11v-130c0 -13 5 -19 25 -20l17 -1c2 0 3 -2 3 -4c0 -1 -1 -3 -3 -3c-16 0 -42 2 -59 2s-43 -2 -58 -2c-3 0 -4 2 -4 3c0 2 1 4 4 4l12 1c20 2 30 7 30 21v271c0 15 -5 20 -21 21l-19 1
c-2 0 -3 2 -3 4c0 1 1 3 4 3c16 0 33 -1 55 -1zM1807 -213c0 -14 5 -20 25 -21h12c3 0 4 -2 4 -4s-1 -3 -4 -3c-15 0 -37 1 -54 1c-16 0 -38 -1 -53 -1c-3 0 -4 1 -4 3s1 4 4 4h11c20 1 26 7 26 22v271c0 14 -6 20 -26 21h-11c-3 0 -4 2 -4 4s1 3 4 3c15 0 37 -1 53 -1
c17 0 39 1 54 1c3 0 4 -1 4 -3s-1 -4 -4 -4h-12c-20 -1 -25 -7 -25 -21v-272zM1369 -50c0 -9 3 -14 12 -14h43c41 0 48 46 48 70c0 40 -19 71 -65 71h-11c-27 0 -27 -6 -27 -26v-101zM1230 -20l-25 61c-3 8 -5 9 -8 9s-5 -4 -8 -11l-21 -61c-3 -6 1 -9 17 -9h40
c6 0 7 4 5 11z" />
    <glyph glyph-name="space" unicode=" " horiz-adv-x="250" 
 />
    <glyph glyph-name="A" unicode="A" horiz-adv-x="604" 
d="M507 70c11 -41 19 -55 62 -57l25 -1c6 0 8 -4 8 -8c0 -3 -2 -7 -8 -7c-33 0 -79 3 -115 3s-92 -3 -125 -3c-6 0 -8 4 -8 7c0 4 2 8 8 8l25 1c43 2 67 15 59 46l-47 188c-5 18 -10 26 -40 26h-129c-24 0 -34 -8 -38 -26l-43 -184c-4 -19 -5 -41 24 -45c20 -3 48 -5 48 -5
l22 -1c6 0 8 -4 8 -8c0 -3 -2 -7 -8 -7c-33 0 -96 3 -132 3s-62 -3 -85 -3c-6 0 -8 4 -8 7c0 4 2 8 8 8c67 0 92 23 108 86l128 518c1 6 2 12 2 17c0 32 -29 45 -66 52c-4 1 -8 3 -7 8c1 4 4 6 9 5c66 -13 103 -4 131 19h14zM371 325l-72 282c-7 26 -6 35 -13 35
c-8 0 -8 -12 -15 -39l-67 -277c-4 -15 -4 -33 23 -33h122c34 0 26 17 22 32z" />
    <glyph glyph-name="Aacute" unicode="&#xc1;" horiz-adv-x="604" 
d="M202 791l127 147c9 10 18 14 28 14c13 0 23 -12 23 -26c0 -8 -4 -17 -14 -24l-156 -120c-6 -5 -14 3 -8 9zM507 70c11 -41 19 -55 62 -57l25 -1c6 0 8 -4 8 -8c0 -3 -2 -7 -8 -7c-33 0 -79 3 -115 3s-92 -3 -125 -3c-6 0 -8 4 -8 7c0 4 2 8 8 8l25 1c43 2 67 15 59 46
l-47 188c-5 18 -10 26 -40 26h-129c-24 0 -34 -8 -38 -26l-43 -184c-4 -19 -5 -41 24 -45c20 -3 48 -5 48 -5l22 -1c6 0 8 -4 8 -8c0 -3 -2 -7 -8 -7c-33 0 -96 3 -132 3s-62 -3 -85 -3c-6 0 -8 4 -8 7c0 4 2 8 8 8c67 0 92 23 108 86l128 518c1 6 2 12 2 17
c0 32 -29 45 -66 52c-4 1 -8 3 -7 8c1 4 4 6 9 5c66 -13 103 -4 131 19h14zM371 325l-72 282c-7 26 -6 35 -13 35c-8 0 -8 -12 -15 -39l-67 -277c-4 -15 -4 -33 23 -33h122c34 0 26 17 22 32z" />
    <glyph glyph-name="Abreve" unicode="&#x102;" horiz-adv-x="604" 
d="M396 876c0 -60 -43 -101 -103 -101c-61 0 -106 42 -106 101c0 6 4 10 9 10s9 -4 9 -10c0 -43 35 -80 88 -80c51 0 86 37 86 80c0 6 4 9 9 9s8 -3 8 -9zM507 70c11 -41 19 -55 62 -57l25 -1c6 0 8 -4 8 -8c0 -3 -2 -7 -8 -7c-33 0 -79 3 -115 3s-92 -3 -125 -3
c-6 0 -8 4 -8 7c0 4 2 8 8 8l25 1c43 2 67 15 59 46l-47 188c-5 18 -10 26 -40 26h-129c-24 0 -34 -8 -38 -26l-43 -184c-4 -19 -5 -41 24 -45c20 -3 48 -5 48 -5l22 -1c6 0 8 -4 8 -8c0 -3 -2 -7 -8 -7c-33 0 -96 3 -132 3s-62 -3 -85 -3c-6 0 -8 4 -8 7c0 4 2 8 8 8
c67 0 92 23 108 86l128 518c1 6 2 12 2 17c0 32 -29 45 -66 52c-4 1 -8 3 -7 8c1 4 4 6 9 5c66 -13 103 -4 131 19h14zM371 325l-72 282c-7 26 -6 35 -13 35c-8 0 -8 -12 -15 -39l-67 -277c-4 -15 -4 -33 23 -33h122c34 0 26 17 22 32z" />
    <glyph glyph-name="uni1EAE" unicode="&#x1eae;" horiz-adv-x="604" 
d="M202 958l127 147c9 10 18 14 28 14c13 0 23 -12 23 -26c0 -8 -4 -17 -14 -24l-156 -120c-6 -5 -14 3 -8 9zM396 876c0 -60 -43 -101 -103 -101c-61 0 -106 42 -106 101c0 6 4 10 9 10s9 -4 9 -10c0 -43 35 -80 88 -80c51 0 86 37 86 80c0 6 4 9 9 9s8 -3 8 -9zM507 70
c11 -41 19 -55 62 -57l25 -1c6 0 8 -4 8 -8c0 -3 -2 -7 -8 -7c-33 0 -79 3 -115 3s-92 -3 -125 -3c-6 0 -8 4 -8 7c0 4 2 8 8 8l25 1c43 2 67 15 59 46l-47 188c-5 18 -10 26 -40 26h-129c-24 0 -34 -8 -38 -26l-43 -184c-4 -19 -5 -41 24 -45c20 -3 48 -5 48 -5l22 -1
c6 0 8 -4 8 -8c0 -3 -2 -7 -8 -7c-33 0 -96 3 -132 3s-62 -3 -85 -3c-6 0 -8 4 -8 7c0 4 2 8 8 8c67 0 92 23 108 86l128 518c1 6 2 12 2 17c0 32 -29 45 -66 52c-4 1 -8 3 -7 8c1 4 4 6 9 5c66 -13 103 -4 131 19h14zM371 325l-72 282c-7 26 -6 35 -13 35
c-8 0 -8 -12 -15 -39l-67 -277c-4 -15 -4 -33 23 -33h122c34 0 26 17 22 32z" />
    <glyph glyph-name="uni1EB6" unicode="&#x1eb6;" horiz-adv-x="604" 
d="M396 876c0 -60 -43 -101 -103 -101c-61 0 -106 42 -106 101c0 6 4 10 9 10s9 -4 9 -10c0 -43 35 -80 88 -80c51 0 86 37 86 80c0 6 4 9 9 9s8 -3 8 -9zM507 70c11 -41 19 -55 62 -57l25 -1c6 0 8 -4 8 -8c0 -3 -2 -7 -8 -7c-33 0 -79 3 -115 3s-92 -3 -125 -3
c-6 0 -8 4 -8 7c0 4 2 8 8 8l25 1c43 2 67 15 59 46l-47 188c-5 18 -10 26 -40 26h-129c-24 0 -34 -8 -38 -26l-43 -184c-4 -19 -5 -41 24 -45c20 -3 48 -5 48 -5l22 -1c6 0 8 -4 8 -8c0 -3 -2 -7 -8 -7c-33 0 -96 3 -132 3s-62 -3 -85 -3c-6 0 -8 4 -8 7c0 4 2 8 8 8
c67 0 92 23 108 86l128 518c1 6 2 12 2 17c0 32 -29 45 -66 52c-4 1 -8 3 -7 8c1 4 4 6 9 5c66 -13 103 -4 131 19h14zM371 325l-72 282c-7 26 -6 35 -13 35c-8 0 -8 -12 -15 -39l-67 -277c-4 -15 -4 -33 23 -33h122c34 0 26 17 22 32zM264 -76c0 21 14 38 32 38
s32 -17 32 -38c0 -20 -14 -37 -32 -37c-17 0 -32 17 -32 37z" />
    <glyph glyph-name="uni1EB0" unicode="&#x1eb0;" horiz-adv-x="604" 
d="M370 931c6 -6 -2 -14 -8 -9l-156 120c-10 7 -14 16 -14 24c0 14 10 26 23 26c10 0 19 -4 28 -14zM396 876c0 -60 -43 -101 -103 -101c-61 0 -106 42 -106 101c0 6 4 10 9 10s9 -4 9 -10c0 -43 35 -80 88 -80c51 0 86 37 86 80c0 6 4 9 9 9s8 -3 8 -9zM507 70
c11 -41 19 -55 62 -57l25 -1c6 0 8 -4 8 -8c0 -3 -2 -7 -8 -7c-33 0 -79 3 -115 3s-92 -3 -125 -3c-6 0 -8 4 -8 7c0 4 2 8 8 8l25 1c43 2 67 15 59 46l-47 188c-5 18 -10 26 -40 26h-129c-24 0 -34 -8 -38 -26l-43 -184c-4 -19 -5 -41 24 -45c20 -3 48 -5 48 -5l22 -1
c6 0 8 -4 8 -8c0 -3 -2 -7 -8 -7c-33 0 -96 3 -132 3s-62 -3 -85 -3c-6 0 -8 4 -8 7c0 4 2 8 8 8c67 0 92 23 108 86l128 518c1 6 2 12 2 17c0 32 -29 45 -66 52c-4 1 -8 3 -7 8c1 4 4 6 9 5c66 -13 103 -4 131 19h14zM371 325l-72 282c-7 26 -6 35 -13 35
c-8 0 -8 -12 -15 -39l-67 -277c-4 -15 -4 -33 23 -33h122c34 0 26 17 22 32z" />
    <glyph glyph-name="uni1EB2" unicode="&#x1eb2;" horiz-adv-x="604" 
d="M260 1008c-20 0 -37 15 -37 37c0 23 16 46 57 46c46 0 79 -33 79 -70c0 -14 -4 -27 -10 -40c-3 -7 -5 -9 -9 -9s-8 3 -6 9c4 12 7 24 7 33c0 22 -10 37 -23 37c-15 0 -19 -9 -23 -20c-5 -11 -15 -23 -35 -23zM394 915c0 -60 -43 -101 -103 -101c-61 0 -106 42 -106 101
c0 6 4 10 9 10s9 -4 9 -10c0 -43 35 -80 88 -80c51 0 86 37 86 80c0 6 4 9 9 9s8 -3 8 -9zM507 70c11 -41 19 -55 62 -57l25 -1c6 0 8 -4 8 -8c0 -3 -2 -7 -8 -7c-33 0 -79 3 -115 3s-92 -3 -125 -3c-6 0 -8 4 -8 7c0 4 2 8 8 8l25 1c43 2 67 15 59 46l-47 188
c-5 18 -10 26 -40 26h-129c-24 0 -34 -8 -38 -26l-43 -184c-4 -19 -5 -41 24 -45c20 -3 48 -5 48 -5l22 -1c6 0 8 -4 8 -8c0 -3 -2 -7 -8 -7c-33 0 -96 3 -132 3s-62 -3 -85 -3c-6 0 -8 4 -8 7c0 4 2 8 8 8c67 0 92 23 108 86l128 518c1 6 2 12 2 17c0 32 -29 45 -66 52
c-4 1 -8 3 -7 8c1 4 4 6 9 5c66 -13 103 -4 131 19h14zM371 325l-72 282c-7 26 -6 35 -13 35c-8 0 -8 -12 -15 -39l-67 -277c-4 -15 -4 -33 23 -33h122c34 0 26 17 22 32z" />
    <glyph glyph-name="uni1EB4" unicode="&#x1eb4;" horiz-adv-x="604" 
d="M349 932c45 1 74 42 74 85c0 15 -5 23 -17 23c-11 0 -17 -8 -17 -23c0 -46 -12 -65 -40 -65c-50 0 -53 88 -118 88c-45 0 -75 -42 -75 -85c0 -15 5 -23 17 -23c11 0 17 8 17 23c0 46 12 65 40 65c50 0 55 -89 119 -88zM396 876c0 -60 -43 -101 -103 -101
c-61 0 -106 42 -106 101c0 6 4 10 9 10s9 -4 9 -10c0 -43 35 -80 88 -80c51 0 86 37 86 80c0 6 4 9 9 9s8 -3 8 -9zM507 70c11 -41 19 -55 62 -57l25 -1c6 0 8 -4 8 -8c0 -3 -2 -7 -8 -7c-33 0 -79 3 -115 3s-92 -3 -125 -3c-6 0 -8 4 -8 7c0 4 2 8 8 8l25 1
c43 2 67 15 59 46l-47 188c-5 18 -10 26 -40 26h-129c-24 0 -34 -8 -38 -26l-43 -184c-4 -19 -5 -41 24 -45c20 -3 48 -5 48 -5l22 -1c6 0 8 -4 8 -8c0 -3 -2 -7 -8 -7c-33 0 -96 3 -132 3s-62 -3 -85 -3c-6 0 -8 4 -8 7c0 4 2 8 8 8c67 0 92 23 108 86l128 518
c1 6 2 12 2 17c0 32 -29 45 -66 52c-4 1 -8 3 -7 8c1 4 4 6 9 5c66 -13 103 -4 131 19h14zM371 325l-72 282c-7 26 -6 35 -13 35c-8 0 -8 -12 -15 -39l-67 -277c-4 -15 -4 -33 23 -33h122c34 0 26 17 22 32z" />
    <glyph glyph-name="uni01CD" unicode="&#x1cd;" horiz-adv-x="604" 
d="M283 803l-121 125c-6 6 -15 1 -8 -9l107 -147c8 -11 18 -15 28 -15s20 4 28 15l107 147c9 12 -2 15 -8 9l-121 -125c-2 -2 -4 -3 -6 -3s-4 1 -6 3zM507 70c11 -41 19 -55 62 -57l25 -1c6 0 8 -4 8 -8c0 -3 -2 -7 -8 -7c-33 0 -79 3 -115 3s-92 -3 -125 -3c-6 0 -8 4 -8 7
c0 4 2 8 8 8l25 1c43 2 67 15 59 46l-47 188c-5 18 -10 26 -40 26h-129c-24 0 -34 -8 -38 -26l-43 -184c-4 -19 -5 -41 24 -45c20 -3 48 -5 48 -5l22 -1c6 0 8 -4 8 -8c0 -3 -2 -7 -8 -7c-33 0 -96 3 -132 3s-62 -3 -85 -3c-6 0 -8 4 -8 7c0 4 2 8 8 8c67 0 92 23 108 86
l128 518c1 6 2 12 2 17c0 32 -29 45 -66 52c-4 1 -8 3 -7 8c1 4 4 6 9 5c66 -13 103 -4 131 19h14zM371 325l-72 282c-7 26 -6 35 -13 35c-8 0 -8 -12 -15 -39l-67 -277c-4 -15 -4 -33 23 -33h122c34 0 26 17 22 32z" />
    <glyph glyph-name="Acircumflex" unicode="&#xc2;" horiz-adv-x="604" 
d="M280 884c2 2 4 3 6 3s4 -1 6 -3l121 -125c6 -6 17 -3 8 9l-107 147c-8 11 -18 15 -28 15s-20 -4 -28 -15l-107 -147c-7 -10 2 -15 8 -9zM507 70c11 -41 19 -55 62 -57l25 -1c6 0 8 -4 8 -8c0 -3 -2 -7 -8 -7c-33 0 -79 3 -115 3s-92 -3 -125 -3c-6 0 -8 4 -8 7
c0 4 2 8 8 8l25 1c43 2 67 15 59 46l-47 188c-5 18 -10 26 -40 26h-129c-24 0 -34 -8 -38 -26l-43 -184c-4 -19 -5 -41 24 -45c20 -3 48 -5 48 -5l22 -1c6 0 8 -4 8 -8c0 -3 -2 -7 -8 -7c-33 0 -96 3 -132 3s-62 -3 -85 -3c-6 0 -8 4 -8 7c0 4 2 8 8 8c67 0 92 23 108 86
l128 518c1 6 2 12 2 17c0 32 -29 45 -66 52c-4 1 -8 3 -7 8c1 4 4 6 9 5c66 -13 103 -4 131 19h14zM371 325l-72 282c-7 26 -6 35 -13 35c-8 0 -8 -12 -15 -39l-67 -277c-4 -15 -4 -33 23 -33h122c34 0 26 17 22 32z" />
    <glyph glyph-name="uni1EA4" unicode="&#x1ea4;" horiz-adv-x="604" 
d="M197 990l127 147c9 10 18 14 28 14c13 0 23 -12 23 -26c0 -8 -4 -17 -14 -24l-156 -120c-6 -5 -14 3 -8 9zM280 884c2 2 4 3 6 3s4 -1 6 -3l121 -125c6 -6 17 -3 8 9l-107 147c-8 11 -18 15 -28 15s-20 -4 -28 -15l-107 -147c-7 -10 2 -15 8 -9zM507 70
c11 -41 19 -55 62 -57l25 -1c6 0 8 -4 8 -8c0 -3 -2 -7 -8 -7c-33 0 -79 3 -115 3s-92 -3 -125 -3c-6 0 -8 4 -8 7c0 4 2 8 8 8l25 1c43 2 67 15 59 46l-47 188c-5 18 -10 26 -40 26h-129c-24 0 -34 -8 -38 -26l-43 -184c-4 -19 -5 -41 24 -45c20 -3 48 -5 48 -5l22 -1
c6 0 8 -4 8 -8c0 -3 -2 -7 -8 -7c-33 0 -96 3 -132 3s-62 -3 -85 -3c-6 0 -8 4 -8 7c0 4 2 8 8 8c67 0 92 23 108 86l128 518c1 6 2 12 2 17c0 32 -29 45 -66 52c-4 1 -8 3 -7 8c1 4 4 6 9 5c66 -13 103 -4 131 19h14zM371 325l-72 282c-7 26 -6 35 -13 35
c-8 0 -8 -12 -15 -39l-67 -277c-4 -15 -4 -33 23 -33h122c34 0 26 17 22 32z" />
    <glyph glyph-name="uni1EAC" unicode="&#x1eac;" horiz-adv-x="604" 
d="M280 884c2 2 4 3 6 3s4 -1 6 -3l121 -125c6 -6 17 -3 8 9l-107 147c-8 11 -18 15 -28 15s-20 -4 -28 -15l-107 -147c-7 -10 2 -15 8 -9zM507 70c11 -41 19 -55 62 -57l25 -1c6 0 8 -4 8 -8c0 -3 -2 -7 -8 -7c-33 0 -79 3 -115 3s-92 -3 -125 -3c-6 0 -8 4 -8 7
c0 4 2 8 8 8l25 1c43 2 67 15 59 46l-47 188c-5 18 -10 26 -40 26h-129c-24 0 -34 -8 -38 -26l-43 -184c-4 -19 -5 -41 24 -45c20 -3 48 -5 48 -5l22 -1c6 0 8 -4 8 -8c0 -3 -2 -7 -8 -7c-33 0 -96 3 -132 3s-62 -3 -85 -3c-6 0 -8 4 -8 7c0 4 2 8 8 8c67 0 92 23 108 86
l128 518c1 6 2 12 2 17c0 32 -29 45 -66 52c-4 1 -8 3 -7 8c1 4 4 6 9 5c66 -13 103 -4 131 19h14zM371 325l-72 282c-7 26 -6 35 -13 35c-8 0 -8 -12 -15 -39l-67 -277c-4 -15 -4 -33 23 -33h122c34 0 26 17 22 32zM264 -76c0 21 14 38 32 38s32 -17 32 -38
c0 -20 -14 -37 -32 -37c-17 0 -32 17 -32 37z" />
    <glyph glyph-name="uni1EA6" unicode="&#x1ea6;" horiz-adv-x="604" 
d="M365 963c6 -6 -2 -14 -8 -9l-156 120c-10 7 -14 16 -14 24c0 14 10 26 23 26c10 0 19 -4 28 -14zM280 884c2 2 4 3 6 3s4 -1 6 -3l121 -125c6 -6 17 -3 8 9l-107 147c-8 11 -18 15 -28 15s-20 -4 -28 -15l-107 -147c-7 -10 2 -15 8 -9zM507 70c11 -41 19 -55 62 -57
l25 -1c6 0 8 -4 8 -8c0 -3 -2 -7 -8 -7c-33 0 -79 3 -115 3s-92 -3 -125 -3c-6 0 -8 4 -8 7c0 4 2 8 8 8l25 1c43 2 67 15 59 46l-47 188c-5 18 -10 26 -40 26h-129c-24 0 -34 -8 -38 -26l-43 -184c-4 -19 -5 -41 24 -45c20 -3 48 -5 48 -5l22 -1c6 0 8 -4 8 -8
c0 -3 -2 -7 -8 -7c-33 0 -96 3 -132 3s-62 -3 -85 -3c-6 0 -8 4 -8 7c0 4 2 8 8 8c67 0 92 23 108 86l128 518c1 6 2 12 2 17c0 32 -29 45 -66 52c-4 1 -8 3 -7 8c1 4 4 6 9 5c66 -13 103 -4 131 19h14zM371 325l-72 282c-7 26 -6 35 -13 35c-8 0 -8 -12 -15 -39l-67 -277
c-4 -15 -4 -33 23 -33h122c34 0 26 17 22 32z" />
    <glyph glyph-name="uni1EA8" unicode="&#x1ea8;" horiz-adv-x="604" 
d="M357 898c-20 0 -37 15 -37 37c0 23 16 46 57 46c46 0 79 -33 79 -70c0 -14 -4 -27 -10 -40c-3 -7 -5 -9 -9 -9s-8 3 -6 9c4 12 7 24 7 33c0 22 -10 37 -23 37c-15 0 -19 -9 -23 -20c-5 -11 -15 -23 -35 -23zM286 862c2 2 4 3 6 3s4 -1 6 -3l121 -125c6 -6 17 -3 8 9
l-107 147c-8 11 -18 15 -28 15s-20 -4 -28 -15l-107 -147c-7 -10 2 -15 8 -9zM507 70c11 -41 19 -55 62 -57l25 -1c6 0 8 -4 8 -8c0 -3 -2 -7 -8 -7c-33 0 -79 3 -115 3s-92 -3 -125 -3c-6 0 -8 4 -8 7c0 4 2 8 8 8l25 1c43 2 67 15 59 46l-47 188c-5 18 -10 26 -40 26h-129
c-24 0 -34 -8 -38 -26l-43 -184c-4 -19 -5 -41 24 -45c20 -3 48 -5 48 -5l22 -1c6 0 8 -4 8 -8c0 -3 -2 -7 -8 -7c-33 0 -96 3 -132 3s-62 -3 -85 -3c-6 0 -8 4 -8 7c0 4 2 8 8 8c67 0 92 23 108 86l128 518c1 6 2 12 2 17c0 32 -29 45 -66 52c-4 1 -8 3 -7 8c1 4 4 6 9 5
c66 -13 103 -4 131 19h14zM371 325l-72 282c-7 26 -6 35 -13 35c-8 0 -8 -12 -15 -39l-67 -277c-4 -15 -4 -33 23 -33h122c34 0 26 17 22 32z" />
    <glyph glyph-name="uni1EAA" unicode="&#x1eaa;" horiz-adv-x="604" 
d="M344 964c45 1 74 42 74 85c0 15 -5 23 -17 23c-11 0 -17 -8 -17 -23c0 -46 -12 -65 -40 -65c-50 0 -53 88 -118 88c-45 0 -75 -42 -75 -85c0 -15 5 -23 17 -23c11 0 17 8 17 23c0 46 12 65 40 65c50 0 55 -89 119 -88zM280 884c2 2 4 3 6 3s4 -1 6 -3l121 -125
c6 -6 17 -3 8 9l-107 147c-8 11 -18 15 -28 15s-20 -4 -28 -15l-107 -147c-7 -10 2 -15 8 -9zM507 70c11 -41 19 -55 62 -57l25 -1c6 0 8 -4 8 -8c0 -3 -2 -7 -8 -7c-33 0 -79 3 -115 3s-92 -3 -125 -3c-6 0 -8 4 -8 7c0 4 2 8 8 8l25 1c43 2 67 15 59 46l-47 188
c-5 18 -10 26 -40 26h-129c-24 0 -34 -8 -38 -26l-43 -184c-4 -19 -5 -41 24 -45c20 -3 48 -5 48 -5l22 -1c6 0 8 -4 8 -8c0 -3 -2 -7 -8 -7c-33 0 -96 3 -132 3s-62 -3 -85 -3c-6 0 -8 4 -8 7c0 4 2 8 8 8c67 0 92 23 108 86l128 518c1 6 2 12 2 17c0 32 -29 45 -66 52
c-4 1 -8 3 -7 8c1 4 4 6 9 5c66 -13 103 -4 131 19h14zM371 325l-72 282c-7 26 -6 35 -13 35c-8 0 -8 -12 -15 -39l-67 -277c-4 -15 -4 -33 23 -33h122c34 0 26 17 22 32z" />
    <glyph glyph-name="Adieresis" unicode="&#xc4;" horiz-adv-x="604" 
d="M161 812c0 25 17 45 39 45s38 -20 38 -45c0 -24 -16 -45 -38 -45c-21 0 -38 21 -39 45zM344 812c0 25 18 45 40 45s38 -20 38 -45c0 -24 -16 -45 -38 -45c-21 0 -39 21 -40 45zM507 70c11 -41 19 -55 62 -57l25 -1c6 0 8 -4 8 -8c0 -3 -2 -7 -8 -7c-33 0 -79 3 -115 3
s-92 -3 -125 -3c-6 0 -8 4 -8 7c0 4 2 8 8 8l25 1c43 2 67 15 59 46l-47 188c-5 18 -10 26 -40 26h-129c-24 0 -34 -8 -38 -26l-43 -184c-4 -19 -5 -41 24 -45c20 -3 48 -5 48 -5l22 -1c6 0 8 -4 8 -8c0 -3 -2 -7 -8 -7c-33 0 -96 3 -132 3s-62 -3 -85 -3c-6 0 -8 4 -8 7
c0 4 2 8 8 8c67 0 92 23 108 86l128 518c1 6 2 12 2 17c0 32 -29 45 -66 52c-4 1 -8 3 -7 8c1 4 4 6 9 5c66 -13 103 -4 131 19h14zM371 325l-72 282c-7 26 -6 35 -13 35c-8 0 -8 -12 -15 -39l-67 -277c-4 -15 -4 -33 23 -33h122c34 0 26 17 22 32z" />
    <glyph glyph-name="uni01DE" unicode="&#x1de;" horiz-adv-x="604" 
d="M413 907c7 0 11 5 11 10s-4 10 -11 10h-241c-7 0 -11 -5 -11 -10s4 -10 11 -10h241zM161 812c0 25 17 45 39 45s38 -20 38 -45c0 -24 -16 -45 -38 -45c-21 0 -38 21 -39 45zM344 812c0 25 18 45 40 45s38 -20 38 -45c0 -24 -16 -45 -38 -45c-21 0 -39 21 -40 45zM507 70
c11 -41 19 -55 62 -57l25 -1c6 0 8 -4 8 -8c0 -3 -2 -7 -8 -7c-33 0 -79 3 -115 3s-92 -3 -125 -3c-6 0 -8 4 -8 7c0 4 2 8 8 8l25 1c43 2 67 15 59 46l-47 188c-5 18 -10 26 -40 26h-129c-24 0 -34 -8 -38 -26l-43 -184c-4 -19 -5 -41 24 -45c20 -3 48 -5 48 -5l22 -1
c6 0 8 -4 8 -8c0 -3 -2 -7 -8 -7c-33 0 -96 3 -132 3s-62 -3 -85 -3c-6 0 -8 4 -8 7c0 4 2 8 8 8c67 0 92 23 108 86l128 518c1 6 2 12 2 17c0 32 -29 45 -66 52c-4 1 -8 3 -7 8c1 4 4 6 9 5c66 -13 103 -4 131 19h14zM371 325l-72 282c-7 26 -6 35 -13 35
c-8 0 -8 -12 -15 -39l-67 -277c-4 -15 -4 -33 23 -33h122c34 0 26 17 22 32z" />
    <glyph glyph-name="uni1EA0" unicode="&#x1ea0;" horiz-adv-x="604" 
d="M507 70c11 -41 19 -55 62 -57l25 -1c6 0 8 -4 8 -8c0 -3 -2 -7 -8 -7c-33 0 -79 3 -115 3s-92 -3 -125 -3c-6 0 -8 4 -8 7c0 4 2 8 8 8l25 1c43 2 67 15 59 46l-47 188c-5 18 -10 26 -40 26h-129c-24 0 -34 -8 -38 -26l-43 -184c-4 -19 -5 -41 24 -45c20 -3 48 -5 48 -5
l22 -1c6 0 8 -4 8 -8c0 -3 -2 -7 -8 -7c-33 0 -96 3 -132 3s-62 -3 -85 -3c-6 0 -8 4 -8 7c0 4 2 8 8 8c67 0 92 23 108 86l128 518c1 6 2 12 2 17c0 32 -29 45 -66 52c-4 1 -8 3 -7 8c1 4 4 6 9 5c66 -13 103 -4 131 19h14zM371 325l-72 282c-7 26 -6 35 -13 35
c-8 0 -8 -12 -15 -39l-67 -277c-4 -15 -4 -33 23 -33h122c34 0 26 17 22 32z" />
    <glyph glyph-name="Agrave" unicode="&#xc0;" horiz-adv-x="604" 
d="M366 745c6 -6 -2 -14 -8 -9l-156 120c-10 7 -14 16 -14 24c0 14 10 26 23 26c10 0 19 -4 28 -14zM507 70c11 -41 19 -55 62 -57l25 -1c6 0 8 -4 8 -8c0 -3 -2 -7 -8 -7c-33 0 -79 3 -115 3s-92 -3 -125 -3c-6 0 -8 4 -8 7c0 4 2 8 8 8l25 1c43 2 67 15 59 46l-47 188
c-5 18 -10 26 -40 26h-129c-24 0 -34 -8 -38 -26l-43 -184c-4 -19 -5 -41 24 -45c20 -3 48 -5 48 -5l22 -1c6 0 8 -4 8 -8c0 -3 -2 -7 -8 -7c-33 0 -96 3 -132 3s-62 -3 -85 -3c-6 0 -8 4 -8 7c0 4 2 8 8 8c67 0 92 23 108 86l128 518c1 6 2 12 2 17c0 32 -29 45 -66 52
c-4 1 -8 3 -7 8c1 4 4 6 9 5c66 -13 103 -4 131 19h14zM371 325l-72 282c-7 26 -6 35 -13 35c-8 0 -8 -12 -15 -39l-67 -277c-4 -15 -4 -33 23 -33h122c34 0 26 17 22 32z" />
    <glyph glyph-name="uni1EA2" unicode="&#x1ea2;" horiz-adv-x="604" 
d="M260 798c-20 0 -37 15 -37 37c0 23 16 46 57 46c46 0 79 -33 79 -70c0 -14 -4 -27 -10 -40c-3 -7 -5 -9 -9 -9s-8 3 -6 9c4 12 7 24 7 33c0 22 -10 37 -23 37c-15 0 -19 -9 -23 -20c-5 -11 -15 -23 -35 -23zM507 70c11 -41 19 -55 62 -57l25 -1c6 0 8 -4 8 -8
c0 -3 -2 -7 -8 -7c-33 0 -79 3 -115 3s-92 -3 -125 -3c-6 0 -8 4 -8 7c0 4 2 8 8 8l25 1c43 2 67 15 59 46l-47 188c-5 18 -10 26 -40 26h-129c-24 0 -34 -8 -38 -26l-43 -184c-4 -19 -5 -41 24 -45c20 -3 48 -5 48 -5l22 -1c6 0 8 -4 8 -8c0 -3 -2 -7 -8 -7
c-33 0 -96 3 -132 3s-62 -3 -85 -3c-6 0 -8 4 -8 7c0 4 2 8 8 8c67 0 92 23 108 86l128 518c1 6 2 12 2 17c0 32 -29 45 -66 52c-4 1 -8 3 -7 8c1 4 4 6 9 5c66 -13 103 -4 131 19h14zM371 325l-72 282c-7 26 -6 35 -13 35c-8 0 -8 -12 -15 -39l-67 -277
c-4 -15 -4 -33 23 -33h122c34 0 26 17 22 32z" />
    <glyph glyph-name="Amacron" unicode="&#x100;" horiz-adv-x="604" 
d="M415 752c7 0 11 5 11 10s-4 10 -11 10h-241c-7 0 -11 -5 -11 -10s4 -10 11 -10h241zM507 70c11 -41 19 -55 62 -57l25 -1c6 0 8 -4 8 -8c0 -3 -2 -7 -8 -7c-33 0 -79 3 -115 3s-92 -3 -125 -3c-6 0 -8 4 -8 7c0 4 2 8 8 8l25 1c43 2 67 15 59 46l-47 188
c-5 18 -10 26 -40 26h-129c-24 0 -34 -8 -38 -26l-43 -184c-4 -19 -5 -41 24 -45c20 -3 48 -5 48 -5l22 -1c6 0 8 -4 8 -8c0 -3 -2 -7 -8 -7c-33 0 -96 3 -132 3s-62 -3 -85 -3c-6 0 -8 4 -8 7c0 4 2 8 8 8c67 0 92 23 108 86l128 518c1 6 2 12 2 17c0 32 -29 45 -66 52
c-4 1 -8 3 -7 8c1 4 4 6 9 5c66 -13 103 -4 131 19h14zM371 325l-72 282c-7 26 -6 35 -13 35c-8 0 -8 -12 -15 -39l-67 -277c-4 -15 -4 -33 23 -33h122c34 0 26 17 22 32z" />
    <glyph glyph-name="Aogonek" unicode="&#x104;" horiz-adv-x="621" 
d="M599 -95c3 0 6 -3 6 -6c0 -4 -4 -7 -9 -12c-14 -12 -33 -23 -56 -23c-27 0 -52 20 -52 52c0 30 18 51 42 67c3 2 4 5 3 8c-2 6 -6 8 -17 8c-13 1 -25 1 -37 1c-36 0 -92 -3 -125 -3c-6 0 -8 4 -8 7c0 4 2 8 8 8l25 1c43 2 67 15 59 46l-47 188c-5 18 -10 26 -40 26h-129
c-24 0 -34 -8 -38 -26l-43 -184c-4 -19 -5 -41 24 -45c20 -3 48 -5 48 -5l22 -1c6 0 8 -4 8 -8c0 -3 -2 -7 -8 -7c-33 0 -96 3 -132 3s-62 -3 -85 -3c-6 0 -8 4 -8 7c0 4 2 8 8 8c67 0 92 23 108 86l128 518c1 6 2 12 2 17c0 32 -29 45 -66 52c-4 1 -8 3 -7 8c1 4 4 6 9 5
c66 -13 103 -4 131 19h14l170 -647c11 -41 19 -55 62 -57l25 -1c6 0 8 -4 8 -8c0 -3 -2 -7 -7 -7l-6 -3c-60 -23 -80 -50 -80 -77c0 -23 20 -34 36 -34c17 0 30 8 39 14c6 4 11 8 15 8zM349 293c34 0 26 17 22 32l-72 282c-7 26 -6 35 -13 35c-8 0 -8 -12 -15 -39l-67 -277
c-4 -15 -4 -33 23 -33h122z" />
    <glyph glyph-name="Aring" unicode="&#xc5;" horiz-adv-x="604" 
d="M231 832c0 50 29 80 66 80c36 0 65 -30 65 -80c0 -49 -33 -79 -65 -79c-33 0 -66 30 -66 79zM249 833c0 -41 20 -62 48 -62s47 21 47 62c0 38 -19 61 -47 61s-48 -23 -48 -61zM507 70c11 -41 19 -55 62 -57l25 -1c6 0 8 -4 8 -8c0 -3 -2 -7 -8 -7c-33 0 -79 3 -115 3
s-92 -3 -125 -3c-6 0 -8 4 -8 7c0 4 2 8 8 8l25 1c43 2 67 15 59 46l-47 188c-5 18 -10 26 -40 26h-129c-24 0 -34 -8 -38 -26l-43 -184c-4 -19 -5 -41 24 -45c20 -3 48 -5 48 -5l22 -1c6 0 8 -4 8 -8c0 -3 -2 -7 -8 -7c-33 0 -96 3 -132 3s-62 -3 -85 -3c-6 0 -8 4 -8 7
c0 4 2 8 8 8c67 0 92 23 108 86l128 518c1 6 2 12 2 17c0 32 -29 45 -66 52c-4 1 -8 3 -7 8c1 4 4 6 9 5c66 -13 103 -4 131 19h14zM371 325l-72 282c-7 26 -6 35 -13 35c-8 0 -8 -12 -15 -39l-67 -277c-4 -15 -4 -33 23 -33h122c34 0 26 17 22 32z" />
    <glyph glyph-name="Atilde" unicode="&#xc3;" horiz-adv-x="604" 
d="M349 765c45 1 74 42 74 85c0 15 -5 23 -17 23c-11 0 -17 -8 -17 -23c0 -46 -12 -65 -40 -65c-50 0 -53 88 -118 88c-45 0 -75 -42 -75 -85c0 -15 5 -23 17 -23c11 0 17 8 17 23c0 46 12 65 40 65c50 0 55 -89 119 -88zM507 70c11 -41 19 -55 62 -57l25 -1c6 0 8 -4 8 -8
c0 -3 -2 -7 -8 -7c-33 0 -79 3 -115 3s-92 -3 -125 -3c-6 0 -8 4 -8 7c0 4 2 8 8 8l25 1c43 2 67 15 59 46l-47 188c-5 18 -10 26 -40 26h-129c-24 0 -34 -8 -38 -26l-43 -184c-4 -19 -5 -41 24 -45c20 -3 48 -5 48 -5l22 -1c6 0 8 -4 8 -8c0 -3 -2 -7 -8 -7
c-33 0 -96 3 -132 3s-62 -3 -85 -3c-6 0 -8 4 -8 7c0 4 2 8 8 8c67 0 92 23 108 86l128 518c1 6 2 12 2 17c0 32 -29 45 -66 52c-4 1 -8 3 -7 8c1 4 4 6 9 5c66 -13 103 -4 131 19h14zM371 325l-72 282c-7 26 -6 35 -13 35c-8 0 -8 -12 -15 -39l-67 -277
c-4 -15 -4 -33 23 -33h122c34 0 26 17 22 32z" />
    <glyph glyph-name="AE" unicode="&#xc6;" horiz-adv-x="822" 
d="M851 19c1 -20 -4 -19 -18 -19h-481v11h48c47 0 63 27 63 58v179c0 18 -10 25 -40 25h-106c-21 0 -28 -6 -37 -20l-100 -228l108 -14v-11h-249v11c74 0 111 19 137 76l244 540c21 47 -1 62 -61 62h-39v11h473c14 0 19 1 18 -19l-9 -196h-11c-2 123 -10 195 -93 195h-87
c-46 0 -78 -4 -78 -49v-237c0 -20 7 -29 27 -29h81c51 0 62 37 63 108h11v-246h-11c0 81 -12 118 -63 118h-80c-21 0 -28 -5 -28 -24v-255c0 -45 43 -46 72 -46h123c103 0 100 72 103 195h11zM463 325v283c0 15 -2 26 -9 26c-8 0 -15 -22 -19 -30l-125 -283
c-5 -13 -11 -28 12 -28h99c34 0 42 17 42 32z" />
    <glyph glyph-name="B" unicode="B" horiz-adv-x="589" 
d="M39 0c-6 0 -9 4 -9 8c0 3 3 7 9 7h24c60 0 72 29 72 52v573c0 31 -10 43 -45 45l-40 2c-5 0 -8 4 -8 8c0 3 3 8 9 7c35 -3 72 -3 109 -3l184 1c104 1 177 -69 177 -156c0 -74 -49 -132 -115 -149c-4 -1 -8 -2 -8 -5s4 -4 8 -5c73 -18 163 -64 163 -190
c0 -134 -102 -195 -216 -195h-314zM323 680c-88 0 -109 -15 -109 -71v-181c0 -20 7 -29 27 -29h118c72 0 92 75 92 144c0 66 -29 137 -128 137zM497 188c0 100 -33 191 -152 191h-103c-21 0 -28 -5 -28 -24c0 -61 -1 -185 -1 -279c0 -44 28 -56 100 -56
c112 0 184 57 184 168z" />
    <glyph glyph-name="uni1E04" unicode="&#x1e04;" horiz-adv-x="589" 
d="M39 0c-6 0 -9 4 -9 8c0 3 3 7 9 7h24c60 0 72 29 72 52v573c0 31 -10 43 -45 45l-40 2c-5 0 -8 4 -8 8c0 3 3 8 9 7c35 -3 72 -3 109 -3l184 1c104 1 177 -69 177 -156c0 -74 -49 -132 -115 -149c-4 -1 -8 -2 -8 -5s4 -4 8 -5c73 -18 163 -64 163 -190
c0 -134 -102 -195 -216 -195h-314zM323 680c-88 0 -109 -15 -109 -71v-181c0 -20 7 -29 27 -29h118c72 0 92 75 92 144c0 66 -29 137 -128 137zM497 188c0 100 -33 191 -152 191h-103c-21 0 -28 -5 -28 -24c0 -61 -1 -185 -1 -279c0 -44 28 -56 100 -56
c112 0 184 57 184 168zM256 -76c0 21 14 38 32 38s32 -17 32 -38c0 -20 -14 -37 -32 -37c-17 0 -32 17 -32 37z" />
    <glyph glyph-name="C" unicode="C" horiz-adv-x="473" 
d="M407 649c5 -4 10 -6 15 -6c10 0 18 11 22 29l8 40c1 5 4 7 8 7s7 -4 6 -9c-12 -60 -12 -127 -12 -158c0 -51 4 -91 4 -121c0 -5 -4 -9 -8 -9c-3 0 -7 3 -7 8c0 185 -83 263 -171 264c-133 1 -188 -109 -188 -345c0 -232 59 -346 187 -348c77 -1 179 64 179 262
c0 6 4 9 8 9c3 0 7 -3 7 -9c0 -239 -129 -282 -207 -282c-169 0 -248 128 -248 366s80 367 244 367c100 0 136 -52 153 -65z" />
    <glyph glyph-name="Cacute" unicode="&#x106;" horiz-adv-x="473" 
d="M161 749l127 147c9 10 18 14 28 14c13 0 23 -12 23 -26c0 -8 -4 -17 -14 -24l-156 -120c-6 -5 -14 3 -8 9zM407 649c5 -4 10 -6 15 -6c10 0 18 11 22 29l8 40c1 5 4 7 8 7s7 -4 6 -9c-12 -60 -12 -127 -12 -158c0 -51 4 -91 4 -121c0 -5 -4 -9 -8 -9c-3 0 -7 3 -7 8
c0 185 -83 263 -171 264c-133 1 -188 -109 -188 -345c0 -232 59 -346 187 -348c77 -1 179 64 179 262c0 6 4 9 8 9c3 0 7 -3 7 -9c0 -239 -129 -282 -207 -282c-169 0 -248 128 -248 366s80 367 244 367c100 0 136 -52 153 -65z" />
    <glyph glyph-name="Ccaron" unicode="&#x10c;" horiz-adv-x="473" 
d="M246 786l-121 125c-6 6 -15 1 -8 -9l107 -147c8 -11 18 -15 28 -15s20 4 28 15l107 147c9 12 -2 15 -8 9l-121 -125c-2 -2 -4 -3 -6 -3s-4 1 -6 3zM407 649c5 -4 10 -6 15 -6c10 0 18 11 22 29l8 40c1 5 4 7 8 7s7 -4 6 -9c-12 -60 -12 -127 -12 -158c0 -51 4 -91 4 -121
c0 -5 -4 -9 -8 -9c-3 0 -7 3 -7 8c0 185 -83 263 -171 264c-133 1 -188 -109 -188 -345c0 -232 59 -346 187 -348c77 -1 179 64 179 262c0 6 4 9 8 9c3 0 7 -3 7 -9c0 -239 -129 -282 -207 -282c-169 0 -248 128 -248 366s80 367 244 367c100 0 136 -52 153 -65z" />
    <glyph glyph-name="Ccedilla" unicode="&#xc7;" horiz-adv-x="473" 
d="M460 719c4 0 7 -4 6 -9c-12 -60 -12 -127 -12 -158c0 -51 4 -91 4 -121c0 -5 -4 -9 -8 -9c-3 0 -7 3 -7 8c0 185 -83 263 -171 264c-133 1 -188 -109 -188 -345c0 -232 59 -346 187 -348c77 -1 179 64 179 262c0 6 4 9 8 9c3 0 7 -3 7 -9c0 -230 -119 -278 -198 -282
c-7 -13 -14 -25 -14 -34c0 -10 6 -17 30 -21c27 -4 69 -16 69 -66c0 -49 -34 -72 -73 -72s-60 25 -60 59c0 5 3 10 8 10s8 -5 8 -10c0 -23 15 -41 40 -41c26 0 41 17 41 44c0 29 -14 41 -41 52c-27 9 -41 21 -41 40c0 14 7 26 13 39c-161 5 -237 133 -237 366
c0 238 80 367 244 367c100 0 136 -52 153 -65c5 -4 10 -6 15 -6c10 0 18 11 22 29l8 40c1 5 4 7 8 7z" />
    <glyph glyph-name="Cdotaccent" unicode="&#x10a;" horiz-adv-x="473" 
d="M222 848c0 21 14 38 32 38s32 -17 32 -38c0 -20 -14 -37 -32 -37c-17 0 -32 17 -32 37zM407 649c5 -4 10 -6 15 -6c10 0 18 11 22 29l8 40c1 5 4 7 8 7s7 -4 6 -9c-12 -60 -12 -127 -12 -158c0 -51 4 -91 4 -121c0 -5 -4 -9 -8 -9c-3 0 -7 3 -7 8c0 185 -83 263 -171 264
c-133 1 -188 -109 -188 -345c0 -232 59 -346 187 -348c77 -1 179 64 179 262c0 6 4 9 8 9c3 0 7 -3 7 -9c0 -239 -129 -282 -207 -282c-169 0 -248 128 -248 366s80 367 244 367c100 0 136 -52 153 -65z" />
    <glyph glyph-name="D" unicode="D" horiz-adv-x="653" 
d="M151 699c-37 0 -74 -1 -109 3c-6 1 -9 -4 -9 -7c0 -4 3 -8 8 -8l40 -2c35 -2 45 -14 45 -45v-573c0 -23 -12 -52 -72 -52h-24c-6 0 -9 -4 -9 -7c0 -4 3 -8 9 -8h289c169 0 284 139 284 347c0 228 -119 354 -283 353zM309 20c-95 0 -111 3 -111 56v551c0 58 58 53 104 53
c133 1 226 -105 226 -331c0 -202 -91 -327 -219 -329z" />
    <glyph glyph-name="Eth" unicode="&#xd0;" horiz-adv-x="653" 
d="M320 700c164 1 283 -125 283 -353c0 -208 -115 -347 -284 -347h-289c-6 0 -9 4 -9 8c0 3 3 7 9 7h24c60 0 72 29 72 52v263h-79c-10 0 -16 8 -16 16c0 7 6 14 16 14h79v280c0 31 -10 43 -45 45l-40 2c-5 0 -8 4 -8 8c0 3 3 8 9 7c35 -4 72 -3 109 -3zM309 20
c128 2 219 127 219 329c0 226 -93 332 -226 331c-46 0 -104 5 -104 -53v-267h81c10 0 16 -7 16 -14c0 -8 -6 -16 -16 -16h-81v-254c0 -53 16 -56 111 -56z" />
    <glyph glyph-name="Dcaron" unicode="&#x10e;" horiz-adv-x="653" 
d="M279 772l-121 125c-6 6 -15 1 -8 -9l107 -147c8 -11 18 -15 28 -15s20 4 28 15l107 147c9 12 -2 15 -8 9l-121 -125c-2 -2 -4 -3 -6 -3s-4 1 -6 3zM151 699c-37 0 -74 -1 -109 3c-6 1 -9 -4 -9 -7c0 -4 3 -8 8 -8l40 -2c35 -2 45 -14 45 -45v-573c0 -23 -12 -52 -72 -52
h-24c-6 0 -9 -4 -9 -7c0 -4 3 -8 9 -8h289c169 0 284 139 284 347c0 228 -119 354 -283 353zM309 20c-95 0 -111 3 -111 56v551c0 58 58 53 104 53c133 1 226 -105 226 -331c0 -202 -91 -327 -219 -329z" />
    <glyph glyph-name="Dcroat" unicode="&#x110;" horiz-adv-x="626" 
d="M293 700c164 1 283 -125 283 -353c0 -208 -115 -347 -284 -347h-289c-6 0 -9 4 -9 8c0 3 3 7 9 7h24c60 0 72 29 72 52v263h-79c-10 0 -16 8 -16 16c0 7 6 14 16 14h79v280c0 31 -10 43 -45 45l-40 2c-5 0 -8 4 -8 8c0 3 3 8 9 7c35 -4 72 -3 109 -3zM282 20
c128 2 219 127 219 329c0 226 -93 332 -226 331c-46 0 -104 5 -104 -53v-267h81c10 0 16 -7 16 -14c0 -8 -6 -16 -16 -16h-81v-254c0 -53 16 -56 111 -56z" />
    <glyph glyph-name="uni1E0C" unicode="&#x1e0c;" horiz-adv-x="653" 
d="M151 699c-37 0 -74 -1 -109 3c-6 1 -9 -4 -9 -7c0 -4 3 -8 8 -8l40 -2c35 -2 45 -14 45 -45v-573c0 -23 -12 -52 -72 -52h-24c-6 0 -9 -4 -9 -7c0 -4 3 -8 9 -8h289c169 0 284 139 284 347c0 228 -119 354 -283 353zM309 20c-95 0 -111 3 -111 56v551c0 58 58 53 104 53
c133 1 226 -105 226 -331c0 -202 -91 -327 -219 -329zM269 -76c0 21 14 38 32 38s32 -17 32 -38c0 -20 -14 -37 -32 -37c-17 0 -32 17 -32 37z" />
    <glyph glyph-name="E" unicode="E" horiz-adv-x="568" 
d="M163 0c-36 0 -92 -3 -125 -3c-6 0 -8 4 -8 7c0 4 2 8 8 8l25 1c43 2 65 15 65 46v581c0 31 -10 43 -45 45l-40 2c-5 0 -8 4 -8 8c0 3 3 7 9 7c35 -1 72 -3 109 -3h275c25 0 28 13 31 29c1 5 4 7 8 7s8 -3 7 -8c-6 -24 -9 -62 -11 -100s-3 -76 -3 -110c0 -6 -4 -8 -8 -8
c-3 0 -7 2 -7 9c0 99 -6 162 -91 162h-78c-46 0 -78 -4 -78 -49v-237c0 -20 7 -29 27 -29h81c51 0 62 37 63 108c0 5 4 8 8 8c3 0 7 -3 7 -8v-246c0 -6 -4 -10 -7 -10c-4 0 -8 4 -8 10c0 81 -12 118 -63 118h-80c-21 0 -28 -5 -28 -24v-255c0 -45 43 -46 72 -46h119
c86 0 106 68 143 193c2 5 6 7 9 6c4 -1 8 -5 7 -10c-24 -87 -43 -161 -43 -221c0 -5 -4 -7 -7 -7c-4 0 -7 2 -7 7c0 10 -9 12 -27 12h-301z" />
    <glyph glyph-name="Eacute" unicode="&#xc9;" horiz-adv-x="568" 
d="M190 789l127 147c9 10 18 14 28 14c13 0 23 -12 23 -26c0 -8 -4 -17 -14 -24l-156 -120c-6 -5 -14 3 -8 9zM163 0c-36 0 -92 -3 -125 -3c-6 0 -8 4 -8 7c0 4 2 8 8 8l25 1c43 2 65 15 65 46v581c0 31 -10 43 -45 45l-40 2c-5 0 -8 4 -8 8c0 3 3 7 9 7c35 -1 72 -3 109 -3
h275c25 0 28 13 31 29c1 5 4 7 8 7s8 -3 7 -8c-6 -24 -9 -62 -11 -100s-3 -76 -3 -110c0 -6 -4 -8 -8 -8c-3 0 -7 2 -7 9c0 99 -6 162 -91 162h-78c-46 0 -78 -4 -78 -49v-237c0 -20 7 -29 27 -29h81c51 0 62 37 63 108c0 5 4 8 8 8c3 0 7 -3 7 -8v-246c0 -6 -4 -10 -7 -10
c-4 0 -8 4 -8 10c0 81 -12 118 -63 118h-80c-21 0 -28 -5 -28 -24v-255c0 -45 43 -46 72 -46h119c86 0 106 68 143 193c2 5 6 7 9 6c4 -1 8 -5 7 -10c-24 -87 -43 -161 -43 -221c0 -5 -4 -7 -7 -7c-4 0 -7 2 -7 7c0 10 -9 12 -27 12h-301z" />
    <glyph glyph-name="Ecaron" unicode="&#x11a;" horiz-adv-x="568" 
d="M271 801l-121 125c-6 6 -15 1 -8 -9l107 -147c8 -11 18 -15 28 -15s20 4 28 15l107 147c9 12 -2 15 -8 9l-121 -125c-2 -2 -4 -3 -6 -3s-4 1 -6 3zM163 0c-36 0 -92 -3 -125 -3c-6 0 -8 4 -8 7c0 4 2 8 8 8l25 1c43 2 65 15 65 46v581c0 31 -10 43 -45 45l-40 2
c-5 0 -8 4 -8 8c0 3 3 7 9 7c35 -1 72 -3 109 -3h275c25 0 28 13 31 29c1 5 4 7 8 7s8 -3 7 -8c-6 -24 -9 -62 -11 -100s-3 -76 -3 -110c0 -6 -4 -8 -8 -8c-3 0 -7 2 -7 9c0 99 -6 162 -91 162h-78c-46 0 -78 -4 -78 -49v-237c0 -20 7 -29 27 -29h81c51 0 62 37 63 108
c0 5 4 8 8 8c3 0 7 -3 7 -8v-246c0 -6 -4 -10 -7 -10c-4 0 -8 4 -8 10c0 81 -12 118 -63 118h-80c-21 0 -28 -5 -28 -24v-255c0 -45 43 -46 72 -46h119c86 0 106 68 143 193c2 5 6 7 9 6c4 -1 8 -5 7 -10c-24 -87 -43 -161 -43 -221c0 -5 -4 -7 -7 -7c-4 0 -7 2 -7 7
c0 10 -9 12 -27 12h-301z" />
    <glyph glyph-name="uni0228" unicode="&#x228;" horiz-adv-x="568" 
d="M541 219c4 -1 8 -5 7 -10c-24 -87 -43 -161 -43 -221c0 -5 -4 -7 -7 -7c-4 0 -7 2 -7 7c0 10 -9 12 -27 12h-158c-7 -12 -13 -24 -13 -32c0 -10 6 -17 30 -21c27 -4 69 -16 69 -66c0 -49 -34 -72 -73 -72s-60 25 -60 59c0 5 3 10 8 10s8 -5 8 -10c0 -23 15 -41 40 -41
c26 0 41 17 41 44c0 29 -14 41 -41 52c-27 9 -41 21 -41 40c0 14 6 24 12 37h-123c-36 0 -92 -3 -125 -3c-6 0 -8 4 -8 7c0 4 2 8 8 8l25 1c43 2 65 15 65 46v581c0 31 -10 43 -45 45l-40 2c-5 0 -8 4 -8 8c0 3 3 7 9 7c35 -1 72 -3 109 -3h275c25 0 28 13 31 29
c1 5 4 7 8 7s8 -3 7 -8c-6 -24 -9 -62 -11 -100s-3 -76 -3 -110c0 -6 -4 -8 -8 -8c-3 0 -7 2 -7 9c0 99 -6 162 -91 162h-78c-46 0 -78 -4 -78 -49v-237c0 -20 7 -29 27 -29h81c51 0 62 37 63 108c0 5 4 8 8 8c3 0 7 -3 7 -8v-246c0 -6 -4 -10 -7 -10c-4 0 -8 4 -8 10
c0 81 -12 118 -63 118h-80c-21 0 -28 -5 -28 -24v-255c0 -45 43 -46 72 -46h119c86 0 106 68 143 193c2 5 6 7 9 6z" />
    <glyph glyph-name="Ecircumflex" unicode="&#xca;" horiz-adv-x="568" 
d="M268 882c2 2 4 3 6 3s4 -1 6 -3l121 -125c6 -6 17 -3 8 9l-107 147c-8 11 -18 15 -28 15s-20 -4 -28 -15l-107 -147c-7 -10 2 -15 8 -9zM163 0c-36 0 -92 -3 -125 -3c-6 0 -8 4 -8 7c0 4 2 8 8 8l25 1c43 2 65 15 65 46v581c0 31 -10 43 -45 45l-40 2c-5 0 -8 4 -8 8
c0 3 3 7 9 7c35 -1 72 -3 109 -3h275c25 0 28 13 31 29c1 5 4 7 8 7s8 -3 7 -8c-6 -24 -9 -62 -11 -100s-3 -76 -3 -110c0 -6 -4 -8 -8 -8c-3 0 -7 2 -7 9c0 99 -6 162 -91 162h-78c-46 0 -78 -4 -78 -49v-237c0 -20 7 -29 27 -29h81c51 0 62 37 63 108c0 5 4 8 8 8
c3 0 7 -3 7 -8v-246c0 -6 -4 -10 -7 -10c-4 0 -8 4 -8 10c0 81 -12 118 -63 118h-80c-21 0 -28 -5 -28 -24v-255c0 -45 43 -46 72 -46h119c86 0 106 68 143 193c2 5 6 7 9 6c4 -1 8 -5 7 -10c-24 -87 -43 -161 -43 -221c0 -5 -4 -7 -7 -7c-4 0 -7 2 -7 7c0 10 -9 12 -27 12
h-301z" />
    <glyph glyph-name="uni1EBE" unicode="&#x1ebe;" horiz-adv-x="568" 
d="M185 988l127 147c9 10 18 14 28 14c13 0 23 -12 23 -26c0 -8 -4 -17 -14 -24l-156 -120c-6 -5 -14 3 -8 9zM268 882c2 2 4 3 6 3s4 -1 6 -3l121 -125c6 -6 17 -3 8 9l-107 147c-8 11 -18 15 -28 15s-20 -4 -28 -15l-107 -147c-7 -10 2 -15 8 -9zM163 0
c-36 0 -92 -3 -125 -3c-6 0 -8 4 -8 7c0 4 2 8 8 8l25 1c43 2 65 15 65 46v581c0 31 -10 43 -45 45l-40 2c-5 0 -8 4 -8 8c0 3 3 7 9 7c35 -1 72 -3 109 -3h275c25 0 28 13 31 29c1 5 4 7 8 7s8 -3 7 -8c-6 -24 -9 -62 -11 -100s-3 -76 -3 -110c0 -6 -4 -8 -8 -8
c-3 0 -7 2 -7 9c0 99 -6 162 -91 162h-78c-46 0 -78 -4 -78 -49v-237c0 -20 7 -29 27 -29h81c51 0 62 37 63 108c0 5 4 8 8 8c3 0 7 -3 7 -8v-246c0 -6 -4 -10 -7 -10c-4 0 -8 4 -8 10c0 81 -12 118 -63 118h-80c-21 0 -28 -5 -28 -24v-255c0 -45 43 -46 72 -46h119
c86 0 106 68 143 193c2 5 6 7 9 6c4 -1 8 -5 7 -10c-24 -87 -43 -161 -43 -221c0 -5 -4 -7 -7 -7c-4 0 -7 2 -7 7c0 10 -9 12 -27 12h-301z" />
    <glyph glyph-name="uni1EC6" unicode="&#x1ec6;" horiz-adv-x="568" 
d="M268 882c2 2 4 3 6 3s4 -1 6 -3l121 -125c6 -6 17 -3 8 9l-107 147c-8 11 -18 15 -28 15s-20 -4 -28 -15l-107 -147c-7 -10 2 -15 8 -9zM163 0c-36 0 -92 -3 -125 -3c-6 0 -8 4 -8 7c0 4 2 8 8 8l25 1c43 2 65 15 65 46v581c0 31 -10 43 -45 45l-40 2c-5 0 -8 4 -8 8
c0 3 3 7 9 7c35 -1 72 -3 109 -3h275c25 0 28 13 31 29c1 5 4 7 8 7s8 -3 7 -8c-6 -24 -9 -62 -11 -100s-3 -76 -3 -110c0 -6 -4 -8 -8 -8c-3 0 -7 2 -7 9c0 99 -6 162 -91 162h-78c-46 0 -78 -4 -78 -49v-237c0 -20 7 -29 27 -29h81c51 0 62 37 63 108c0 5 4 8 8 8
c3 0 7 -3 7 -8v-246c0 -6 -4 -10 -7 -10c-4 0 -8 4 -8 10c0 81 -12 118 -63 118h-80c-21 0 -28 -5 -28 -24v-255c0 -45 43 -46 72 -46h119c86 0 106 68 143 193c2 5 6 7 9 6c4 -1 8 -5 7 -10c-24 -87 -43 -161 -43 -221c0 -5 -4 -7 -7 -7c-4 0 -7 2 -7 7c0 10 -9 12 -27 12
h-301zM290 -76c0 21 14 38 32 38s32 -17 32 -38c0 -20 -14 -37 -32 -37c-17 0 -32 17 -32 37z" />
    <glyph glyph-name="uni1EC0" unicode="&#x1ec0;" horiz-adv-x="568" 
d="M353 961c6 -6 -2 -14 -8 -9l-156 120c-10 7 -14 16 -14 24c0 14 10 26 23 26c10 0 19 -4 28 -14zM268 882c2 2 4 3 6 3s4 -1 6 -3l121 -125c6 -6 17 -3 8 9l-107 147c-8 11 -18 15 -28 15s-20 -4 -28 -15l-107 -147c-7 -10 2 -15 8 -9zM163 0c-36 0 -92 -3 -125 -3
c-6 0 -8 4 -8 7c0 4 2 8 8 8l25 1c43 2 65 15 65 46v581c0 31 -10 43 -45 45l-40 2c-5 0 -8 4 -8 8c0 3 3 7 9 7c35 -1 72 -3 109 -3h275c25 0 28 13 31 29c1 5 4 7 8 7s8 -3 7 -8c-6 -24 -9 -62 -11 -100s-3 -76 -3 -110c0 -6 -4 -8 -8 -8c-3 0 -7 2 -7 9
c0 99 -6 162 -91 162h-78c-46 0 -78 -4 -78 -49v-237c0 -20 7 -29 27 -29h81c51 0 62 37 63 108c0 5 4 8 8 8c3 0 7 -3 7 -8v-246c0 -6 -4 -10 -7 -10c-4 0 -8 4 -8 10c0 81 -12 118 -63 118h-80c-21 0 -28 -5 -28 -24v-255c0 -45 43 -46 72 -46h119c86 0 106 68 143 193
c2 5 6 7 9 6c4 -1 8 -5 7 -10c-24 -87 -43 -161 -43 -221c0 -5 -4 -7 -7 -7c-4 0 -7 2 -7 7c0 10 -9 12 -27 12h-301z" />
    <glyph glyph-name="uni1EC2" unicode="&#x1ec2;" horiz-adv-x="568" 
d="M382 910c-20 0 -37 15 -37 37c0 23 16 46 57 46c46 0 79 -33 79 -70c0 -14 -4 -27 -10 -40c-3 -7 -5 -9 -9 -9s-8 3 -6 9c4 12 7 24 7 33c0 22 -10 37 -23 37c-15 0 -19 -9 -23 -20c-5 -11 -15 -23 -35 -23zM274 884c2 2 4 3 6 3s4 -1 6 -3l121 -125c6 -6 17 -3 8 9
l-107 147c-8 11 -18 15 -28 15s-20 -4 -28 -15l-107 -147c-7 -10 2 -15 8 -9zM163 0c-36 0 -92 -3 -125 -3c-6 0 -8 4 -8 7c0 4 2 8 8 8l25 1c43 2 65 15 65 46v581c0 31 -10 43 -45 45l-40 2c-5 0 -8 4 -8 8c0 3 3 7 9 7c35 -1 72 -3 109 -3h275c25 0 28 13 31 29
c1 5 4 7 8 7s8 -3 7 -8c-6 -24 -9 -62 -11 -100s-3 -76 -3 -110c0 -6 -4 -8 -8 -8c-3 0 -7 2 -7 9c0 99 -6 162 -91 162h-78c-46 0 -78 -4 -78 -49v-237c0 -20 7 -29 27 -29h81c51 0 62 37 63 108c0 5 4 8 8 8c3 0 7 -3 7 -8v-246c0 -6 -4 -10 -7 -10c-4 0 -8 4 -8 10
c0 81 -12 118 -63 118h-80c-21 0 -28 -5 -28 -24v-255c0 -45 43 -46 72 -46h119c86 0 106 68 143 193c2 5 6 7 9 6c4 -1 8 -5 7 -10c-24 -87 -43 -161 -43 -221c0 -5 -4 -7 -7 -7c-4 0 -7 2 -7 7c0 10 -9 12 -27 12h-301z" />
    <glyph glyph-name="uni1EC4" unicode="&#x1ec4;" horiz-adv-x="568" 
d="M332 962c45 1 74 42 74 85c0 15 -5 23 -17 23c-11 0 -17 -8 -17 -23c0 -46 -12 -65 -40 -65c-50 0 -53 88 -118 88c-45 0 -75 -42 -75 -85c0 -15 5 -23 17 -23c11 0 17 8 17 23c0 46 12 65 40 65c50 0 55 -89 119 -88zM268 882c2 2 4 3 6 3s4 -1 6 -3l121 -125
c6 -6 17 -3 8 9l-107 147c-8 11 -18 15 -28 15s-20 -4 -28 -15l-107 -147c-7 -10 2 -15 8 -9zM163 0c-36 0 -92 -3 -125 -3c-6 0 -8 4 -8 7c0 4 2 8 8 8l25 1c43 2 65 15 65 46v581c0 31 -10 43 -45 45l-40 2c-5 0 -8 4 -8 8c0 3 3 7 9 7c35 -1 72 -3 109 -3h275
c25 0 28 13 31 29c1 5 4 7 8 7s8 -3 7 -8c-6 -24 -9 -62 -11 -100s-3 -76 -3 -110c0 -6 -4 -8 -8 -8c-3 0 -7 2 -7 9c0 99 -6 162 -91 162h-78c-46 0 -78 -4 -78 -49v-237c0 -20 7 -29 27 -29h81c51 0 62 37 63 108c0 5 4 8 8 8c3 0 7 -3 7 -8v-246c0 -6 -4 -10 -7 -10
c-4 0 -8 4 -8 10c0 81 -12 118 -63 118h-80c-21 0 -28 -5 -28 -24v-255c0 -45 43 -46 72 -46h119c86 0 106 68 143 193c2 5 6 7 9 6c4 -1 8 -5 7 -10c-24 -87 -43 -161 -43 -221c0 -5 -4 -7 -7 -7c-4 0 -7 2 -7 7c0 10 -9 12 -27 12h-301z" />
    <glyph glyph-name="Edieresis" unicode="&#xcb;" horiz-adv-x="568" 
d="M149 810c0 25 17 45 39 45s38 -20 38 -45c0 -24 -16 -45 -38 -45c-21 0 -38 21 -39 45zM332 810c0 25 18 45 40 45s38 -20 38 -45c0 -24 -16 -45 -38 -45c-21 0 -39 21 -40 45zM163 0c-36 0 -92 -3 -125 -3c-6 0 -8 4 -8 7c0 4 2 8 8 8l25 1c43 2 65 15 65 46v581
c0 31 -10 43 -45 45l-40 2c-5 0 -8 4 -8 8c0 3 3 7 9 7c35 -1 72 -3 109 -3h275c25 0 28 13 31 29c1 5 4 7 8 7s8 -3 7 -8c-6 -24 -9 -62 -11 -100s-3 -76 -3 -110c0 -6 -4 -8 -8 -8c-3 0 -7 2 -7 9c0 99 -6 162 -91 162h-78c-46 0 -78 -4 -78 -49v-237c0 -20 7 -29 27 -29
h81c51 0 62 37 63 108c0 5 4 8 8 8c3 0 7 -3 7 -8v-246c0 -6 -4 -10 -7 -10c-4 0 -8 4 -8 10c0 81 -12 118 -63 118h-80c-21 0 -28 -5 -28 -24v-255c0 -45 43 -46 72 -46h119c86 0 106 68 143 193c2 5 6 7 9 6c4 -1 8 -5 7 -10c-24 -87 -43 -161 -43 -221c0 -5 -4 -7 -7 -7
c-4 0 -7 2 -7 7c0 10 -9 12 -27 12h-301z" />
    <glyph glyph-name="Edotaccent" unicode="&#x116;" horiz-adv-x="568" 
d="M247 863c0 21 14 38 32 38s32 -17 32 -38c0 -20 -14 -37 -32 -37c-17 0 -32 17 -32 37zM163 0c-36 0 -92 -3 -125 -3c-6 0 -8 4 -8 7c0 4 2 8 8 8l25 1c43 2 65 15 65 46v581c0 31 -10 43 -45 45l-40 2c-5 0 -8 4 -8 8c0 3 3 7 9 7c35 -1 72 -3 109 -3h275
c25 0 28 13 31 29c1 5 4 7 8 7s8 -3 7 -8c-6 -24 -9 -62 -11 -100s-3 -76 -3 -110c0 -6 -4 -8 -8 -8c-3 0 -7 2 -7 9c0 99 -6 162 -91 162h-78c-46 0 -78 -4 -78 -49v-237c0 -20 7 -29 27 -29h81c51 0 62 37 63 108c0 5 4 8 8 8c3 0 7 -3 7 -8v-246c0 -6 -4 -10 -7 -10
c-4 0 -8 4 -8 10c0 81 -12 118 -63 118h-80c-21 0 -28 -5 -28 -24v-255c0 -45 43 -46 72 -46h119c86 0 106 68 143 193c2 5 6 7 9 6c4 -1 8 -5 7 -10c-24 -87 -43 -161 -43 -221c0 -5 -4 -7 -7 -7c-4 0 -7 2 -7 7c0 10 -9 12 -27 12h-301z" />
    <glyph glyph-name="uni1EB8" unicode="&#x1eb8;" horiz-adv-x="568" 
d="M163 0c-36 0 -92 -3 -125 -3c-6 0 -8 4 -8 7c0 4 2 8 8 8l25 1c43 2 65 15 65 46v581c0 31 -10 43 -45 45l-40 2c-5 0 -8 4 -8 8c0 3 3 7 9 7c35 -1 72 -3 109 -3h275c25 0 28 13 31 29c1 5 4 7 8 7s8 -3 7 -8c-6 -24 -9 -62 -11 -100s-3 -76 -3 -110c0 -6 -4 -8 -8 -8
c-3 0 -7 2 -7 9c0 99 -6 162 -91 162h-78c-46 0 -78 -4 -78 -49v-237c0 -20 7 -29 27 -29h81c51 0 62 37 63 108c0 5 4 8 8 8c3 0 7 -3 7 -8v-246c0 -6 -4 -10 -7 -10c-4 0 -8 4 -8 10c0 81 -12 118 -63 118h-80c-21 0 -28 -5 -28 -24v-255c0 -45 43 -46 72 -46h119
c86 0 106 68 143 193c2 5 6 7 9 6c4 -1 8 -5 7 -10c-24 -87 -43 -161 -43 -221c0 -5 -4 -7 -7 -7c-4 0 -7 2 -7 7c0 10 -9 12 -27 12h-301zM290 -76c0 21 14 38 32 38s32 -17 32 -38c0 -20 -14 -37 -32 -37c-17 0 -32 17 -32 37z" />
    <glyph glyph-name="Egrave" unicode="&#xc8;" horiz-adv-x="568" 
d="M358 762c6 -6 -2 -14 -8 -9l-156 120c-10 7 -14 16 -14 24c0 14 10 26 23 26c10 0 19 -4 28 -14zM163 0c-36 0 -92 -3 -125 -3c-6 0 -8 4 -8 7c0 4 2 8 8 8l25 1c43 2 65 15 65 46v581c0 31 -10 43 -45 45l-40 2c-5 0 -8 4 -8 8c0 3 3 7 9 7c35 -1 72 -3 109 -3h275
c25 0 28 13 31 29c1 5 4 7 8 7s8 -3 7 -8c-6 -24 -9 -62 -11 -100s-3 -76 -3 -110c0 -6 -4 -8 -8 -8c-3 0 -7 2 -7 9c0 99 -6 162 -91 162h-78c-46 0 -78 -4 -78 -49v-237c0 -20 7 -29 27 -29h81c51 0 62 37 63 108c0 5 4 8 8 8c3 0 7 -3 7 -8v-246c0 -6 -4 -10 -7 -10
c-4 0 -8 4 -8 10c0 81 -12 118 -63 118h-80c-21 0 -28 -5 -28 -24v-255c0 -45 43 -46 72 -46h119c86 0 106 68 143 193c2 5 6 7 9 6c4 -1 8 -5 7 -10c-24 -87 -43 -161 -43 -221c0 -5 -4 -7 -7 -7c-4 0 -7 2 -7 7c0 10 -9 12 -27 12h-301z" />
    <glyph glyph-name="uni1EBA" unicode="&#x1eba;" horiz-adv-x="568" 
d="M248 796c-20 0 -37 15 -37 37c0 23 16 46 57 46c46 0 79 -33 79 -70c0 -14 -4 -27 -10 -40c-3 -7 -5 -9 -9 -9s-8 3 -6 9c4 12 7 24 7 33c0 22 -10 37 -23 37c-15 0 -19 -9 -23 -20c-5 -11 -15 -23 -35 -23zM163 0c-36 0 -92 -3 -125 -3c-6 0 -8 4 -8 7c0 4 2 8 8 8l25 1
c43 2 65 15 65 46v581c0 31 -10 43 -45 45l-40 2c-5 0 -8 4 -8 8c0 3 3 7 9 7c35 -1 72 -3 109 -3h275c25 0 28 13 31 29c1 5 4 7 8 7s8 -3 7 -8c-6 -24 -9 -62 -11 -100s-3 -76 -3 -110c0 -6 -4 -8 -8 -8c-3 0 -7 2 -7 9c0 99 -6 162 -91 162h-78c-46 0 -78 -4 -78 -49
v-237c0 -20 7 -29 27 -29h81c51 0 62 37 63 108c0 5 4 8 8 8c3 0 7 -3 7 -8v-246c0 -6 -4 -10 -7 -10c-4 0 -8 4 -8 10c0 81 -12 118 -63 118h-80c-21 0 -28 -5 -28 -24v-255c0 -45 43 -46 72 -46h119c86 0 106 68 143 193c2 5 6 7 9 6c4 -1 8 -5 7 -10
c-24 -87 -43 -161 -43 -221c0 -5 -4 -7 -7 -7c-4 0 -7 2 -7 7c0 10 -9 12 -27 12h-301z" />
    <glyph glyph-name="Emacron" unicode="&#x112;" horiz-adv-x="568" 
d="M399 800c7 0 11 5 11 10s-4 10 -11 10h-241c-7 0 -11 -5 -11 -10s4 -10 11 -10h241zM163 0c-36 0 -92 -3 -125 -3c-6 0 -8 4 -8 7c0 4 2 8 8 8l25 1c43 2 65 15 65 46v581c0 31 -10 43 -45 45l-40 2c-5 0 -8 4 -8 8c0 3 3 7 9 7c35 -1 72 -3 109 -3h275c25 0 28 13 31 29
c1 5 4 7 8 7s8 -3 7 -8c-6 -24 -9 -62 -11 -100s-3 -76 -3 -110c0 -6 -4 -8 -8 -8c-3 0 -7 2 -7 9c0 99 -6 162 -91 162h-78c-46 0 -78 -4 -78 -49v-237c0 -20 7 -29 27 -29h81c51 0 62 37 63 108c0 5 4 8 8 8c3 0 7 -3 7 -8v-246c0 -6 -4 -10 -7 -10c-4 0 -8 4 -8 10
c0 81 -12 118 -63 118h-80c-21 0 -28 -5 -28 -24v-255c0 -45 43 -46 72 -46h119c86 0 106 68 143 193c2 5 6 7 9 6c4 -1 8 -5 7 -10c-24 -87 -43 -161 -43 -221c0 -5 -4 -7 -7 -7c-4 0 -7 2 -7 7c0 10 -9 12 -27 12h-301z" />
    <glyph glyph-name="Eogonek" unicode="&#x118;" horiz-adv-x="568" 
d="M548 209c-24 -87 -43 -161 -43 -221v-1v0c0 -5 -4 -7 -9 -9c-60 -23 -80 -50 -80 -77c0 -23 20 -34 36 -34c17 0 30 8 39 14c6 4 11 8 15 8c3 0 6 -3 6 -6c0 -4 -4 -7 -9 -12c-14 -12 -33 -23 -56 -23c-27 0 -52 20 -52 52c0 35 25 58 55 74c10 6 16 10 16 17s-8 9 -22 9
h-281c-36 0 -92 -3 -125 -3c-6 0 -8 4 -8 7c0 4 2 8 8 8l25 1c43 2 65 15 65 46v581c0 31 -10 43 -45 45l-40 2c-5 0 -8 4 -8 8c0 3 3 7 9 7c35 -1 72 -3 109 -3h275c25 0 28 13 31 29c1 5 4 7 8 7s8 -3 7 -8c-6 -24 -9 -62 -11 -100s-3 -76 -3 -110c0 -6 -4 -8 -8 -8
c-3 0 -7 2 -7 9c0 99 -6 162 -91 162h-78c-46 0 -78 -4 -78 -49v-237c0 -20 7 -29 27 -29h81c51 0 62 37 63 108c0 5 4 8 8 8c3 0 7 -3 7 -8v-246c0 -6 -4 -10 -7 -10c-4 0 -8 4 -8 10c0 81 -12 118 -63 118h-80c-21 0 -28 -5 -28 -24v-255c0 -45 43 -46 72 -46h119
c86 0 106 68 143 193c2 5 6 7 9 6c4 -1 8 -5 7 -10z" />
    <glyph glyph-name="uni1EBC" unicode="&#x1ebc;" horiz-adv-x="568" 
d="M337 763c45 1 74 42 74 85c0 15 -5 23 -17 23c-11 0 -17 -8 -17 -23c0 -46 -12 -65 -40 -65c-50 0 -53 88 -118 88c-45 0 -75 -42 -75 -85c0 -15 5 -23 17 -23c11 0 17 8 17 23c0 46 12 65 40 65c50 0 55 -89 119 -88zM163 0c-36 0 -92 -3 -125 -3c-6 0 -8 4 -8 7
c0 4 2 8 8 8l25 1c43 2 65 15 65 46v581c0 31 -10 43 -45 45l-40 2c-5 0 -8 4 -8 8c0 3 3 7 9 7c35 -1 72 -3 109 -3h275c25 0 28 13 31 29c1 5 4 7 8 7s8 -3 7 -8c-6 -24 -9 -62 -11 -100s-3 -76 -3 -110c0 -6 -4 -8 -8 -8c-3 0 -7 2 -7 9c0 99 -6 162 -91 162h-78
c-46 0 -78 -4 -78 -49v-237c0 -20 7 -29 27 -29h81c51 0 62 37 63 108c0 5 4 8 8 8c3 0 7 -3 7 -8v-246c0 -6 -4 -10 -7 -10c-4 0 -8 4 -8 10c0 81 -12 118 -63 118h-80c-21 0 -28 -5 -28 -24v-255c0 -45 43 -46 72 -46h119c86 0 106 68 143 193c2 5 6 7 9 6
c4 -1 8 -5 7 -10c-24 -87 -43 -161 -43 -221c0 -5 -4 -7 -7 -7c-4 0 -7 2 -7 7c0 10 -9 12 -27 12h-301z" />
    <glyph glyph-name="F" unicode="F" horiz-adv-x="466" 
d="M214 61c0 -29 12 -44 55 -46l65 -3c6 0 8 -4 8 -8c0 -3 -2 -7 -8 -7c-33 0 -105 3 -141 3s-106 -3 -139 -3c-6 0 -8 4 -8 7c0 4 2 8 8 8l25 1c43 2 65 15 65 46l-2 569c0 31 -16 57 -73 57h-41c-6 0 -8 4 -8 8c0 3 2 7 8 7h418c25 0 28 13 30 29c1 5 4 7 8 7s8 -2 7 -7
c-5 -25 -8 -63 -9 -101c-2 -38 -2 -76 -2 -110c0 -6 -4 -8 -8 -8c-3 0 -7 2 -7 9c-1 99 -8 162 -93 161h-69c-78 0 -89 -15 -89 -71v-235c0 -20 3 -29 23 -29h46c51 0 62 37 62 108c0 6 4 8 8 8c3 0 7 -2 7 -8v-246c0 -5 -4 -7 -7 -7c-4 0 -8 2 -8 7c0 81 -11 118 -62 118
h-45c-21 0 -24 -5 -24 -24v-240z" />
    <glyph glyph-name="G" unicode="G" horiz-adv-x="585" 
d="M436 261v-83c0 -92 -42 -175 -134 -175c-113 0 -207 114 -207 346c0 236 89 345 210 344c110 -1 176 -116 176 -263c0 -5 4 -9 8 -9c5 0 8 5 8 10c0 30 -4 70 -4 121c0 31 0 98 12 158c1 5 -2 9 -6 9s-7 -2 -8 -7l-8 -40c-4 -18 -9 -27 -26 -27c-35 0 -64 68 -162 68
c-161 0 -275 -128 -275 -366s115 -366 284 -366c80 0 114 50 128 66c11 12 23 44 23 44h13l20 -101c1 -5 4 -8 8 -8c3 0 7 3 7 8l2 272c0 29 11 48 54 51l26 2c6 0 8 4 8 8c0 3 -2 7 -8 7c-33 0 -79 -6 -115 -6s-130 4 -165 6c-6 0 -8 -4 -8 -7c0 -4 2 -8 8 -8l56 -3
c52 -3 75 -20 75 -51z" />
    <glyph glyph-name="Gbreve" unicode="&#x11e;" horiz-adv-x="585" 
d="M381 857c0 -60 -43 -101 -103 -101c-61 0 -106 42 -106 101c0 6 4 10 9 10s9 -4 9 -10c0 -43 35 -80 88 -80c51 0 86 37 86 80c0 6 4 9 9 9s8 -3 8 -9zM436 261v-83c0 -92 -42 -175 -134 -175c-113 0 -207 114 -207 346c0 236 89 345 210 344c110 -1 176 -116 176 -263
c0 -5 4 -9 8 -9c5 0 8 5 8 10c0 30 -4 70 -4 121c0 31 0 98 12 158c1 5 -2 9 -6 9s-7 -2 -8 -7l-8 -40c-4 -18 -9 -27 -26 -27c-35 0 -64 68 -162 68c-161 0 -275 -128 -275 -366s115 -366 284 -366c80 0 114 50 128 66c11 12 23 44 23 44h13l20 -101c1 -5 4 -8 8 -8
c3 0 7 3 7 8l2 272c0 29 11 48 54 51l26 2c6 0 8 4 8 8c0 3 -2 7 -8 7c-33 0 -79 -6 -115 -6s-130 4 -165 6c-6 0 -8 -4 -8 -7c0 -4 2 -8 8 -8l56 -3c52 -3 75 -20 75 -51z" />
    <glyph glyph-name="Gcaron" unicode="&#x1e6;" horiz-adv-x="585" 
d="M268 784l-121 125c-6 6 -15 1 -8 -9l107 -147c8 -11 18 -15 28 -15s20 4 28 15l107 147c9 12 -2 15 -8 9l-121 -125c-2 -2 -4 -3 -6 -3s-4 1 -6 3zM436 261v-83c0 -92 -42 -175 -134 -175c-113 0 -207 114 -207 346c0 236 89 345 210 344c110 -1 176 -116 176 -263
c0 -5 4 -9 8 -9c5 0 8 5 8 10c0 30 -4 70 -4 121c0 31 0 98 12 158c1 5 -2 9 -6 9s-7 -2 -8 -7l-8 -40c-4 -18 -9 -27 -26 -27c-35 0 -64 68 -162 68c-161 0 -275 -128 -275 -366s115 -366 284 -366c80 0 114 50 128 66c11 12 23 44 23 44h13l20 -101c1 -5 4 -8 8 -8
c3 0 7 3 7 8l2 272c0 29 11 48 54 51l26 2c6 0 8 4 8 8c0 3 -2 7 -8 7c-33 0 -79 -6 -115 -6s-130 4 -165 6c-6 0 -8 -4 -8 -7c0 -4 2 -8 8 -8l56 -3c52 -3 75 -20 75 -51z" />
    <glyph glyph-name="uni0122" unicode="&#x122;" horiz-adv-x="585" 
d="M436 261v-83c0 -92 -42 -175 -134 -175c-113 0 -207 114 -207 346c0 236 89 345 210 344c110 -1 176 -116 176 -263c0 -5 4 -9 8 -9c5 0 8 5 8 10c0 30 -4 70 -4 121c0 31 0 98 12 158c1 5 -2 9 -6 9s-7 -2 -8 -7l-8 -40c-4 -18 -9 -27 -26 -27c-35 0 -64 68 -162 68
c-161 0 -275 -128 -275 -366s115 -366 284 -366c80 0 114 50 128 66c11 12 23 44 23 44h13l20 -101c1 -5 4 -8 8 -8c3 0 7 3 7 8l2 272c0 29 11 48 54 51l26 2c6 0 8 4 8 8c0 3 -2 7 -8 7c-33 0 -79 -6 -115 -6s-130 4 -165 6c-6 0 -8 -4 -8 -7c0 -4 2 -8 8 -8l56 -3
c52 -3 75 -20 75 -51zM257 -127c0 22 17 42 42 42c27 0 46 -22 46 -62c0 -76 -71 -139 -126 -139c-7 0 -10 3 -10 7s3 7 9 7c38 0 90 42 90 78c0 17 -11 21 -23 26c-13 5 -28 18 -28 41z" />
    <glyph glyph-name="Gdotaccent" unicode="&#x120;" horiz-adv-x="585" 
d="M244 846c0 21 14 38 32 38s32 -17 32 -38c0 -20 -14 -37 -32 -37c-17 0 -32 17 -32 37zM436 261v-83c0 -92 -42 -175 -134 -175c-113 0 -207 114 -207 346c0 236 89 345 210 344c110 -1 176 -116 176 -263c0 -5 4 -9 8 -9c5 0 8 5 8 10c0 30 -4 70 -4 121
c0 31 0 98 12 158c1 5 -2 9 -6 9s-7 -2 -8 -7l-8 -40c-4 -18 -9 -27 -26 -27c-35 0 -64 68 -162 68c-161 0 -275 -128 -275 -366s115 -366 284 -366c80 0 114 50 128 66c11 12 23 44 23 44h13l20 -101c1 -5 4 -8 8 -8c3 0 7 3 7 8l2 272c0 29 11 48 54 51l26 2c6 0 8 4 8 8
c0 3 -2 7 -8 7c-33 0 -79 -6 -115 -6s-130 4 -165 6c-6 0 -8 -4 -8 -7c0 -4 2 -8 8 -8l56 -3c52 -3 75 -20 75 -51z" />
    <glyph glyph-name="H" unicode="H" horiz-adv-x="608" 
d="M108 641v-582c0 -31 -12 -45 -55 -46l-35 -1c-6 0 -8 -4 -8 -8c0 -3 2 -7 8 -7c33 0 89 3 125 3s82 -3 115 -3c6 0 8 4 8 7c0 4 -2 8 -8 8l-25 1c-43 2 -55 15 -55 44v258c0 19 7 24 28 24h196c21 0 28 -5 28 -24v-256c0 -31 -12 -44 -55 -46l-25 -1c-6 0 -8 -4 -8 -8
c0 -3 2 -7 8 -7c33 0 79 3 115 3s92 -3 125 -3c6 0 8 4 8 7c0 4 -2 8 -8 8l-35 1c-43 1 -55 15 -55 44v583c0 29 12 46 55 47l35 1c6 0 8 4 8 8c0 3 -2 7 -8 7c-33 0 -89 -3 -125 -3s-82 3 -115 3c-6 0 -8 -4 -8 -7c0 -4 2 -8 8 -8l25 -1c43 -2 55 -15 55 -46v-254
c0 -20 -7 -29 -27 -29l-198 1c-20 0 -27 9 -27 29v254c0 29 12 42 55 44l25 1c6 0 8 4 8 8c0 3 -2 7 -8 7c-33 0 -79 -3 -115 -3s-92 3 -125 3c-6 0 -8 -4 -8 -7c0 -4 2 -8 8 -8l35 -1c43 -1 55 -14 55 -45z" />
    <glyph glyph-name="Hbar" unicode="&#x126;" horiz-adv-x="608" 
d="M590 12c6 0 8 -4 8 -8c0 -3 -2 -7 -8 -7c-33 0 -89 3 -125 3s-82 -3 -115 -3c-6 0 -8 4 -8 7c0 4 2 8 8 8l25 1c43 2 55 15 55 46v256c0 19 -7 24 -28 24h-196c-21 0 -28 -5 -28 -24v-258c0 -29 12 -42 55 -44l25 -1c6 0 8 -4 8 -8c0 -3 -2 -7 -8 -7c-33 0 -79 3 -115 3
s-92 -3 -125 -3c-6 0 -8 4 -8 7c0 4 2 8 8 8l35 1c43 1 55 15 55 46v463h-82c-8 0 -12 5 -12 11c0 5 4 10 12 10h82v98c0 31 -12 44 -55 45l-35 1c-6 0 -8 4 -8 8c0 3 2 7 8 7c33 0 89 -3 125 -3s82 3 115 3c6 0 8 -4 8 -7c0 -4 -2 -8 -8 -8l-25 -1c-43 -2 -55 -15 -55 -44
v-99h252v98c0 31 -12 44 -55 46l-25 1c-6 0 -8 4 -8 8c0 3 2 7 8 7c33 0 79 -3 115 -3s92 3 125 3c6 0 8 -4 8 -7c0 -4 -2 -8 -8 -8l-35 -1c-43 -1 -55 -18 -55 -47v-97h81c8 0 12 -5 12 -10c0 -6 -4 -11 -12 -11h-81v-465c0 -29 12 -43 55 -44zM403 358c20 0 27 9 27 29
v135h-252v-134c0 -20 7 -29 27 -29z" />
    <glyph glyph-name="uni1E24" unicode="&#x1e24;" horiz-adv-x="608" 
d="M108 641v-582c0 -31 -12 -45 -55 -46l-35 -1c-6 0 -8 -4 -8 -8c0 -3 2 -7 8 -7c33 0 89 3 125 3s82 -3 115 -3c6 0 8 4 8 7c0 4 -2 8 -8 8l-25 1c-43 2 -55 15 -55 44v258c0 19 7 24 28 24h196c21 0 28 -5 28 -24v-256c0 -31 -12 -44 -55 -46l-25 -1c-6 0 -8 -4 -8 -8
c0 -3 2 -7 8 -7c33 0 79 3 115 3s92 -3 125 -3c6 0 8 4 8 7c0 4 -2 8 -8 8l-35 1c-43 1 -55 15 -55 44v583c0 29 12 46 55 47l35 1c6 0 8 4 8 8c0 3 -2 7 -8 7c-33 0 -89 -3 -125 -3s-82 3 -115 3c-6 0 -8 -4 -8 -7c0 -4 2 -8 8 -8l25 -1c43 -2 55 -15 55 -46v-254
c0 -20 -7 -29 -27 -29l-198 1c-20 0 -27 9 -27 29v254c0 29 12 42 55 44l25 1c6 0 8 4 8 8c0 3 -2 7 -8 7c-33 0 -79 -3 -115 -3s-92 3 -125 3c-6 0 -8 -4 -8 -7c0 -4 2 -8 8 -8l35 -1c43 -1 55 -14 55 -45zM273 -76c0 21 14 38 32 38s32 -17 32 -38c0 -20 -14 -37 -32 -37
c-17 0 -32 17 -32 37z" />
    <glyph glyph-name="I" unicode="I" horiz-adv-x="276" 
d="M173 57c0 -29 12 -42 55 -44l25 -1c6 0 8 -4 8 -8c0 -3 -2 -7 -8 -7c-33 0 -79 3 -115 3s-82 -3 -115 -3c-6 0 -8 4 -8 7c0 4 2 8 8 8l25 1c43 2 55 15 55 46v581c0 31 -12 44 -55 46l-25 1c-6 0 -8 4 -8 8c0 3 2 7 8 7c33 0 79 -3 115 -3s82 3 115 3c6 0 8 -4 8 -7
c0 -4 -2 -8 -8 -8l-25 -1c-43 -2 -55 -15 -55 -46v-583z" />
    <glyph glyph-name="Iacute" unicode="&#xcd;" horiz-adv-x="276" 
d="M49 759l127 147c9 10 18 14 28 14c13 0 23 -12 23 -26c0 -8 -4 -17 -14 -24l-156 -120c-6 -5 -14 3 -8 9zM173 57c0 -29 12 -42 55 -44l25 -1c6 0 8 -4 8 -8c0 -3 -2 -7 -8 -7c-33 0 -79 3 -115 3s-82 -3 -115 -3c-6 0 -8 4 -8 7c0 4 2 8 8 8l25 1c43 2 55 15 55 46v581
c0 31 -12 44 -55 46l-25 1c-6 0 -8 4 -8 8c0 3 2 7 8 7c33 0 79 -3 115 -3s82 3 115 3c6 0 8 -4 8 -7c0 -4 -2 -8 -8 -8l-25 -1c-43 -2 -55 -15 -55 -46v-583z" />
    <glyph glyph-name="uni01CF" unicode="&#x1cf;" horiz-adv-x="276" 
d="M130 771l-121 125c-6 6 -15 1 -8 -9l107 -147c8 -11 18 -15 28 -15s20 4 28 15l107 147c9 12 -2 15 -8 9l-121 -125c-2 -2 -4 -3 -6 -3s-4 1 -6 3zM173 57c0 -29 12 -42 55 -44l25 -1c6 0 8 -4 8 -8c0 -3 -2 -7 -8 -7c-33 0 -79 3 -115 3s-82 -3 -115 -3c-6 0 -8 4 -8 7
c0 4 2 8 8 8l25 1c43 2 55 15 55 46v581c0 31 -12 44 -55 46l-25 1c-6 0 -8 4 -8 8c0 3 2 7 8 7c33 0 79 -3 115 -3s82 3 115 3c6 0 8 -4 8 -7c0 -4 -2 -8 -8 -8l-25 -1c-43 -2 -55 -15 -55 -46v-583z" />
    <glyph glyph-name="Icircumflex" unicode="&#xce;" horiz-adv-x="276" 
d="M127 852c2 2 4 3 6 3s4 -1 6 -3l121 -125c6 -6 17 -3 8 9l-107 147c-8 11 -18 15 -28 15s-20 -4 -28 -15l-107 -147c-7 -10 2 -15 8 -9zM173 57c0 -29 12 -42 55 -44l25 -1c6 0 8 -4 8 -8c0 -3 -2 -7 -8 -7c-33 0 -79 3 -115 3s-82 -3 -115 -3c-6 0 -8 4 -8 7
c0 4 2 8 8 8l25 1c43 2 55 15 55 46v581c0 31 -12 44 -55 46l-25 1c-6 0 -8 4 -8 8c0 3 2 7 8 7c33 0 79 -3 115 -3s82 3 115 3c6 0 8 -4 8 -7c0 -4 -2 -8 -8 -8l-25 -1c-43 -2 -55 -15 -55 -46v-583z" />
    <glyph glyph-name="Idieresis" unicode="&#xcf;" horiz-adv-x="276" 
d="M8 780c0 25 17 45 39 45s38 -20 38 -45c0 -24 -16 -45 -38 -45c-21 0 -38 21 -39 45zM191 780c0 25 18 45 40 45s38 -20 38 -45c0 -24 -16 -45 -38 -45c-21 0 -39 21 -40 45zM173 57c0 -29 12 -42 55 -44l25 -1c6 0 8 -4 8 -8c0 -3 -2 -7 -8 -7c-33 0 -79 3 -115 3
s-82 -3 -115 -3c-6 0 -8 4 -8 7c0 4 2 8 8 8l25 1c43 2 55 15 55 46v581c0 31 -12 44 -55 46l-25 1c-6 0 -8 4 -8 8c0 3 2 7 8 7c33 0 79 -3 115 -3s82 3 115 3c6 0 8 -4 8 -7c0 -4 -2 -8 -8 -8l-25 -1c-43 -2 -55 -15 -55 -46v-583z" />
    <glyph glyph-name="uni1E2E" unicode="&#x1e2e;" horiz-adv-x="276" 
d="M51 864l127 147c9 10 18 14 28 14c13 0 23 -12 23 -26c0 -8 -4 -17 -14 -24l-156 -120c-6 -5 -14 3 -8 9zM8 780c0 25 17 45 39 45s38 -20 38 -45c0 -24 -16 -45 -38 -45c-21 0 -38 21 -39 45zM191 780c0 25 18 45 40 45s38 -20 38 -45c0 -24 -16 -45 -38 -45
c-21 0 -39 21 -40 45zM173 57c0 -29 12 -42 55 -44l25 -1c6 0 8 -4 8 -8c0 -3 -2 -7 -8 -7c-33 0 -79 3 -115 3s-82 -3 -115 -3c-6 0 -8 4 -8 7c0 4 2 8 8 8l25 1c43 2 55 15 55 46v581c0 31 -12 44 -55 46l-25 1c-6 0 -8 4 -8 8c0 3 2 7 8 7c33 0 79 -3 115 -3s82 3 115 3
c6 0 8 -4 8 -7c0 -4 -2 -8 -8 -8l-25 -1c-43 -2 -55 -15 -55 -46v-583z" />
    <glyph glyph-name="Idotaccent" unicode="&#x130;" horiz-adv-x="276" 
d="M106 833c0 21 14 38 32 38s32 -17 32 -38c0 -20 -14 -37 -32 -37c-17 0 -32 17 -32 37zM173 57c0 -29 12 -42 55 -44l25 -1c6 0 8 -4 8 -8c0 -3 -2 -7 -8 -7c-33 0 -79 3 -115 3s-82 -3 -115 -3c-6 0 -8 4 -8 7c0 4 2 8 8 8l25 1c43 2 55 15 55 46v581
c0 31 -12 44 -55 46l-25 1c-6 0 -8 4 -8 8c0 3 2 7 8 7c33 0 79 -3 115 -3s82 3 115 3c6 0 8 -4 8 -7c0 -4 -2 -8 -8 -8l-25 -1c-43 -2 -55 -15 -55 -46v-583z" />
    <glyph glyph-name="uni1ECA" unicode="&#x1eca;" horiz-adv-x="276" 
d="M173 57c0 -29 12 -42 55 -44l25 -1c6 0 8 -4 8 -8c0 -3 -2 -7 -8 -7c-33 0 -79 3 -115 3s-82 -3 -115 -3c-6 0 -8 4 -8 7c0 4 2 8 8 8l25 1c43 2 55 15 55 46v581c0 31 -12 44 -55 46l-25 1c-6 0 -8 4 -8 8c0 3 2 7 8 7c33 0 79 -3 115 -3s82 3 115 3c6 0 8 -4 8 -7
c0 -4 -2 -8 -8 -8l-25 -1c-43 -2 -55 -15 -55 -46v-583zM102 -76c0 21 14 38 32 38s32 -17 32 -38c0 -20 -14 -37 -32 -37c-17 0 -32 17 -32 37z" />
    <glyph glyph-name="Igrave" unicode="&#xcc;" horiz-adv-x="276" 
d="M217 732c6 -6 -2 -14 -8 -9l-156 120c-10 7 -14 16 -14 24c0 14 10 26 23 26c10 0 19 -4 28 -14zM173 57c0 -29 12 -42 55 -44l25 -1c6 0 8 -4 8 -8c0 -3 -2 -7 -8 -7c-33 0 -79 3 -115 3s-82 -3 -115 -3c-6 0 -8 4 -8 7c0 4 2 8 8 8l25 1c43 2 55 15 55 46v581
c0 31 -12 44 -55 46l-25 1c-6 0 -8 4 -8 8c0 3 2 7 8 7c33 0 79 -3 115 -3s82 3 115 3c6 0 8 -4 8 -7c0 -4 -2 -8 -8 -8l-25 -1c-43 -2 -55 -15 -55 -46v-583z" />
    <glyph glyph-name="uni1EC8" unicode="&#x1ec8;" horiz-adv-x="276" 
d="M107 766c-20 0 -37 15 -37 37c0 23 16 46 57 46c46 0 79 -33 79 -70c0 -14 -4 -27 -10 -40c-3 -7 -5 -9 -9 -9s-8 3 -6 9c4 12 7 24 7 33c0 22 -10 37 -23 37c-15 0 -19 -9 -23 -20c-5 -11 -15 -23 -35 -23zM173 57c0 -29 12 -42 55 -44l25 -1c6 0 8 -4 8 -8
c0 -3 -2 -7 -8 -7c-33 0 -79 3 -115 3s-82 -3 -115 -3c-6 0 -8 4 -8 7c0 4 2 8 8 8l25 1c43 2 55 15 55 46v581c0 31 -12 44 -55 46l-25 1c-6 0 -8 4 -8 8c0 3 2 7 8 7c33 0 79 -3 115 -3s82 3 115 3c6 0 8 -4 8 -7c0 -4 -2 -8 -8 -8l-25 -1c-43 -2 -55 -15 -55 -46v-583z
" />
    <glyph glyph-name="Imacron" unicode="&#x12a;" horiz-adv-x="276" 
d="M258 770c7 0 11 5 11 10s-4 10 -11 10h-241c-7 0 -11 -5 -11 -10s4 -10 11 -10h241zM173 57c0 -29 12 -42 55 -44l25 -1c6 0 8 -4 8 -8c0 -3 -2 -7 -8 -7c-33 0 -79 3 -115 3s-82 -3 -115 -3c-6 0 -8 4 -8 7c0 4 2 8 8 8l25 1c43 2 55 15 55 46v581c0 31 -12 44 -55 46
l-25 1c-6 0 -8 4 -8 8c0 3 2 7 8 7c33 0 79 -3 115 -3s82 3 115 3c6 0 8 -4 8 -7c0 -4 -2 -8 -8 -8l-25 -1c-43 -2 -55 -15 -55 -46v-583z" />
    <glyph glyph-name="Iogonek" unicode="&#x12e;" horiz-adv-x="283" 
d="M262 -94c3 0 6 -3 6 -6c0 -4 -4 -7 -9 -12c-14 -12 -33 -23 -56 -23c-27 0 -52 20 -52 52c0 24 11 42 28 56c9 8 18 14 18 19c0 4 -2 6 -9 7c-17 0 -35 1 -50 1c-36 0 -82 -3 -115 -3c-6 0 -8 4 -8 7c0 4 2 8 8 8l25 1c43 2 55 15 55 46v581c0 31 -12 44 -55 46l-25 1
c-6 0 -8 4 -8 8c0 3 2 7 8 7c33 0 79 -3 115 -3s82 3 115 3c6 0 8 -4 8 -7c0 -4 -2 -8 -8 -8l-25 -1c-43 -2 -55 -15 -55 -46v-583c0 -29 12 -42 55 -44l25 -1c6 0 8 -4 8 -8c0 -5 -4 -7 -9 -9c-60 -23 -80 -50 -80 -77c0 -23 20 -34 36 -34c17 0 30 8 39 14c6 4 11 8 15 8z
" />
    <glyph glyph-name="Itilde" unicode="&#x128;" horiz-adv-x="276" 
d="M196 733c45 1 74 42 74 85c0 15 -5 23 -17 23c-11 0 -17 -8 -17 -23c0 -46 -12 -65 -40 -65c-50 0 -53 88 -118 88c-45 0 -75 -42 -75 -85c0 -15 5 -23 17 -23c11 0 17 8 17 23c0 46 12 65 40 65c50 0 55 -89 119 -88zM173 57c0 -29 12 -42 55 -44l25 -1c6 0 8 -4 8 -8
c0 -3 -2 -7 -8 -7c-33 0 -79 3 -115 3s-82 -3 -115 -3c-6 0 -8 4 -8 7c0 4 2 8 8 8l25 1c43 2 55 15 55 46v581c0 31 -12 44 -55 46l-25 1c-6 0 -8 4 -8 8c0 3 2 7 8 7c33 0 79 -3 115 -3s82 3 115 3c6 0 8 -4 8 -7c0 -4 -2 -8 -8 -8l-25 -1c-43 -2 -55 -15 -55 -46v-583z
" />
    <glyph glyph-name="J" unicode="J" horiz-adv-x="400" 
d="M307 640v-436c0 -173 -89 -214 -167 -214c-69 0 -130 51 -130 115c0 23 14 37 33 37c17 0 32 -13 32 -37c0 -54 9 -95 65 -96c47 0 97 30 97 162v469c0 31 -10 42 -45 45l-40 4c-5 0 -8 4 -8 8c0 3 3 8 9 7c35 -6 72 -5 109 -5c36 0 92 3 125 3c6 0 8 -4 8 -7
c0 -4 -2 -8 -8 -8l-25 -1c-43 -2 -55 -15 -55 -46z" />
    <glyph glyph-name="K" unicode="K" horiz-adv-x="598" 
d="M600 13c6 -1 8 -4 8 -8c0 -3 -2 -7 -8 -7c-33 0 -91 2 -127 2s-88 -3 -121 -3c-6 0 -8 4 -8 7c0 4 2 8 8 8l24 1c21 1 64 6 42 45l-172 309l-37 -54l-1 -256c0 -29 12 -42 55 -44l25 -1c6 0 8 -4 8 -8c0 -3 -2 -7 -8 -7c-33 0 -79 3 -115 3s-92 -3 -125 -3
c-6 0 -8 4 -8 7c0 4 2 8 8 8l25 1c43 2 65 15 65 46v581c0 31 -10 43 -45 45l-40 2c-5 0 -8 4 -8 8c0 3 3 8 9 7c35 -3 72 -3 109 -3c36 0 92 3 125 3c6 0 8 -4 8 -7c0 -4 -2 -8 -8 -8l-25 -1c-43 -2 -54 -15 -54 -46l-1 -277h6l199 284c18 26 -7 37 -52 39l-25 1
c-6 0 -8 4 -8 8c0 3 2 7 8 7c33 0 79 -3 115 -3s82 3 115 3c6 0 8 -4 8 -7c0 -4 -2 -8 -8 -8l-25 -1c-35 -1 -75 -4 -98 -37l-154 -220l197 -359c25 -46 59 -52 94 -55z" />
    <glyph glyph-name="uni0136" unicode="&#x136;" horiz-adv-x="598" 
d="M600 13c6 -1 8 -4 8 -8c0 -3 -2 -7 -8 -7c-33 0 -91 2 -127 2s-88 -3 -121 -3c-6 0 -8 4 -8 7c0 4 2 8 8 8l24 1c21 1 64 6 42 45l-172 309l-37 -54l-1 -256c0 -29 12 -42 55 -44l25 -1c6 0 8 -4 8 -8c0 -3 -2 -7 -8 -7c-33 0 -79 3 -115 3s-92 -3 -125 -3
c-6 0 -8 4 -8 7c0 4 2 8 8 8l25 1c43 2 65 15 65 46v581c0 31 -10 43 -45 45l-40 2c-5 0 -8 4 -8 8c0 3 3 8 9 7c35 -3 72 -3 109 -3c36 0 92 3 125 3c6 0 8 -4 8 -7c0 -4 -2 -8 -8 -8l-25 -1c-43 -2 -54 -15 -54 -46l-1 -277h6l199 284c18 26 -7 37 -52 39l-25 1
c-6 0 -8 4 -8 8c0 3 2 7 8 7c33 0 79 -3 115 -3s82 3 115 3c6 0 8 -4 8 -7c0 -4 -2 -8 -8 -8l-25 -1c-35 -1 -75 -4 -98 -37l-154 -220l197 -359c25 -46 59 -52 94 -55zM327 -75c27 0 46 -22 46 -62c0 -76 -71 -139 -126 -139c-7 0 -10 3 -10 7s3 7 9 7c38 0 90 42 90 78
c0 17 -11 21 -23 26c-13 5 -28 18 -28 41c0 22 17 42 42 42z" />
    <glyph glyph-name="L" unicode="L" horiz-adv-x="505" 
d="M352 20c86 0 106 68 143 193c2 5 6 7 9 6c4 -1 8 -5 7 -10c-24 -87 -43 -161 -43 -221c0 -5 -4 -7 -7 -7c-4 0 -7 2 -7 7c0 10 -9 12 -27 12h-222h-166c-6 0 -9 4 -9 8c0 3 3 7 9 7h24c60 0 72 29 72 52v573c0 31 -10 43 -45 45l-40 2c-5 0 -8 4 -8 8c0 3 3 8 9 7
c35 -3 72 -3 109 -3c36 0 92 3 125 3c6 0 8 -4 8 -7c0 -4 -2 -8 -8 -8l-25 -1c-43 -2 -55 -15 -55 -46v-583c0 -23 11 -37 48 -37h99z" />
    <glyph glyph-name="Lacute" unicode="&#x139;" horiz-adv-x="505" 
d="M81 760l127 147c9 10 18 14 28 14c13 0 23 -12 23 -26c0 -8 -4 -17 -14 -24l-156 -120c-6 -5 -14 3 -8 9zM352 20c86 0 106 68 143 193c2 5 6 7 9 6c4 -1 8 -5 7 -10c-24 -87 -43 -161 -43 -221c0 -5 -4 -7 -7 -7c-4 0 -7 2 -7 7c0 10 -9 12 -27 12h-222h-166
c-6 0 -9 4 -9 8c0 3 3 7 9 7h24c60 0 72 29 72 52v573c0 31 -10 43 -45 45l-40 2c-5 0 -8 4 -8 8c0 3 3 8 9 7c35 -3 72 -3 109 -3c36 0 92 3 125 3c6 0 8 -4 8 -7c0 -4 -2 -8 -8 -8l-25 -1c-43 -2 -55 -15 -55 -46v-583c0 -23 11 -37 48 -37h99z" />
    <glyph glyph-name="Lcaron" unicode="&#x13d;" horiz-adv-x="505" 
d="M162 772l-121 125c-6 6 -15 1 -8 -9l107 -147c8 -11 18 -15 28 -15s20 4 28 15l107 147c9 12 -2 15 -8 9l-121 -125c-2 -2 -4 -3 -6 -3s-4 1 -6 3zM352 20c86 0 106 68 143 193c2 5 6 7 9 6c4 -1 8 -5 7 -10c-24 -87 -43 -161 -43 -221c0 -5 -4 -7 -7 -7c-4 0 -7 2 -7 7
c0 10 -9 12 -27 12h-222h-166c-6 0 -9 4 -9 8c0 3 3 7 9 7h24c60 0 72 29 72 52v573c0 31 -10 43 -45 45l-40 2c-5 0 -8 4 -8 8c0 3 3 8 9 7c35 -3 72 -3 109 -3c36 0 92 3 125 3c6 0 8 -4 8 -7c0 -4 -2 -8 -8 -8l-25 -1c-43 -2 -55 -15 -55 -46v-583c0 -23 11 -37 48 -37
h99z" />
    <glyph glyph-name="uni013B" unicode="&#x13b;" horiz-adv-x="505" 
d="M352 20c86 0 106 68 143 193c2 5 6 7 9 6c4 -1 8 -5 7 -10c-24 -87 -43 -161 -43 -221c0 -5 -4 -7 -7 -7c-4 0 -7 2 -7 7c0 10 -9 12 -27 12h-222h-166c-6 0 -9 4 -9 8c0 3 3 7 9 7h24c60 0 72 29 72 52v573c0 31 -10 43 -45 45l-40 2c-5 0 -8 4 -8 8c0 3 3 8 9 7
c35 -3 72 -3 109 -3c36 0 92 3 125 3c6 0 8 -4 8 -7c0 -4 -2 -8 -8 -8l-25 -1c-43 -2 -55 -15 -55 -46v-583c0 -23 11 -37 48 -37h99zM227 -119c0 22 17 42 42 42c27 0 46 -22 46 -62c0 -76 -71 -139 -126 -139c-7 0 -10 3 -10 7s3 7 9 7c38 0 90 42 90 78
c0 17 -11 21 -23 26c-13 5 -28 18 -28 41z" />
    <glyph glyph-name="uni1E36" unicode="&#x1e36;" horiz-adv-x="505" 
d="M352 20c86 0 106 68 143 193c2 5 6 7 9 6c4 -1 8 -5 7 -10c-24 -87 -43 -161 -43 -221c0 -5 -4 -7 -7 -7c-4 0 -7 2 -7 7c0 10 -9 12 -27 12h-222h-166c-6 0 -9 4 -9 8c0 3 3 7 9 7h24c60 0 72 29 72 52v573c0 31 -10 43 -45 45l-40 2c-5 0 -8 4 -8 8c0 3 3 8 9 7
c35 -3 72 -3 109 -3c36 0 92 3 125 3c6 0 8 -4 8 -7c0 -4 -2 -8 -8 -8l-25 -1c-43 -2 -55 -15 -55 -46v-583c0 -23 11 -37 48 -37h99zM230 -76c0 21 14 38 32 38s32 -17 32 -38c0 -20 -14 -37 -32 -37c-17 0 -32 17 -32 37z" />
    <glyph glyph-name="Lslash" unicode="&#x141;" horiz-adv-x="522" 
d="M542 219c4 -1 8 -5 7 -10c-24 -87 -43 -161 -43 -221c0 -5 -4 -7 -7 -7c-4 0 -7 2 -7 7c0 10 -9 12 -27 12h-222h-166c-6 0 -9 4 -9 8c0 3 3 7 9 7h24c60 0 72 29 72 52v251l-113 -58v40l113 57v283c0 31 -10 43 -45 45l-40 2c-5 0 -8 4 -8 8c0 3 3 8 9 7
c35 -3 72 -3 109 -3c36 0 92 3 125 3c6 0 8 -4 8 -7c0 -4 -2 -8 -8 -8l-25 -1c-43 -2 -55 -15 -55 -46v-247l126 64v-39l-126 -64v-297c0 -23 11 -37 48 -37h99c86 0 106 68 143 193c2 5 6 7 9 6z" />
    <glyph glyph-name="M" unicode="M" horiz-adv-x="725" 
d="M557 77c3 -49 -12 -63 -55 -64l-35 -1c-6 0 -8 -4 -8 -8c0 -3 2 -7 8 -7c33 0 89 4 125 4s92 -4 125 -4c6 0 8 4 8 7c0 4 -2 8 -8 8l-35 1c-43 1 -56 15 -57 44l-28 578c-1 29 13 50 55 50h38c6 0 8 4 8 8c0 3 -2 7 -8 7h-156c-21 0 -26 -3 -31 -23l-126 -510
c-1 -3 -2 -5 -4 -5s-3 2 -5 9l-130 506c-5 20 -10 23 -31 23h-153c-5 0 -7 -4 -7 -7c0 -4 2 -8 7 -8h44c37 0 51 -20 49 -49l-32 -573c-1 -23 -16 -41 -45 -45c-21 -3 -31 -5 -47 -5c-6 0 -8 -4 -8 -8c0 -3 2 -7 8 -7c33 0 57 2 93 2s99 -3 132 -3c6 0 8 4 8 7
c0 4 -2 8 -8 8l-22 1s-34 2 -54 5c-29 4 -34 22 -33 45l28 520c1 13 3 22 8 22s9 -15 13 -30c101 -380 129 -478 150 -568c1 -6 4 -10 11 -10s8 4 10 10l150 579c4 14 7 19 12 19c6 0 6 -14 7 -32z" />
    <glyph glyph-name="uni1E3E" unicode="&#x1e3e;" horiz-adv-x="725" 
d="M278 760l127 147c9 10 18 14 28 14c13 0 23 -12 23 -26c0 -8 -4 -17 -14 -24l-156 -120c-6 -5 -14 3 -8 9zM557 77c3 -49 -12 -63 -55 -64l-35 -1c-6 0 -8 -4 -8 -8c0 -3 2 -7 8 -7c33 0 89 4 125 4s92 -4 125 -4c6 0 8 4 8 7c0 4 -2 8 -8 8l-35 1c-43 1 -56 15 -57 44
l-28 578c-1 29 13 50 55 50h38c6 0 8 4 8 8c0 3 -2 7 -8 7h-156c-21 0 -26 -3 -31 -23l-126 -510c-1 -3 -2 -5 -4 -5s-3 2 -5 9l-130 506c-5 20 -10 23 -31 23h-153c-5 0 -7 -4 -7 -7c0 -4 2 -8 7 -8h44c37 0 51 -20 49 -49l-32 -573c-1 -23 -16 -41 -45 -45
c-21 -3 -31 -5 -47 -5c-6 0 -8 -4 -8 -8c0 -3 2 -7 8 -7c33 0 57 2 93 2s99 -3 132 -3c6 0 8 4 8 7c0 4 -2 8 -8 8l-22 1s-34 2 -54 5c-29 4 -34 22 -33 45l28 520c1 13 3 22 8 22s9 -15 13 -30c101 -380 129 -478 150 -568c1 -6 4 -10 11 -10s8 4 10 10l150 579
c4 14 7 19 12 19c6 0 6 -14 7 -32z" />
    <glyph glyph-name="N" unicode="N" horiz-adv-x="608" 
d="M177 700c-37 0 -71 -1 -109 2c-6 0 -9 -4 -9 -7c0 -4 3 -8 8 -8l40 -2c35 -2 45 -14 45 -45l1 -577c0 -31 -19 -42 -65 -44l-25 -1c-6 0 -8 -4 -8 -8c0 -3 2 -7 8 -7c33 0 65 4 101 4c37 0 70 -1 111 -5c6 -1 9 4 9 7c0 4 -3 8 -8 8l-45 3c-42 3 -58 12 -58 43v546
c0 13 0 22 5 22s10 -14 18 -30l286 -605c3 -6 5 -10 12 -10s9 4 9 10c0 23 1 51 1 83l1 558c0 31 19 42 65 44l25 1c6 0 8 4 8 8c0 3 -2 7 -8 7c-33 0 -65 -4 -101 -4c-37 0 -70 1 -111 5c-6 1 -9 -4 -9 -7c0 -4 3 -8 8 -8l45 -3c42 -3 58 -12 58 -43l-1 -435
c0 -13 -1 -21 -5 -21s-8 10 -13 21l-223 473c-7 15 -16 25 -33 25h-33z" />
    <glyph glyph-name="Nacute" unicode="&#x143;" horiz-adv-x="608" 
d="M246 760l127 147c9 10 18 14 28 14c13 0 23 -12 23 -26c0 -8 -4 -17 -14 -24l-156 -120c-6 -5 -14 3 -8 9zM177 700c-37 0 -71 -1 -109 2c-6 0 -9 -4 -9 -7c0 -4 3 -8 8 -8l40 -2c35 -2 45 -14 45 -45l1 -577c0 -31 -19 -42 -65 -44l-25 -1c-6 0 -8 -4 -8 -8
c0 -3 2 -7 8 -7c33 0 65 4 101 4c37 0 70 -1 111 -5c6 -1 9 4 9 7c0 4 -3 8 -8 8l-45 3c-42 3 -58 12 -58 43v546c0 13 0 22 5 22s10 -14 18 -30l286 -605c3 -6 5 -10 12 -10s9 4 9 10c0 23 1 51 1 83l1 558c0 31 19 42 65 44l25 1c6 0 8 4 8 8c0 3 -2 7 -8 7
c-33 0 -65 -4 -101 -4c-37 0 -70 1 -111 5c-6 1 -9 -4 -9 -7c0 -4 3 -8 8 -8l45 -3c42 -3 58 -12 58 -43l-1 -435c0 -13 -1 -21 -5 -21s-8 10 -13 21l-223 473c-7 15 -16 25 -33 25h-33z" />
    <glyph glyph-name="Ncaron" unicode="&#x147;" horiz-adv-x="608" 
d="M305 806l-121 125c-6 6 -15 1 -8 -9l107 -147c8 -11 18 -15 28 -15s20 4 28 15l107 147c9 12 -2 15 -8 9l-121 -125c-2 -2 -4 -3 -6 -3s-4 1 -6 3zM177 700c-37 0 -71 -1 -109 2c-6 0 -9 -4 -9 -7c0 -4 3 -8 8 -8l40 -2c35 -2 45 -14 45 -45l1 -577
c0 -31 -19 -42 -65 -44l-25 -1c-6 0 -8 -4 -8 -8c0 -3 2 -7 8 -7c33 0 65 4 101 4c37 0 70 -1 111 -5c6 -1 9 4 9 7c0 4 -3 8 -8 8l-45 3c-42 3 -58 12 -58 43v546c0 13 0 22 5 22s10 -14 18 -30l286 -605c3 -6 5 -10 12 -10s9 4 9 10c0 23 1 51 1 83l1 558
c0 31 19 42 65 44l25 1c6 0 8 4 8 8c0 3 -2 7 -8 7c-33 0 -65 -4 -101 -4c-37 0 -70 1 -111 5c-6 1 -9 -4 -9 -7c0 -4 3 -8 8 -8l45 -3c42 -3 58 -12 58 -43l-1 -435c0 -13 -1 -21 -5 -21s-8 10 -13 21l-223 473c-7 15 -16 25 -33 25h-33z" />
    <glyph glyph-name="uni0145" unicode="&#x145;" horiz-adv-x="608" 
d="M177 700c-37 0 -71 -1 -109 2c-6 0 -9 -4 -9 -7c0 -4 3 -8 8 -8l40 -2c35 -2 45 -14 45 -45l1 -577c0 -31 -19 -42 -65 -44l-25 -1c-6 0 -8 -4 -8 -8c0 -3 2 -7 8 -7c33 0 65 4 101 4c37 0 70 -1 111 -5c6 -1 9 4 9 7c0 4 -3 8 -8 8l-45 3c-42 3 -58 12 -58 43v546
c0 13 0 22 5 22s10 -14 18 -30l286 -605c3 -6 5 -10 12 -10s9 4 9 10c0 23 1 51 1 83l1 558c0 31 19 42 65 44l25 1c6 0 8 4 8 8c0 3 -2 7 -8 7c-33 0 -65 -4 -101 -4c-37 0 -70 1 -111 5c-6 1 -9 -4 -9 -7c0 -4 3 -8 8 -8l45 -3c42 -3 58 -12 58 -43l-1 -435
c0 -13 -1 -21 -5 -21s-8 10 -13 21l-223 473c-7 15 -16 25 -33 25h-33zM277 -106c0 22 17 42 42 42c27 0 46 -22 46 -62c0 -76 -71 -139 -126 -139c-7 0 -10 3 -10 7s3 7 9 7c38 0 90 42 90 78c0 17 -11 21 -23 26c-13 5 -28 18 -28 41z" />
    <glyph glyph-name="uni1E44" unicode="&#x1e44;" horiz-adv-x="608" 
d="M303 834c0 21 14 38 32 38s32 -17 32 -38c0 -20 -14 -37 -32 -37c-17 0 -32 17 -32 37zM177 700c-37 0 -71 -1 -109 2c-6 0 -9 -4 -9 -7c0 -4 3 -8 8 -8l40 -2c35 -2 45 -14 45 -45l1 -577c0 -31 -19 -42 -65 -44l-25 -1c-6 0 -8 -4 -8 -8c0 -3 2 -7 8 -7
c33 0 65 4 101 4c37 0 70 -1 111 -5c6 -1 9 4 9 7c0 4 -3 8 -8 8l-45 3c-42 3 -58 12 -58 43v546c0 13 0 22 5 22s10 -14 18 -30l286 -605c3 -6 5 -10 12 -10s9 4 9 10c0 23 1 51 1 83l1 558c0 31 19 42 65 44l25 1c6 0 8 4 8 8c0 3 -2 7 -8 7c-33 0 -65 -4 -101 -4
c-37 0 -70 1 -111 5c-6 1 -9 -4 -9 -7c0 -4 3 -8 8 -8l45 -3c42 -3 58 -12 58 -43l-1 -435c0 -13 -1 -21 -5 -21s-8 10 -13 21l-223 473c-7 15 -16 25 -33 25h-33z" />
    <glyph glyph-name="uni1E46" unicode="&#x1e46;" horiz-adv-x="608" 
d="M177 700c-37 0 -71 -1 -109 2c-6 0 -9 -4 -9 -7c0 -4 3 -8 8 -8l40 -2c35 -2 45 -14 45 -45l1 -577c0 -31 -19 -42 -65 -44l-25 -1c-6 0 -8 -4 -8 -8c0 -3 2 -7 8 -7c33 0 65 4 101 4c37 0 70 -1 111 -5c6 -1 9 4 9 7c0 4 -3 8 -8 8l-45 3c-42 3 -58 12 -58 43v546
c0 13 0 22 5 22s10 -14 18 -30l286 -605c3 -6 5 -10 12 -10s9 4 9 10c0 23 1 51 1 83l1 558c0 31 19 42 65 44l25 1c6 0 8 4 8 8c0 3 -2 7 -8 7c-33 0 -65 -4 -101 -4c-37 0 -70 1 -111 5c-6 1 -9 -4 -9 -7c0 -4 3 -8 8 -8l45 -3c42 -3 58 -12 58 -43l-1 -435
c0 -13 -1 -21 -5 -21s-8 10 -13 21l-223 473c-7 15 -16 25 -33 25h-33zM269 -76c0 21 14 38 32 38s32 -17 32 -38c0 -20 -14 -37 -32 -37c-17 0 -32 17 -32 37z" />
    <glyph glyph-name="Eng" unicode="&#x14a;" horiz-adv-x="608" 
d="M455 65c38 -90 23 -130 -38 -130v-19c60 0 87 24 87 90v83l1 552c0 23 11 41 40 45c20 3 63 3 63 3v11h-226v-11s41 0 61 -3c29 -4 42 -22 42 -45l-1 -429c0 -13 -1 -21 -5 -21s-8 10 -13 21l-226 469c-6 13 -15 19 -25 19h-175v-11h41c59 0 72 -39 72 -62v-564
c0 -23 -13 -43 -42 -47c-20 -3 -71 -5 -71 -5v-11h251v10l-118 12v587c0 13 0 22 5 22s10 -14 18 -30z" />
    <glyph glyph-name="Ntilde" unicode="&#xd1;" horiz-adv-x="608" 
d="M393 734c45 1 74 42 74 85c0 15 -5 23 -17 23c-11 0 -17 -8 -17 -23c0 -46 -12 -65 -40 -65c-50 0 -53 88 -118 88c-45 0 -75 -42 -75 -85c0 -15 5 -23 17 -23c11 0 17 8 17 23c0 46 12 65 40 65c50 0 55 -89 119 -88zM177 700c-37 0 -71 -1 -109 2c-6 0 -9 -4 -9 -7
c0 -4 3 -8 8 -8l40 -2c35 -2 45 -14 45 -45l1 -577c0 -31 -19 -42 -65 -44l-25 -1c-6 0 -8 -4 -8 -8c0 -3 2 -7 8 -7c33 0 65 4 101 4c37 0 70 -1 111 -5c6 -1 9 4 9 7c0 4 -3 8 -8 8l-45 3c-42 3 -58 12 -58 43v546c0 13 0 22 5 22s10 -14 18 -30l286 -605
c3 -6 5 -10 12 -10s9 4 9 10c0 23 1 51 1 83l1 558c0 31 19 42 65 44l25 1c6 0 8 4 8 8c0 3 -2 7 -8 7c-33 0 -65 -4 -101 -4c-37 0 -70 1 -111 5c-6 1 -9 -4 -9 -7c0 -4 3 -8 8 -8l45 -3c42 -3 58 -12 58 -43l-1 -435c0 -13 -1 -21 -5 -21s-8 10 -13 21l-223 473
c-7 15 -16 25 -33 25h-33z" />
    <glyph glyph-name="O" unicode="O" horiz-adv-x="558" 
d="M279 -19c182 0 264 158 264 366s-83 365 -264 366c-181 -1 -264 -158 -264 -366s82 -366 264 -366zM279 693c133 1 188 -108 188 -344c0 -232 -60 -346 -188 -348c-128 2 -188 118 -188 350c0 236 55 343 188 342z" />
    <glyph glyph-name="Oacute" unicode="&#xd3;" horiz-adv-x="558" 
d="M190 791l127 147c9 10 18 14 28 14c13 0 23 -12 23 -26c0 -8 -4 -17 -14 -24l-156 -120c-6 -5 -14 3 -8 9zM279 -19c182 0 264 158 264 366s-83 365 -264 366c-181 -1 -264 -158 -264 -366s82 -366 264 -366zM279 693c133 1 188 -108 188 -344c0 -232 -60 -346 -188 -348
c-128 2 -188 118 -188 350c0 236 55 343 188 342z" />
    <glyph glyph-name="uni01D1" unicode="&#x1d1;" horiz-adv-x="558" 
d="M271 803l-121 125c-6 6 -15 1 -8 -9l107 -147c8 -11 18 -15 28 -15s20 4 28 15l107 147c9 12 -2 15 -8 9l-121 -125c-2 -2 -4 -3 -6 -3s-4 1 -6 3zM279 -19c182 0 264 158 264 366s-83 365 -264 366c-181 -1 -264 -158 -264 -366s82 -366 264 -366zM279 693
c133 1 188 -108 188 -344c0 -232 -60 -346 -188 -348c-128 2 -188 118 -188 350c0 236 55 343 188 342z" />
    <glyph glyph-name="Ocircumflex" unicode="&#xd4;" horiz-adv-x="558" 
d="M268 884c2 2 4 3 6 3s4 -1 6 -3l121 -125c6 -6 17 -3 8 9l-107 147c-8 11 -18 15 -28 15s-20 -4 -28 -15l-107 -147c-7 -10 2 -15 8 -9zM279 -19c182 0 264 158 264 366s-83 365 -264 366c-181 -1 -264 -158 -264 -366s82 -366 264 -366zM279 693
c133 1 188 -108 188 -344c0 -232 -60 -346 -188 -348c-128 2 -188 118 -188 350c0 236 55 343 188 342z" />
    <glyph glyph-name="uni1ED0" unicode="&#x1ed0;" horiz-adv-x="558" 
d="M185 990l127 147c9 10 18 14 28 14c13 0 23 -12 23 -26c0 -8 -4 -17 -14 -24l-156 -120c-6 -5 -14 3 -8 9zM268 884c2 2 4 3 6 3s4 -1 6 -3l121 -125c6 -6 17 -3 8 9l-107 147c-8 11 -18 15 -28 15s-20 -4 -28 -15l-107 -147c-7 -10 2 -15 8 -9zM279 -19
c182 0 264 158 264 366s-83 365 -264 366c-181 -1 -264 -158 -264 -366s82 -366 264 -366zM279 693c133 1 188 -108 188 -344c0 -232 -60 -346 -188 -348c-128 2 -188 118 -188 350c0 236 55 343 188 342z" />
    <glyph glyph-name="uni1ED8" unicode="&#x1ed8;" horiz-adv-x="558" 
d="M268 884c2 2 4 3 6 3s4 -1 6 -3l121 -125c6 -6 17 -3 8 9l-107 147c-8 11 -18 15 -28 15s-20 -4 -28 -15l-107 -147c-7 -10 2 -15 8 -9zM279 -19c182 0 264 158 264 366s-83 365 -264 366c-181 -1 -264 -158 -264 -366s82 -366 264 -366zM279 693
c133 1 188 -108 188 -344c0 -232 -60 -346 -188 -348c-128 2 -188 118 -188 350c0 236 55 343 188 342zM247 -95c0 21 14 38 32 38s32 -17 32 -38c0 -20 -14 -37 -32 -37c-17 0 -32 17 -32 37z" />
    <glyph glyph-name="uni1ED2" unicode="&#x1ed2;" horiz-adv-x="558" 
d="M353 963c6 -6 -2 -14 -8 -9l-156 120c-10 7 -14 16 -14 24c0 14 10 26 23 26c10 0 19 -4 28 -14zM268 884c2 2 4 3 6 3s4 -1 6 -3l121 -125c6 -6 17 -3 8 9l-107 147c-8 11 -18 15 -28 15s-20 -4 -28 -15l-107 -147c-7 -10 2 -15 8 -9zM279 -19c182 0 264 158 264 366
s-83 365 -264 366c-181 -1 -264 -158 -264 -366s82 -366 264 -366zM279 693c133 1 188 -108 188 -344c0 -232 -60 -346 -188 -348c-128 2 -188 118 -188 350c0 236 55 343 188 342z" />
    <glyph glyph-name="uni1ED4" unicode="&#x1ed4;" horiz-adv-x="558" 
d="M354 920c-20 0 -37 15 -37 37c0 23 16 46 57 46c46 0 79 -33 79 -70c0 -14 -4 -27 -10 -40c-3 -7 -5 -9 -9 -9s-8 3 -6 9c4 12 7 24 7 33c0 22 -10 37 -23 37c-15 0 -19 -9 -23 -20c-5 -11 -15 -23 -35 -23zM268 884c2 2 4 3 6 3s4 -1 6 -3l121 -125c6 -6 17 -3 8 9
l-107 147c-8 11 -18 15 -28 15s-20 -4 -28 -15l-107 -147c-7 -10 2 -15 8 -9zM279 -19c182 0 264 158 264 366s-83 365 -264 366c-181 -1 -264 -158 -264 -366s82 -366 264 -366zM279 693c133 1 188 -108 188 -344c0 -232 -60 -346 -188 -348c-128 2 -188 118 -188 350
c0 236 55 343 188 342z" />
    <glyph glyph-name="uni1ED6" unicode="&#x1ed6;" horiz-adv-x="558" 
d="M332 964c45 1 74 42 74 85c0 15 -5 23 -17 23c-11 0 -17 -8 -17 -23c0 -46 -12 -65 -40 -65c-50 0 -53 88 -118 88c-45 0 -75 -42 -75 -85c0 -15 5 -23 17 -23c11 0 17 8 17 23c0 46 12 65 40 65c50 0 55 -89 119 -88zM268 884c2 2 4 3 6 3s4 -1 6 -3l121 -125
c6 -6 17 -3 8 9l-107 147c-8 11 -18 15 -28 15s-20 -4 -28 -15l-107 -147c-7 -10 2 -15 8 -9zM279 -19c182 0 264 158 264 366s-83 365 -264 366c-181 -1 -264 -158 -264 -366s82 -366 264 -366zM279 693c133 1 188 -108 188 -344c0 -232 -60 -346 -188 -348
c-128 2 -188 118 -188 350c0 236 55 343 188 342z" />
    <glyph glyph-name="Odieresis" unicode="&#xd6;" horiz-adv-x="558" 
d="M149 812c0 25 17 45 39 45s38 -20 38 -45c0 -24 -16 -45 -38 -45c-21 0 -38 21 -39 45zM332 812c0 25 18 45 40 45s38 -20 38 -45c0 -24 -16 -45 -38 -45c-21 0 -39 21 -40 45zM279 -19c182 0 264 158 264 366s-83 365 -264 366c-181 -1 -264 -158 -264 -366
s82 -366 264 -366zM279 693c133 1 188 -108 188 -344c0 -232 -60 -346 -188 -348c-128 2 -188 118 -188 350c0 236 55 343 188 342z" />
    <glyph glyph-name="uni022A" unicode="&#x22a;" horiz-adv-x="558" 
d="M401 907c7 0 11 5 11 10s-4 10 -11 10h-241c-7 0 -11 -5 -11 -10s4 -10 11 -10h241zM149 812c0 25 17 45 39 45s38 -20 38 -45c0 -24 -16 -45 -38 -45c-21 0 -38 21 -39 45zM332 812c0 25 18 45 40 45s38 -20 38 -45c0 -24 -16 -45 -38 -45c-21 0 -39 21 -40 45zM279 -19
c182 0 264 158 264 366s-83 365 -264 366c-181 -1 -264 -158 -264 -366s82 -366 264 -366zM279 693c133 1 188 -108 188 -344c0 -232 -60 -346 -188 -348c-128 2 -188 118 -188 350c0 236 55 343 188 342z" />
    <glyph glyph-name="uni1ECC" unicode="&#x1ecc;" horiz-adv-x="558" 
d="M279 -19c182 0 264 158 264 366s-83 365 -264 366c-181 -1 -264 -158 -264 -366s82 -366 264 -366zM279 693c133 1 188 -108 188 -344c0 -232 -60 -346 -188 -348c-128 2 -188 118 -188 350c0 236 55 343 188 342zM247 -95c0 21 14 38 32 38s32 -17 32 -38
c0 -20 -14 -37 -32 -37c-17 0 -32 17 -32 37z" />
    <glyph glyph-name="Ograve" unicode="&#xd2;" horiz-adv-x="558" 
d="M358 764c6 -6 -2 -14 -8 -9l-156 120c-10 7 -14 16 -14 24c0 14 10 26 23 26c10 0 19 -4 28 -14zM279 -19c182 0 264 158 264 366s-83 365 -264 366c-181 -1 -264 -158 -264 -366s82 -366 264 -366zM279 693c133 1 188 -108 188 -344c0 -232 -60 -346 -188 -348
c-128 2 -188 118 -188 350c0 236 55 343 188 342z" />
    <glyph glyph-name="uni1ECE" unicode="&#x1ece;" horiz-adv-x="558" 
d="M248 798c-20 0 -37 15 -37 37c0 23 16 46 57 46c46 0 79 -33 79 -70c0 -14 -4 -27 -10 -40c-3 -7 -5 -9 -9 -9s-8 3 -6 9c4 12 7 24 7 33c0 22 -10 37 -23 37c-15 0 -19 -9 -23 -20c-5 -11 -15 -23 -35 -23zM279 -19c182 0 264 158 264 366s-83 365 -264 366
c-181 -1 -264 -158 -264 -366s82 -366 264 -366zM279 693c133 1 188 -108 188 -344c0 -232 -60 -346 -188 -348c-128 2 -188 118 -188 350c0 236 55 343 188 342z" />
    <glyph glyph-name="Ohorn" unicode="&#x1a0;" horiz-adv-x="558" 
d="M360 701c125 -42 183 -180 183 -354c0 -208 -82 -366 -264 -366s-264 158 -264 366s83 365 264 366c16 0 31 -1 45 -4c49 4 57 45 57 96c0 24 15 37 32 37c19 0 33 -14 33 -37c0 -50 -37 -89 -86 -104zM279 1c128 2 188 116 188 348c0 236 -55 345 -188 344
c-133 1 -188 -106 -188 -342c0 -232 60 -348 188 -350z" />
    <glyph glyph-name="uni1EDA" unicode="&#x1eda;" horiz-adv-x="558" 
d="M198 782c-6 -5 -14 3 -8 9l127 147c9 10 18 14 28 14c13 0 23 -12 23 -26c0 -8 -4 -17 -14 -24zM360 701c125 -42 183 -180 183 -354c0 -208 -82 -366 -264 -366s-264 158 -264 366s83 365 264 366c16 0 31 -1 45 -4c49 4 57 45 57 96c0 24 15 37 32 37
c19 0 33 -14 33 -37c0 -50 -37 -89 -86 -104zM279 1c128 2 188 116 188 348c0 236 -55 345 -188 344c-133 1 -188 -106 -188 -342c0 -232 60 -348 188 -350z" />
    <glyph glyph-name="uni1EE2" unicode="&#x1ee2;" horiz-adv-x="558" 
d="M360 701c125 -42 183 -180 183 -354c0 -208 -82 -366 -264 -366s-264 158 -264 366s83 365 264 366c16 0 31 -1 45 -4c49 4 57 45 57 96c0 24 15 37 32 37c19 0 33 -14 33 -37c0 -50 -37 -89 -86 -104zM279 1c128 2 188 116 188 348c0 236 -55 345 -188 344
c-133 1 -188 -106 -188 -342c0 -232 60 -348 188 -350zM279 -57c18 0 32 -17 32 -38c0 -20 -14 -37 -32 -37c-17 0 -32 17 -32 37c0 21 14 38 32 38z" />
    <glyph glyph-name="uni1EDC" unicode="&#x1edc;" horiz-adv-x="558" 
d="M194 875c-10 7 -14 16 -14 24c0 14 10 26 23 26c10 0 19 -4 28 -14l127 -147c6 -6 -2 -14 -8 -9zM360 701c125 -42 183 -180 183 -354c0 -208 -82 -366 -264 -366s-264 158 -264 366s83 365 264 366c16 0 31 -1 45 -4c49 4 57 45 57 96c0 24 15 37 32 37
c19 0 33 -14 33 -37c0 -50 -37 -89 -86 -104zM279 1c128 2 188 116 188 348c0 236 -55 345 -188 344c-133 1 -188 -106 -188 -342c0 -232 60 -348 188 -350z" />
    <glyph glyph-name="uni1EDE" unicode="&#x1ede;" horiz-adv-x="558" 
d="M248 798c-20 0 -37 15 -37 37c0 23 16 46 57 46c46 0 79 -33 79 -70c0 -14 -4 -27 -10 -40c-3 -7 -5 -9 -9 -9s-8 3 -6 9c4 12 7 24 7 33c0 22 -10 37 -23 37c-15 0 -19 -9 -23 -20c-5 -11 -15 -23 -35 -23zM360 701c125 -42 183 -180 183 -354
c0 -208 -82 -366 -264 -366s-264 158 -264 366s83 365 264 366c16 0 31 -1 45 -4c49 4 57 45 57 96c0 24 15 37 32 37c19 0 33 -14 33 -37c0 -50 -37 -89 -86 -104zM279 1c128 2 188 116 188 348c0 236 -55 345 -188 344c-133 1 -188 -106 -188 -342
c0 -232 60 -348 188 -350z" />
    <glyph glyph-name="uni1EE0" unicode="&#x1ee0;" horiz-adv-x="558" 
d="M360 701c125 -42 183 -180 183 -354c0 -208 -82 -366 -264 -366s-264 158 -264 366s83 365 264 366c16 0 31 -1 45 -4c49 4 57 45 57 96v5c-12 -25 -35 -44 -65 -45c-64 -1 -69 88 -119 88c-28 0 -40 -19 -40 -65c0 -15 -6 -23 -17 -23c-12 0 -17 8 -17 23
c0 43 30 85 75 85c65 0 68 -88 118 -88c28 0 40 19 40 65c0 15 6 23 17 23c12 0 17 -8 17 -23c0 -7 -1 -14 -2 -21c6 8 15 13 25 13c19 0 33 -14 33 -37c0 -50 -37 -89 -86 -104zM279 1c128 2 188 116 188 348c0 236 -55 345 -188 344c-133 1 -188 -106 -188 -342
c0 -232 60 -348 188 -350z" />
    <glyph glyph-name="Ohungarumlaut" unicode="&#x150;" horiz-adv-x="558" 
d="M185 747l33 148c5 21 16 29 29 29c12 0 23 -11 23 -25c0 -6 -1 -12 -4 -18l-69 -139c-3 -7 -14 -5 -12 5zM293 751l77 150c7 14 18 19 27 19c13 0 25 -10 25 -24c0 -7 -3 -15 -10 -23l-110 -131c-6 -7 -14 0 -9 9zM279 -19c182 0 264 158 264 366s-83 365 -264 366
c-181 -1 -264 -158 -264 -366s82 -366 264 -366zM279 693c133 1 188 -108 188 -344c0 -232 -60 -346 -188 -348c-128 2 -188 118 -188 350c0 236 55 343 188 342z" />
    <glyph glyph-name="Omacron" unicode="&#x14c;" horiz-adv-x="558" 
d="M399 802c7 0 11 5 11 10s-4 10 -11 10h-241c-7 0 -11 -5 -11 -10s4 -10 11 -10h241zM279 -19c182 0 264 158 264 366s-83 365 -264 366c-181 -1 -264 -158 -264 -366s82 -366 264 -366zM279 693c133 1 188 -108 188 -344c0 -232 -60 -346 -188 -348
c-128 2 -188 118 -188 350c0 236 55 343 188 342z" />
    <glyph glyph-name="uni1E52" unicode="&#x1e52;" horiz-adv-x="558" 
d="M190 882l127 147c9 10 18 14 28 14c13 0 23 -12 23 -26c0 -8 -4 -17 -14 -24l-156 -120c-6 -5 -14 3 -8 9zM399 802c7 0 11 5 11 10s-4 10 -11 10h-241c-7 0 -11 -5 -11 -10s4 -10 11 -10h241zM279 -19c182 0 264 158 264 366s-83 365 -264 366
c-181 -1 -264 -158 -264 -366s82 -366 264 -366zM279 693c133 1 188 -108 188 -344c0 -232 -60 -346 -188 -348c-128 2 -188 118 -188 350c0 236 55 343 188 342z" />
    <glyph glyph-name="uni1E50" unicode="&#x1e50;" horiz-adv-x="558" 
d="M358 855c6 -6 -2 -14 -8 -9l-156 120c-10 7 -14 16 -14 24c0 14 10 26 23 26c10 0 19 -4 28 -14zM399 802c7 0 11 5 11 10s-4 10 -11 10h-241c-7 0 -11 -5 -11 -10s4 -10 11 -10h241zM279 -19c182 0 264 158 264 366s-83 365 -264 366c-181 -1 -264 -158 -264 -366
s82 -366 264 -366zM279 693c133 1 188 -108 188 -344c0 -232 -60 -346 -188 -348c-128 2 -188 118 -188 350c0 236 55 343 188 342z" />
    <glyph glyph-name="Oslash" unicode="&#xd8;" horiz-adv-x="558" 
d="M417 672c86 -60 126 -180 126 -325c0 -208 -82 -366 -264 -366c-46 0 -86 10 -119 29l-16 -41c-6 -14 -13 -28 -25 -28c-10 0 -17 6 -17 15c0 5 1 10 4 19l22 56c-77 63 -113 178 -113 316c0 208 83 365 264 366c40 0 75 -8 106 -22l9 23c6 14 13 28 25 28
c10 0 17 -6 17 -15c0 -5 -1 -10 -4 -18zM91 351c0 -126 18 -217 54 -275l230 590c-26 18 -58 27 -96 27c-133 1 -188 -106 -188 -342zM279 1c128 2 188 116 188 348c0 140 -19 235 -63 289l-232 -596c28 -27 64 -40 107 -41z" />
    <glyph glyph-name="Oslashacute" unicode="&#x1fe;" horiz-adv-x="558" 
d="M198 782c-6 -5 -14 3 -8 9l127 147c9 10 18 14 28 14c13 0 23 -12 23 -26c0 -8 -4 -17 -14 -24zM417 672c86 -60 126 -180 126 -325c0 -208 -82 -366 -264 -366c-46 0 -86 10 -119 29l-16 -41c-6 -14 -13 -28 -25 -28c-10 0 -17 6 -17 15c0 5 1 10 4 19l22 56
c-77 63 -113 178 -113 316c0 208 83 365 264 366c40 0 75 -8 106 -22l9 23c6 14 13 28 25 28c10 0 17 -6 17 -15c0 -5 -1 -10 -4 -18zM91 351c0 -126 18 -217 54 -275l230 590c-26 18 -58 27 -96 27c-133 1 -188 -106 -188 -342zM279 1c128 2 188 116 188 348
c0 140 -19 235 -63 289l-232 -596c28 -27 64 -40 107 -41z" />
    <glyph glyph-name="Otilde" unicode="&#xd5;" horiz-adv-x="558" 
d="M328 734c45 1 74 42 74 85c0 15 -5 23 -17 23c-11 0 -17 -8 -17 -23c0 -46 -12 -65 -40 -65c-50 0 -53 88 -118 88c-45 0 -75 -42 -75 -85c0 -15 5 -23 17 -23c11 0 17 8 17 23c0 46 12 65 40 65c50 0 55 -89 119 -88zM279 -19c182 0 264 158 264 366s-83 365 -264 366
c-181 -1 -264 -158 -264 -366s82 -366 264 -366zM279 693c133 1 188 -108 188 -344c0 -232 -60 -346 -188 -348c-128 2 -188 118 -188 350c0 236 55 343 188 342z" />
    <glyph glyph-name="uni1E4C" unicode="&#x1e4c;" horiz-adv-x="558" 
d="M190 925l127 147c9 10 18 14 28 14c13 0 23 -12 23 -26c0 -8 -4 -17 -14 -24l-156 -120c-6 -5 -14 3 -8 9zM337 765c45 1 74 42 74 85c0 15 -5 23 -17 23c-11 0 -17 -8 -17 -23c0 -46 -12 -65 -40 -65c-50 0 -53 88 -118 88c-45 0 -75 -42 -75 -85c0 -15 5 -23 17 -23
c11 0 17 8 17 23c0 46 12 65 40 65c50 0 55 -89 119 -88zM279 -19c182 0 264 158 264 366s-83 365 -264 366c-181 -1 -264 -158 -264 -366s82 -366 264 -366zM279 693c133 1 188 -108 188 -344c0 -232 -60 -346 -188 -348c-128 2 -188 118 -188 350c0 236 55 343 188 342z
" />
    <glyph glyph-name="OE" unicode="&#x152;" horiz-adv-x="882" 
d="M693 21c86 0 106 68 143 193c2 5 6 7 9 6c4 -1 8 -5 7 -10c-24 -87 -43 -161 -43 -221c0 -5 -4 -7 -7 -7c-4 0 -7 2 -7 7c0 10 -9 12 -27 12h-461c-182 0 -292 138 -292 346s111 354 292 354h441c25 0 28 13 30 38c0 5 3 7 7 7s8 -3 7 -8c-4 -33 -7 -71 -9 -109
s-3 -76 -3 -110c0 -6 -4 -8 -8 -8c-3 0 -7 2 -7 9c0 99 -6 162 -91 162h-108c-46 0 -78 -5 -78 -50v-237c0 -20 7 -29 27 -29h81c51 0 62 37 63 108c0 5 4 8 8 8c3 0 7 -3 7 -8v-246c0 -6 -4 -10 -7 -10c-4 0 -8 4 -8 10c0 81 -12 118 -63 118h-80c-21 0 -28 -5 -28 -24
v-255c0 -45 43 -46 72 -46h133zM418 99v504c0 46 -22 79 -111 78c-133 -1 -216 -96 -216 -332c0 -232 88 -326 216 -328c89 -1 111 32 111 78z" />
    <glyph glyph-name="P" unicode="P" horiz-adv-x="513" 
d="M132 59c0 -31 -22 -44 -65 -46l-25 -1c-6 0 -8 -4 -8 -8c0 -3 2 -7 8 -7c33 0 103 3 139 3s108 -3 141 -3c6 0 8 4 8 7c0 4 -2 8 -8 8l-65 3c-43 2 -55 17 -55 46v220c0 19 7 24 29 24h31c173 0 251 86 251 201c0 91 -54 194 -231 194h-244c-6 0 -8 -3 -8 -7s3 -8 8 -8
h35c47 0 59 -13 59 -56v-570zM231 326c-21 0 -29 8 -29 28v270c0 44 9 56 68 56c113 0 173 -66 173 -173c0 -113 -60 -181 -181 -181h-31z" />
    <glyph glyph-name="Thorn" unicode="&#xde;" horiz-adv-x="534" 
d="M213 58c0 -29 11 -42 54 -44l25 -1c6 0 8 -4 8 -8c0 -3 -2 -7 -8 -7c-33 0 -79 3 -115 3s-92 -3 -125 -3c-6 0 -8 4 -8 7c0 4 2 8 8 8l25 1c43 2 65 15 65 46v581c0 31 -10 42 -45 45l-40 4c-5 0 -8 4 -8 8c0 3 3 8 9 7c35 -6 72 -5 109 -5c36 0 92 3 125 3
c6 0 8 -4 8 -7c0 -4 -2 -8 -8 -8l-25 -1c-43 -2 -54 -15 -54 -46v-60c0 -20 7 -29 27 -29h83c153 0 181 -111 181 -181c0 -102 -58 -174 -225 -174h-38c-21 0 -28 -5 -28 -24v-115zM279 217c115 0 154 57 154 155c0 39 2 160 -131 160h-61c-21 0 -28 -5 -28 -24v-262
c0 -20 7 -29 27 -29h39z" />
    <glyph glyph-name="Q" unicode="Q" horiz-adv-x="587" 
d="M546 -47c3 0 6 -2 6 -7c0 -62 -51 -115 -124 -115c-106 0 -157 81 -157 152c-156 21 -226 171 -226 364c0 208 83 365 264 366c181 -1 264 -158 264 -366c0 -200 -75 -353 -242 -365c-1 -68 34 -131 110 -131c60 0 98 52 98 95c0 5 3 7 7 7zM121 351
c0 -232 60 -348 188 -350c128 2 188 116 188 348c0 236 -55 345 -188 344c-133 1 -188 -106 -188 -342z" />
    <glyph glyph-name="R" unicode="R" horiz-adv-x="572" 
d="M554 -26c-92 0 -114 96 -122 205c-7 91 -27 180 -131 180h-75c-21 0 -28 -5 -28 -24v-278c0 -29 12 -43 55 -44l35 -1c6 0 8 -4 8 -8c0 -3 -2 -7 -8 -7c-33 0 -89 3 -125 3s-92 -3 -125 -3c-6 0 -8 4 -8 7c0 4 2 8 8 8l25 1c43 2 65 15 65 46v581c0 31 -10 43 -45 45
l-40 2c-5 0 -8 4 -8 8c0 3 3 7 9 7c35 -2 72 -3 109 -3l166 1c105 1 186 -72 186 -172c0 -93 -76 -145 -146 -156c-3 0 -4 -2 -4 -4s1 -3 4 -4c140 -33 141 -95 148 -211c5 -87 -5 -162 65 -162c5 0 10 -2 10 -8c0 -5 -4 -9 -10 -9h-18zM316 379c72 0 119 66 119 148
c0 76 -44 153 -133 153h-46c-38 -1 -58 -18 -58 -56v-216c0 -20 7 -29 27 -29h91z" />
    <glyph glyph-name="Racute" unicode="&#x154;" horiz-adv-x="572" 
d="M177 760l127 147c9 10 18 14 28 14c13 0 23 -12 23 -26c0 -8 -4 -17 -14 -24l-156 -120c-6 -5 -14 3 -8 9zM554 -26c-92 0 -114 96 -122 205c-7 91 -27 180 -131 180h-75c-21 0 -28 -5 -28 -24v-278c0 -29 12 -43 55 -44l35 -1c6 0 8 -4 8 -8c0 -3 -2 -7 -8 -7
c-33 0 -89 3 -125 3s-92 -3 -125 -3c-6 0 -8 4 -8 7c0 4 2 8 8 8l25 1c43 2 65 15 65 46v581c0 31 -10 43 -45 45l-40 2c-5 0 -8 4 -8 8c0 3 3 7 9 7c35 -2 72 -3 109 -3l166 1c105 1 186 -72 186 -172c0 -93 -76 -145 -146 -156c-3 0 -4 -2 -4 -4s1 -3 4 -4
c140 -33 141 -95 148 -211c5 -87 -5 -162 65 -162c5 0 10 -2 10 -8c0 -5 -4 -9 -10 -9h-18zM316 379c72 0 119 66 119 148c0 76 -44 153 -133 153h-46c-38 -1 -58 -18 -58 -56v-216c0 -20 7 -29 27 -29h91z" />
    <glyph glyph-name="Rcaron" unicode="&#x158;" horiz-adv-x="572" 
d="M258 772l-121 125c-6 6 -15 1 -8 -9l107 -147c8 -11 18 -15 28 -15s20 4 28 15l107 147c9 12 -2 15 -8 9l-121 -125c-2 -2 -4 -3 -6 -3s-4 1 -6 3zM554 -26c-92 0 -114 96 -122 205c-7 91 -27 180 -131 180h-75c-21 0 -28 -5 -28 -24v-278c0 -29 12 -43 55 -44l35 -1
c6 0 8 -4 8 -8c0 -3 -2 -7 -8 -7c-33 0 -89 3 -125 3s-92 -3 -125 -3c-6 0 -8 4 -8 7c0 4 2 8 8 8l25 1c43 2 65 15 65 46v581c0 31 -10 43 -45 45l-40 2c-5 0 -8 4 -8 8c0 3 3 7 9 7c35 -2 72 -3 109 -3l166 1c105 1 186 -72 186 -172c0 -93 -76 -145 -146 -156
c-3 0 -4 -2 -4 -4s1 -3 4 -4c140 -33 141 -95 148 -211c5 -87 -5 -162 65 -162c5 0 10 -2 10 -8c0 -5 -4 -9 -10 -9h-18zM316 379c72 0 119 66 119 148c0 76 -44 153 -133 153h-46c-38 -1 -58 -18 -58 -56v-216c0 -20 7 -29 27 -29h91z" />
    <glyph glyph-name="uni0156" unicode="&#x156;" horiz-adv-x="572" 
d="M554 -26c-92 0 -114 96 -122 205c-7 91 -27 180 -131 180h-75c-21 0 -28 -5 -28 -24v-278c0 -29 12 -43 55 -44l35 -1c6 0 8 -4 8 -8c0 -3 -2 -7 -8 -7c-33 0 -89 3 -125 3s-92 -3 -125 -3c-6 0 -8 4 -8 7c0 4 2 8 8 8l25 1c43 2 65 15 65 46v581c0 31 -10 43 -45 45
l-40 2c-5 0 -8 4 -8 8c0 3 3 7 9 7c35 -2 72 -3 109 -3l166 1c105 1 186 -72 186 -172c0 -93 -76 -145 -146 -156c-3 0 -4 -2 -4 -4s1 -3 4 -4c140 -33 141 -95 148 -211c5 -87 -5 -162 65 -162c5 0 10 -2 10 -8c0 -5 -4 -9 -10 -9h-18zM316 379c72 0 119 66 119 148
c0 76 -44 153 -133 153h-46c-38 -1 -58 -18 -58 -56v-216c0 -20 7 -29 27 -29h91zM266 -106c0 22 17 42 42 42c27 0 46 -22 46 -62c0 -76 -71 -139 -126 -139c-7 0 -10 3 -10 7s3 7 9 7c38 0 90 42 90 78c0 17 -11 21 -23 26c-13 5 -28 18 -28 41z" />
    <glyph glyph-name="S" unicode="S" horiz-adv-x="493" 
d="M258 -17c128 -1 205 79 205 181c0 134 -96 185 -173 228c-89 49 -202 94 -202 186c0 73 59 112 134 112c113 0 185 -124 185 -249c0 -5 4 -8 7 -8c4 0 8 4 8 9c-1 30 -4 70 -4 121c0 31 1 76 12 136c1 5 -2 9 -6 9s-7 -2 -8 -7l-8 -40c-4 -18 -12 -29 -22 -29
c-5 0 -11 2 -15 6c-25 22 -77 74 -153 74c-115 0 -180 -63 -180 -160c0 -90 72 -161 201 -226c87 -43 164 -87 163 -184c-1 -68 -45 -132 -147 -131c-135 1 -221 139 -221 281c0 5 -4 9 -7 9c-4 0 -8 -4 -8 -9c0 -30 4 -70 4 -121c0 -31 0 -114 -12 -174c-1 -5 2 -9 6 -9
s7 2 8 7l13 55c4 18 12 29 22 29c5 0 11 -2 15 -6c24 -24 90 -92 183 -90z" />
    <glyph glyph-name="Sacute" unicode="&#x15a;" horiz-adv-x="493" 
d="M133 772l127 147c9 10 18 14 28 14c13 0 23 -12 23 -26c0 -8 -4 -17 -14 -24l-156 -120c-6 -5 -14 3 -8 9zM258 -17c128 -1 205 79 205 181c0 134 -96 185 -173 228c-89 49 -202 94 -202 186c0 73 59 112 134 112c113 0 185 -124 185 -249c0 -5 4 -8 7 -8c4 0 8 4 8 9
c-1 30 -4 70 -4 121c0 31 1 76 12 136c1 5 -2 9 -6 9s-7 -2 -8 -7l-8 -40c-4 -18 -12 -29 -22 -29c-5 0 -11 2 -15 6c-25 22 -77 74 -153 74c-115 0 -180 -63 -180 -160c0 -90 72 -161 201 -226c87 -43 164 -87 163 -184c-1 -68 -45 -132 -147 -131
c-135 1 -221 139 -221 281c0 5 -4 9 -7 9c-4 0 -8 -4 -8 -9c0 -30 4 -70 4 -121c0 -31 0 -114 -12 -174c-1 -5 2 -9 6 -9s7 2 8 7l13 55c4 18 12 29 22 29c5 0 11 -2 15 -6c24 -24 90 -92 183 -90z" />
    <glyph glyph-name="Scaron" unicode="&#x160;" horiz-adv-x="493" 
d="M214 784l-121 125c-6 6 -15 1 -8 -9l107 -147c8 -11 18 -15 28 -15s20 4 28 15l107 147c9 12 -2 15 -8 9l-121 -125c-2 -2 -4 -3 -6 -3s-4 1 -6 3zM258 -17c128 -1 205 79 205 181c0 134 -96 185 -173 228c-89 49 -202 94 -202 186c0 73 59 112 134 112
c113 0 185 -124 185 -249c0 -5 4 -8 7 -8c4 0 8 4 8 9c-1 30 -4 70 -4 121c0 31 1 76 12 136c1 5 -2 9 -6 9s-7 -2 -8 -7l-8 -40c-4 -18 -12 -29 -22 -29c-5 0 -11 2 -15 6c-25 22 -77 74 -153 74c-115 0 -180 -63 -180 -160c0 -90 72 -161 201 -226
c87 -43 164 -87 163 -184c-1 -68 -45 -132 -147 -131c-135 1 -221 139 -221 281c0 5 -4 9 -7 9c-4 0 -8 -4 -8 -9c0 -30 4 -70 4 -121c0 -31 0 -114 -12 -174c-1 -5 2 -9 6 -9s7 2 8 7l13 55c4 18 12 29 22 29c5 0 11 -2 15 -6c24 -24 90 -92 183 -90z" />
    <glyph glyph-name="Scedilla" unicode="&#x15e;" horiz-adv-x="493" 
d="M258 -17c128 -1 205 79 205 181c0 134 -96 185 -173 228c-89 49 -202 94 -202 186c0 73 59 112 134 112c113 0 185 -124 185 -249c0 -5 4 -8 7 -8c4 0 8 4 8 9c-1 30 -4 70 -4 121c0 31 1 76 12 136c1 5 -2 9 -6 9s-7 -2 -8 -7l-8 -40c-4 -18 -12 -29 -22 -29
c-5 0 -11 2 -15 6c-25 22 -77 74 -153 74c-115 0 -180 -63 -180 -160c0 -90 72 -161 201 -226c87 -43 164 -87 163 -184c-1 -68 -45 -132 -147 -131c-135 1 -221 139 -221 281c0 5 -4 9 -7 9c-4 0 -8 -4 -8 -9c0 -30 4 -70 4 -121c0 -31 0 -114 -12 -174c-1 -5 2 -9 6 -9
s7 2 8 7l13 55c4 18 12 29 22 29c5 0 11 -2 15 -6c24 -24 90 -92 183 -90zM248 1c-8 -16 -20 -34 -20 -45c0 -10 6 -17 30 -21c27 -4 69 -16 69 -66c0 -49 -34 -72 -73 -72s-60 25 -60 59c0 5 3 10 8 10s8 -5 8 -10c0 -23 15 -41 40 -41c26 0 41 17 41 44
c0 29 -14 41 -41 52c-27 9 -41 21 -41 40c0 18 11 31 18 50h21z" />
    <glyph glyph-name="uni0218" unicode="&#x218;" horiz-adv-x="493" 
d="M258 -17c128 -1 205 79 205 181c0 134 -96 185 -173 228c-89 49 -202 94 -202 186c0 73 59 112 134 112c113 0 185 -124 185 -249c0 -5 4 -8 7 -8c4 0 8 4 8 9c-1 30 -4 70 -4 121c0 31 1 76 12 136c1 5 -2 9 -6 9s-7 -2 -8 -7l-8 -40c-4 -18 -12 -29 -22 -29
c-5 0 -11 2 -15 6c-25 22 -77 74 -153 74c-115 0 -180 -63 -180 -160c0 -90 72 -161 201 -226c87 -43 164 -87 163 -184c-1 -68 -45 -132 -147 -131c-135 1 -221 139 -221 281c0 5 -4 9 -7 9c-4 0 -8 -4 -8 -9c0 -30 4 -70 4 -121c0 -31 0 -114 -12 -174c-1 -5 2 -9 6 -9
s7 2 8 7l13 55c4 18 12 29 22 29c5 0 11 -2 15 -6c24 -24 90 -92 183 -90zM233 -118c0 22 17 42 42 42c27 0 46 -22 46 -62c0 -76 -71 -139 -126 -139c-7 0 -10 3 -10 7s3 7 9 7c38 0 90 42 90 78c0 17 -11 21 -23 26c-13 5 -28 18 -28 41z" />
    <glyph glyph-name="uni1E62" unicode="&#x1e62;" horiz-adv-x="493" 
d="M258 -17c128 -1 205 79 205 181c0 134 -96 185 -173 228c-89 49 -202 94 -202 186c0 73 59 112 134 112c113 0 185 -124 185 -249c0 -5 4 -8 7 -8c4 0 8 4 8 9c-1 30 -4 70 -4 121c0 31 1 76 12 136c1 5 -2 9 -6 9s-7 -2 -8 -7l-8 -40c-4 -18 -12 -29 -22 -29
c-5 0 -11 2 -15 6c-25 22 -77 74 -153 74c-115 0 -180 -63 -180 -160c0 -90 72 -161 201 -226c87 -43 164 -87 163 -184c-1 -68 -45 -132 -147 -131c-135 1 -221 139 -221 281c0 5 -4 9 -7 9c-4 0 -8 -4 -8 -9c0 -30 4 -70 4 -121c0 -31 0 -114 -12 -174c-1 -5 2 -9 6 -9
s7 2 8 7l13 55c4 18 12 29 22 29c5 0 11 -2 15 -6c24 -24 90 -92 183 -90zM225 -88c0 21 14 38 32 38s32 -17 32 -38c0 -20 -14 -37 -32 -37c-17 0 -32 17 -32 37z" />
    <glyph glyph-name="uni1E9E" unicode="&#x1e9e;" horiz-adv-x="881" 
d="M258 -17c128 -1 205 79 205 181c0 134 -96 185 -173 228c-89 49 -202 94 -202 186c0 73 59 112 134 112c113 0 185 -124 185 -249c0 -5 4 -8 7 -8c4 0 8 4 8 9c-1 30 -4 70 -4 121c0 31 1 76 12 136c1 5 -2 9 -6 9s-7 -2 -8 -7l-8 -40c-4 -18 -12 -29 -22 -29
c-5 0 -11 2 -15 6c-25 22 -77 74 -153 74c-115 0 -180 -63 -180 -160c0 -90 72 -161 201 -226c87 -43 164 -87 163 -184c-1 -68 -45 -132 -147 -131c-135 1 -221 139 -221 281c0 5 -4 9 -7 9c-4 0 -8 -4 -8 -9c0 -30 4 -70 4 -121c0 -31 0 -114 -12 -174c-1 -5 2 -9 6 -9
s7 2 8 7l13 55c4 18 12 29 22 29c5 0 11 -2 15 -6c24 -24 90 -92 183 -90zM718 -17c128 -1 205 79 205 181c0 134 -96 185 -173 228c-89 49 -202 94 -202 186c0 73 59 112 134 112c113 0 185 -124 185 -249c0 -5 4 -8 7 -8c4 0 8 4 8 9c-1 30 -4 70 -4 121c0 31 1 76 12 136
c1 5 -2 9 -6 9s-7 -2 -8 -7l-8 -40c-4 -18 -12 -29 -22 -29c-5 0 -11 2 -15 6c-25 22 -77 74 -153 74c-115 0 -180 -63 -180 -160c0 -90 72 -161 201 -226c87 -43 164 -87 163 -184c-1 -68 -45 -132 -147 -131c-135 1 -221 139 -221 281c0 5 -4 9 -7 9c-4 0 -8 -4 -8 -9
c0 -30 4 -70 4 -121c0 -31 0 -114 -12 -174c-1 -5 2 -9 6 -9s7 2 8 7l13 55c4 18 12 29 22 29c5 0 11 -2 15 -6c24 -24 90 -92 183 -90z" />
    <glyph glyph-name="T" unicode="T" horiz-adv-x="552" 
d="M256 59c0 -31 -12 -45 -55 -46l-35 -1c-6 0 -8 -4 -8 -8c0 -3 2 -7 8 -7c33 0 89 3 125 3s92 -3 125 -3c6 0 8 4 8 7c0 4 -2 8 -8 8l-35 1c-43 1 -55 15 -55 44l1 614h75c85 0 103 -61 144 -164c2 -5 6 -7 9 -6c4 1 8 5 6 10c-26 64 -44 145 -44 219c0 5 -4 7 -7 7
c-4 0 -7 -2 -7 -7c0 -23 -2 -39 -27 -39h-370c-25 0 -27 16 -27 39c0 5 -3 7 -7 7c-3 0 -7 -2 -7 -7c0 -74 -20 -154 -44 -219c-2 -5 2 -9 6 -10c3 -1 7 1 9 6c41 103 59 164 144 164h75z" />
    <glyph glyph-name="Tbar" unicode="&#x166;" horiz-adv-x="524" 
d="M561 511c2 -5 -2 -9 -6 -10c-3 -1 -7 1 -9 6c-41 103 -59 164 -144 164h-75l-1 -322h142c12 0 18 -8 18 -16c0 -9 -6 -17 -18 -17h-142v-259c0 -29 12 -43 55 -44l35 -1c6 0 8 -4 8 -8c0 -3 -2 -7 -8 -7c-33 0 -89 3 -125 3s-92 -3 -125 -3c-6 0 -8 4 -8 7c0 4 2 8 8 8
l35 1c43 1 55 15 55 46v257h-122c-12 0 -18 8 -18 17c0 8 6 16 18 16h122l-1 322h-75c-85 0 -103 -61 -144 -164c-2 -5 -6 -7 -9 -6c-4 1 -8 5 -6 10c24 65 44 145 44 219c0 5 4 7 7 7c4 0 7 -2 7 -7c0 -23 2 -39 27 -39h370c25 0 27 16 27 39c0 5 3 7 7 7c3 0 7 -2 7 -7
c0 -74 18 -155 44 -219z" />
    <glyph glyph-name="Tcaron" unicode="&#x164;" horiz-adv-x="552" 
d="M283 763l-121 125c-6 6 -15 1 -8 -9l107 -147c8 -11 18 -15 28 -15s20 4 28 15l107 147c9 12 -2 15 -8 9l-121 -125c-2 -2 -4 -3 -6 -3s-4 1 -6 3zM256 59c0 -31 -12 -45 -55 -46l-35 -1c-6 0 -8 -4 -8 -8c0 -3 2 -7 8 -7c33 0 89 3 125 3s92 -3 125 -3c6 0 8 4 8 7
c0 4 -2 8 -8 8l-35 1c-43 1 -55 15 -55 44l1 614h75c85 0 103 -61 144 -164c2 -5 6 -7 9 -6c4 1 8 5 6 10c-26 64 -44 145 -44 219c0 5 -4 7 -7 7c-4 0 -7 -2 -7 -7c0 -23 -2 -39 -27 -39h-370c-25 0 -27 16 -27 39c0 5 -3 7 -7 7c-3 0 -7 -2 -7 -7c0 -74 -20 -154 -44 -219
c-2 -5 2 -9 6 -10c3 -1 7 1 9 6c41 103 59 164 144 164h75z" />
    <glyph glyph-name="uni0162" unicode="&#x162;" horiz-adv-x="552" 
d="M256 59c0 -31 -12 -45 -55 -46l-35 -1c-6 0 -8 -4 -8 -8c0 -3 2 -7 8 -7c33 0 89 3 125 3s92 -3 125 -3c6 0 8 4 8 7c0 4 -2 8 -8 8l-35 1c-43 1 -55 15 -55 44l1 614h75c85 0 103 -61 144 -164c2 -5 6 -7 9 -6c4 1 8 5 6 10c-26 64 -44 145 -44 219c0 5 -4 7 -7 7
c-4 0 -7 -2 -7 -7c0 -23 -2 -39 -27 -39h-370c-25 0 -27 16 -27 39c0 5 -3 7 -7 7c-3 0 -7 -2 -7 -7c0 -74 -20 -154 -44 -219c-2 -5 2 -9 6 -10c3 -1 7 1 9 6c41 103 59 164 144 164h75zM288 3c-8 -16 -20 -34 -20 -45c0 -10 6 -17 30 -21c27 -4 69 -16 69 -66
c0 -49 -34 -72 -73 -72s-60 25 -60 59c0 5 3 10 8 10s8 -5 8 -10c0 -23 15 -41 40 -41c26 0 41 17 41 44c0 29 -14 41 -41 52c-27 9 -41 21 -41 40c0 18 11 31 18 50h21z" />
    <glyph glyph-name="uni021A" unicode="&#x21a;" horiz-adv-x="552" 
d="M256 59c0 -31 -12 -45 -55 -46l-35 -1c-6 0 -8 -4 -8 -8c0 -3 2 -7 8 -7c33 0 89 3 125 3s92 -3 125 -3c6 0 8 4 8 7c0 4 -2 8 -8 8l-35 1c-43 1 -55 15 -55 44l1 614h75c85 0 103 -61 144 -164c2 -5 6 -7 9 -6c4 1 8 5 6 10c-26 64 -44 145 -44 219c0 5 -4 7 -7 7
c-4 0 -7 -2 -7 -7c0 -23 -2 -39 -27 -39h-370c-25 0 -27 16 -27 39c0 5 -3 7 -7 7c-3 0 -7 -2 -7 -7c0 -74 -20 -154 -44 -219c-2 -5 2 -9 6 -10c3 -1 7 1 9 6c41 103 59 164 144 164h75zM267 -106c0 22 17 42 42 42c27 0 46 -22 46 -62c0 -76 -71 -139 -126 -139
c-7 0 -10 3 -10 7s3 7 9 7c38 0 90 42 90 78c0 17 -11 21 -23 26c-13 5 -28 18 -28 41z" />
    <glyph glyph-name="uni1E6C" unicode="&#x1e6c;" horiz-adv-x="552" 
d="M256 59c0 -31 -12 -45 -55 -46l-35 -1c-6 0 -8 -4 -8 -8c0 -3 2 -7 8 -7c33 0 89 3 125 3s92 -3 125 -3c6 0 8 4 8 7c0 4 -2 8 -8 8l-35 1c-43 1 -55 15 -55 44l1 614h75c85 0 103 -61 144 -164c2 -5 6 -7 9 -6c4 1 8 5 6 10c-26 64 -44 145 -44 219c0 5 -4 7 -7 7
c-4 0 -7 -2 -7 -7c0 -23 -2 -39 -27 -39h-370c-25 0 -27 16 -27 39c0 5 -3 7 -7 7c-3 0 -7 -2 -7 -7c0 -74 -20 -154 -44 -219c-2 -5 2 -9 6 -10c3 -1 7 1 9 6c41 103 59 164 144 164h75zM259 -76c0 21 14 38 32 38s32 -17 32 -38c0 -20 -14 -37 -32 -37
c-17 0 -32 17 -32 37z" />
    <glyph glyph-name="U" unicode="U" horiz-adv-x="651" 
d="M523 644c0 31 -16 40 -58 43l-45 3c-5 0 -8 4 -8 8c0 3 3 8 9 7c41 -4 74 -5 111 -5c36 0 68 4 101 4c6 0 8 -4 8 -7c0 -4 -2 -8 -8 -8l-25 -1c-46 -2 -65 -13 -65 -44v-436c0 -86 -20 -218 -196 -218c-164 0 -224 93 -224 207v443c0 31 -10 42 -45 45l-40 4
c-5 0 -8 4 -8 8c0 3 3 8 9 7c35 -4 72 -5 109 -5c36 0 92 3 125 3c6 0 8 -4 8 -7c0 -4 -2 -8 -8 -8l-25 -1c-43 -1 -55 -14 -55 -45v-443c0 -81 25 -188 154 -188c143 0 176 94 176 188v446z" />
    <glyph glyph-name="Uacute" unicode="&#xda;" horiz-adv-x="651" 
d="M259 791l127 147c9 10 18 14 28 14c13 0 23 -12 23 -26c0 -8 -4 -17 -14 -24l-156 -120c-6 -5 -14 3 -8 9zM523 644c0 31 -16 40 -58 43l-45 3c-5 0 -8 4 -8 8c0 3 3 8 9 7c41 -4 74 -5 111 -5c36 0 68 4 101 4c6 0 8 -4 8 -7c0 -4 -2 -8 -8 -8l-25 -1
c-46 -2 -65 -13 -65 -44v-436c0 -86 -20 -218 -196 -218c-164 0 -224 93 -224 207v443c0 31 -10 42 -45 45l-40 4c-5 0 -8 4 -8 8c0 3 3 8 9 7c35 -4 72 -5 109 -5c36 0 92 3 125 3c6 0 8 -4 8 -7c0 -4 -2 -8 -8 -8l-25 -1c-43 -1 -55 -14 -55 -45v-443
c0 -81 25 -188 154 -188c143 0 176 94 176 188v446z" />
    <glyph glyph-name="uni01D3" unicode="&#x1d3;" horiz-adv-x="651" 
d="M340 803l-121 125c-6 6 -15 1 -8 -9l107 -147c8 -11 18 -15 28 -15s20 4 28 15l107 147c9 12 -2 15 -8 9l-121 -125c-2 -2 -4 -3 -6 -3s-4 1 -6 3zM523 644c0 31 -16 40 -58 43l-45 3c-5 0 -8 4 -8 8c0 3 3 8 9 7c41 -4 74 -5 111 -5c36 0 68 4 101 4c6 0 8 -4 8 -7
c0 -4 -2 -8 -8 -8l-25 -1c-46 -2 -65 -13 -65 -44v-436c0 -86 -20 -218 -196 -218c-164 0 -224 93 -224 207v443c0 31 -10 42 -45 45l-40 4c-5 0 -8 4 -8 8c0 3 3 8 9 7c35 -4 72 -5 109 -5c36 0 92 3 125 3c6 0 8 -4 8 -7c0 -4 -2 -8 -8 -8l-25 -1c-43 -1 -55 -14 -55 -45
v-443c0 -81 25 -188 154 -188c143 0 176 94 176 188v446z" />
    <glyph glyph-name="Ucircumflex" unicode="&#xdb;" horiz-adv-x="651" 
d="M337 884c2 2 4 3 6 3s4 -1 6 -3l121 -125c6 -6 17 -3 8 9l-107 147c-8 11 -18 15 -28 15s-20 -4 -28 -15l-107 -147c-7 -10 2 -15 8 -9zM523 644c0 31 -16 40 -58 43l-45 3c-5 0 -8 4 -8 8c0 3 3 8 9 7c41 -4 74 -5 111 -5c36 0 68 4 101 4c6 0 8 -4 8 -7
c0 -4 -2 -8 -8 -8l-25 -1c-46 -2 -65 -13 -65 -44v-436c0 -86 -20 -218 -196 -218c-164 0 -224 93 -224 207v443c0 31 -10 42 -45 45l-40 4c-5 0 -8 4 -8 8c0 3 3 8 9 7c35 -4 72 -5 109 -5c36 0 92 3 125 3c6 0 8 -4 8 -7c0 -4 -2 -8 -8 -8l-25 -1c-43 -1 -55 -14 -55 -45
v-443c0 -81 25 -188 154 -188c143 0 176 94 176 188v446z" />
    <glyph glyph-name="Udieresis" unicode="&#xdc;" horiz-adv-x="651" 
d="M218 812c0 25 17 45 39 45s38 -20 38 -45c0 -24 -16 -45 -38 -45c-21 0 -38 21 -39 45zM401 812c0 25 18 45 40 45s38 -20 38 -45c0 -24 -16 -45 -38 -45c-21 0 -39 21 -40 45zM523 644c0 31 -16 40 -58 43l-45 3c-5 0 -8 4 -8 8c0 3 3 8 9 7c41 -4 74 -5 111 -5
c36 0 68 4 101 4c6 0 8 -4 8 -7c0 -4 -2 -8 -8 -8l-25 -1c-46 -2 -65 -13 -65 -44v-436c0 -86 -20 -218 -196 -218c-164 0 -224 93 -224 207v443c0 31 -10 42 -45 45l-40 4c-5 0 -8 4 -8 8c0 3 3 8 9 7c35 -4 72 -5 109 -5c36 0 92 3 125 3c6 0 8 -4 8 -7c0 -4 -2 -8 -8 -8
l-25 -1c-43 -1 -55 -14 -55 -45v-443c0 -81 25 -188 154 -188c143 0 176 94 176 188v446z" />
    <glyph glyph-name="uni01D7" unicode="&#x1d7;" horiz-adv-x="651" 
d="M261 896l127 147c9 10 18 14 28 14c13 0 23 -12 23 -26c0 -8 -4 -17 -14 -24l-156 -120c-6 -5 -14 3 -8 9zM218 812c0 25 17 45 39 45s38 -20 38 -45c0 -24 -16 -45 -38 -45c-21 0 -38 21 -39 45zM401 812c0 25 18 45 40 45s38 -20 38 -45c0 -24 -16 -45 -38 -45
c-21 0 -39 21 -40 45zM523 644c0 31 -16 40 -58 43l-45 3c-5 0 -8 4 -8 8c0 3 3 8 9 7c41 -4 74 -5 111 -5c36 0 68 4 101 4c6 0 8 -4 8 -7c0 -4 -2 -8 -8 -8l-25 -1c-46 -2 -65 -13 -65 -44v-436c0 -86 -20 -218 -196 -218c-164 0 -224 93 -224 207v443c0 31 -10 42 -45 45
l-40 4c-5 0 -8 4 -8 8c0 3 3 8 9 7c35 -4 72 -5 109 -5c36 0 92 3 125 3c6 0 8 -4 8 -7c0 -4 -2 -8 -8 -8l-25 -1c-43 -1 -55 -14 -55 -45v-443c0 -81 25 -188 154 -188c143 0 176 94 176 188v446z" />
    <glyph glyph-name="uni01D9" unicode="&#x1d9;" horiz-adv-x="651" 
d="M342 908l-121 125c-6 6 -15 1 -8 -9l107 -147c8 -11 18 -15 28 -15s20 4 28 15l107 147c9 12 -2 15 -8 9l-121 -125c-2 -2 -4 -3 -6 -3s-4 1 -6 3zM218 812c0 25 17 45 39 45s38 -20 38 -45c0 -24 -16 -45 -38 -45c-21 0 -38 21 -39 45zM401 812c0 25 18 45 40 45
s38 -20 38 -45c0 -24 -16 -45 -38 -45c-21 0 -39 21 -40 45zM523 644c0 31 -16 40 -58 43l-45 3c-5 0 -8 4 -8 8c0 3 3 8 9 7c41 -4 74 -5 111 -5c36 0 68 4 101 4c6 0 8 -4 8 -7c0 -4 -2 -8 -8 -8l-25 -1c-46 -2 -65 -13 -65 -44v-436c0 -86 -20 -218 -196 -218
c-164 0 -224 93 -224 207v443c0 31 -10 42 -45 45l-40 4c-5 0 -8 4 -8 8c0 3 3 8 9 7c35 -4 72 -5 109 -5c36 0 92 3 125 3c6 0 8 -4 8 -7c0 -4 -2 -8 -8 -8l-25 -1c-43 -1 -55 -14 -55 -45v-443c0 -81 25 -188 154 -188c143 0 176 94 176 188v446z" />
    <glyph glyph-name="uni01DB" unicode="&#x1db;" horiz-adv-x="651" 
d="M429 869c6 -6 -2 -14 -8 -9l-156 120c-10 7 -14 16 -14 24c0 14 10 26 23 26c10 0 19 -4 28 -14zM218 812c0 25 17 45 39 45s38 -20 38 -45c0 -24 -16 -45 -38 -45c-21 0 -38 21 -39 45zM401 812c0 25 18 45 40 45s38 -20 38 -45c0 -24 -16 -45 -38 -45
c-21 0 -39 21 -40 45zM523 644c0 31 -16 40 -58 43l-45 3c-5 0 -8 4 -8 8c0 3 3 8 9 7c41 -4 74 -5 111 -5c36 0 68 4 101 4c6 0 8 -4 8 -7c0 -4 -2 -8 -8 -8l-25 -1c-46 -2 -65 -13 -65 -44v-436c0 -86 -20 -218 -196 -218c-164 0 -224 93 -224 207v443c0 31 -10 42 -45 45
l-40 4c-5 0 -8 4 -8 8c0 3 3 8 9 7c35 -4 72 -5 109 -5c36 0 92 3 125 3c6 0 8 -4 8 -7c0 -4 -2 -8 -8 -8l-25 -1c-43 -1 -55 -14 -55 -45v-443c0 -81 25 -188 154 -188c143 0 176 94 176 188v446z" />
    <glyph glyph-name="uni01D5" unicode="&#x1d5;" horiz-adv-x="651" 
d="M470 907c7 0 11 5 11 10s-4 10 -11 10h-241c-7 0 -11 -5 -11 -10s4 -10 11 -10h241zM218 812c0 25 17 45 39 45s38 -20 38 -45c0 -24 -16 -45 -38 -45c-21 0 -38 21 -39 45zM401 812c0 25 18 45 40 45s38 -20 38 -45c0 -24 -16 -45 -38 -45c-21 0 -39 21 -40 45zM523 644
c0 31 -16 40 -58 43l-45 3c-5 0 -8 4 -8 8c0 3 3 8 9 7c41 -4 74 -5 111 -5c36 0 68 4 101 4c6 0 8 -4 8 -7c0 -4 -2 -8 -8 -8l-25 -1c-46 -2 -65 -13 -65 -44v-436c0 -86 -20 -218 -196 -218c-164 0 -224 93 -224 207v443c0 31 -10 42 -45 45l-40 4c-5 0 -8 4 -8 8
c0 3 3 8 9 7c35 -4 72 -5 109 -5c36 0 92 3 125 3c6 0 8 -4 8 -7c0 -4 -2 -8 -8 -8l-25 -1c-43 -1 -55 -14 -55 -45v-443c0 -81 25 -188 154 -188c143 0 176 94 176 188v446z" />
    <glyph glyph-name="uni1EE4" unicode="&#x1ee4;" horiz-adv-x="651" 
d="M523 644c0 31 -16 40 -58 43l-45 3c-5 0 -8 4 -8 8c0 3 3 8 9 7c41 -4 74 -5 111 -5c36 0 68 4 101 4c6 0 8 -4 8 -7c0 -4 -2 -8 -8 -8l-25 -1c-46 -2 -65 -13 -65 -44v-436c0 -86 -20 -218 -196 -218c-164 0 -224 93 -224 207v443c0 31 -10 42 -45 45l-40 4
c-5 0 -8 4 -8 8c0 3 3 8 9 7c35 -4 72 -5 109 -5c36 0 92 3 125 3c6 0 8 -4 8 -7c0 -4 -2 -8 -8 -8l-25 -1c-43 -1 -55 -14 -55 -45v-443c0 -81 25 -188 154 -188c143 0 176 94 176 188v446zM315 -86c0 21 14 38 32 38s32 -17 32 -38c0 -20 -14 -37 -32 -37
c-17 0 -32 17 -32 37z" />
    <glyph glyph-name="Ugrave" unicode="&#xd9;" horiz-adv-x="651" 
d="M427 764c6 -6 -2 -14 -8 -9l-156 120c-10 7 -14 16 -14 24c0 14 10 26 23 26c10 0 19 -4 28 -14zM523 644c0 31 -16 40 -58 43l-45 3c-5 0 -8 4 -8 8c0 3 3 8 9 7c41 -4 74 -5 111 -5c36 0 68 4 101 4c6 0 8 -4 8 -7c0 -4 -2 -8 -8 -8l-25 -1c-46 -2 -65 -13 -65 -44
v-436c0 -86 -20 -218 -196 -218c-164 0 -224 93 -224 207v443c0 31 -10 42 -45 45l-40 4c-5 0 -8 4 -8 8c0 3 3 8 9 7c35 -4 72 -5 109 -5c36 0 92 3 125 3c6 0 8 -4 8 -7c0 -4 -2 -8 -8 -8l-25 -1c-43 -1 -55 -14 -55 -45v-443c0 -81 25 -188 154 -188
c143 0 176 94 176 188v446z" />
    <glyph glyph-name="uni1EE6" unicode="&#x1ee6;" horiz-adv-x="651" 
d="M317 798c-20 0 -37 15 -37 37c0 23 16 46 57 46c46 0 79 -33 79 -70c0 -14 -4 -27 -10 -40c-3 -7 -5 -9 -9 -9s-8 3 -6 9c4 12 7 24 7 33c0 22 -10 37 -23 37c-15 0 -19 -9 -23 -20c-5 -11 -15 -23 -35 -23zM523 644c0 31 -16 40 -58 43l-45 3c-5 0 -8 4 -8 8
c0 3 3 8 9 7c41 -4 74 -5 111 -5c36 0 68 4 101 4c6 0 8 -4 8 -7c0 -4 -2 -8 -8 -8l-25 -1c-46 -2 -65 -13 -65 -44v-436c0 -86 -20 -218 -196 -218c-164 0 -224 93 -224 207v443c0 31 -10 42 -45 45l-40 4c-5 0 -8 4 -8 8c0 3 3 8 9 7c35 -4 72 -5 109 -5c36 0 92 3 125 3
c6 0 8 -4 8 -7c0 -4 -2 -8 -8 -8l-25 -1c-43 -1 -55 -14 -55 -45v-443c0 -81 25 -188 154 -188c143 0 176 94 176 188v446z" />
    <glyph glyph-name="Uhorn" unicode="&#x1af;" horiz-adv-x="651" 
d="M625 689c69 0 130 47 130 111c0 23 -14 37 -33 37c-17 0 -32 -13 -32 -37c0 -54 -9 -96 -65 -96c-7 0 -12 -2 -12 -8s5 -7 12 -7zM523 644c0 31 -16 40 -58 43l-45 3c-5 0 -8 4 -8 8c0 3 3 8 9 7c41 -4 74 -5 111 -5c36 0 68 4 101 4c6 0 8 -4 8 -7c0 -4 -2 -8 -8 -8
l-25 -1c-46 -2 -65 -13 -65 -44v-436c0 -86 -20 -218 -196 -218c-164 0 -224 93 -224 207v443c0 31 -10 42 -45 45l-40 4c-5 0 -8 4 -8 8c0 3 3 8 9 7c35 -4 72 -5 109 -5c36 0 92 3 125 3c6 0 8 -4 8 -7c0 -4 -2 -8 -8 -8l-25 -1c-43 -1 -55 -14 -55 -45v-443
c0 -81 25 -188 154 -188c143 0 176 94 176 188v446z" />
    <glyph glyph-name="uni1EE8" unicode="&#x1ee8;" horiz-adv-x="651" 
d="M259 791l127 147c9 10 18 14 28 14c13 0 23 -12 23 -26c0 -8 -4 -17 -14 -24l-156 -120c-6 -5 -14 3 -8 9zM625 689c69 0 130 47 130 111c0 23 -14 37 -33 37c-17 0 -32 -13 -32 -37c0 -54 -9 -96 -65 -96c-7 0 -12 -2 -12 -8s5 -7 12 -7zM523 644c0 31 -16 40 -58 43
l-45 3c-5 0 -8 4 -8 8c0 3 3 8 9 7c41 -4 74 -5 111 -5c36 0 68 4 101 4c6 0 8 -4 8 -7c0 -4 -2 -8 -8 -8l-25 -1c-46 -2 -65 -13 -65 -44v-436c0 -86 -20 -218 -196 -218c-164 0 -224 93 -224 207v443c0 31 -10 42 -45 45l-40 4c-5 0 -8 4 -8 8c0 3 3 8 9 7
c35 -4 72 -5 109 -5c36 0 92 3 125 3c6 0 8 -4 8 -7c0 -4 -2 -8 -8 -8l-25 -1c-43 -1 -55 -14 -55 -45v-443c0 -81 25 -188 154 -188c143 0 176 94 176 188v446z" />
    <glyph glyph-name="uni1EF0" unicode="&#x1ef0;" horiz-adv-x="651" 
d="M625 689c69 0 130 47 130 111c0 23 -14 37 -33 37c-17 0 -32 -13 -32 -37c0 -54 -9 -96 -65 -96c-7 0 -12 -2 -12 -8s5 -7 12 -7zM523 644c0 31 -16 40 -58 43l-45 3c-5 0 -8 4 -8 8c0 3 3 8 9 7c41 -4 74 -5 111 -5c36 0 68 4 101 4c6 0 8 -4 8 -7c0 -4 -2 -8 -8 -8
l-25 -1c-46 -2 -65 -13 -65 -44v-436c0 -86 -20 -218 -196 -218c-164 0 -224 93 -224 207v443c0 31 -10 42 -45 45l-40 4c-5 0 -8 4 -8 8c0 3 3 8 9 7c35 -4 72 -5 109 -5c36 0 92 3 125 3c6 0 8 -4 8 -7c0 -4 -2 -8 -8 -8l-25 -1c-43 -1 -55 -14 -55 -45v-443
c0 -81 25 -188 154 -188c143 0 176 94 176 188v446zM315 -86c0 21 14 38 32 38s32 -17 32 -38c0 -20 -14 -37 -32 -37c-17 0 -32 17 -32 37z" />
    <glyph glyph-name="uni1EEA" unicode="&#x1eea;" horiz-adv-x="651" 
d="M427 764c6 -6 -2 -14 -8 -9l-156 120c-10 7 -14 16 -14 24c0 14 10 26 23 26c10 0 19 -4 28 -14zM625 689c69 0 130 47 130 111c0 23 -14 37 -33 37c-17 0 -32 -13 -32 -37c0 -54 -9 -96 -65 -96c-7 0 -12 -2 -12 -8s5 -7 12 -7zM523 644c0 31 -16 40 -58 43l-45 3
c-5 0 -8 4 -8 8c0 3 3 8 9 7c41 -4 74 -5 111 -5c36 0 68 4 101 4c6 0 8 -4 8 -7c0 -4 -2 -8 -8 -8l-25 -1c-46 -2 -65 -13 -65 -44v-436c0 -86 -20 -218 -196 -218c-164 0 -224 93 -224 207v443c0 31 -10 42 -45 45l-40 4c-5 0 -8 4 -8 8c0 3 3 8 9 7c35 -4 72 -5 109 -5
c36 0 92 3 125 3c6 0 8 -4 8 -7c0 -4 -2 -8 -8 -8l-25 -1c-43 -1 -55 -14 -55 -45v-443c0 -81 25 -188 154 -188c143 0 176 94 176 188v446z" />
    <glyph glyph-name="uni1EEC" unicode="&#x1eec;" horiz-adv-x="651" 
d="M317 798c-20 0 -37 15 -37 37c0 23 16 46 57 46c46 0 79 -33 79 -70c0 -14 -4 -27 -10 -40c-3 -7 -5 -9 -9 -9s-8 3 -6 9c4 12 7 24 7 33c0 22 -10 37 -23 37c-15 0 -19 -9 -23 -20c-5 -11 -15 -23 -35 -23zM625 689c69 0 130 47 130 111c0 23 -14 37 -33 37
c-17 0 -32 -13 -32 -37c0 -54 -9 -96 -65 -96c-7 0 -12 -2 -12 -8s5 -7 12 -7zM523 644c0 31 -16 40 -58 43l-45 3c-5 0 -8 4 -8 8c0 3 3 8 9 7c41 -4 74 -5 111 -5c36 0 68 4 101 4c6 0 8 -4 8 -7c0 -4 -2 -8 -8 -8l-25 -1c-46 -2 -65 -13 -65 -44v-436
c0 -86 -20 -218 -196 -218c-164 0 -224 93 -224 207v443c0 31 -10 42 -45 45l-40 4c-5 0 -8 4 -8 8c0 3 3 8 9 7c35 -4 72 -5 109 -5c36 0 92 3 125 3c6 0 8 -4 8 -7c0 -4 -2 -8 -8 -8l-25 -1c-43 -1 -55 -14 -55 -45v-443c0 -81 25 -188 154 -188c143 0 176 94 176 188v446
z" />
    <glyph glyph-name="uni1EEE" unicode="&#x1eee;" horiz-adv-x="651" 
d="M406 765c45 1 74 42 74 85c0 15 -5 23 -17 23c-11 0 -17 -8 -17 -23c0 -46 -12 -65 -40 -65c-50 0 -53 88 -118 88c-45 0 -75 -42 -75 -85c0 -15 5 -23 17 -23c11 0 17 8 17 23c0 46 12 65 40 65c50 0 55 -89 119 -88zM625 689c69 0 130 47 130 111c0 23 -14 37 -33 37
c-17 0 -32 -13 -32 -37c0 -54 -9 -96 -65 -96c-7 0 -12 -2 -12 -8s5 -7 12 -7zM523 644c0 31 -16 40 -58 43l-45 3c-5 0 -8 4 -8 8c0 3 3 8 9 7c41 -4 74 -5 111 -5c36 0 68 4 101 4c6 0 8 -4 8 -7c0 -4 -2 -8 -8 -8l-25 -1c-46 -2 -65 -13 -65 -44v-436
c0 -86 -20 -218 -196 -218c-164 0 -224 93 -224 207v443c0 31 -10 42 -45 45l-40 4c-5 0 -8 4 -8 8c0 3 3 8 9 7c35 -4 72 -5 109 -5c36 0 92 3 125 3c6 0 8 -4 8 -7c0 -4 -2 -8 -8 -8l-25 -1c-43 -1 -55 -14 -55 -45v-443c0 -81 25 -188 154 -188c143 0 176 94 176 188v446
z" />
    <glyph glyph-name="Uhungarumlaut" unicode="&#x170;" horiz-adv-x="651" 
d="M254 747l33 148c5 21 16 29 29 29c12 0 23 -11 23 -25c0 -6 -1 -12 -4 -18l-69 -139c-3 -7 -14 -5 -12 5zM362 751l77 150c7 14 18 19 27 19c13 0 25 -10 25 -24c0 -7 -3 -15 -10 -23l-110 -131c-6 -7 -14 0 -9 9zM523 644c0 31 -16 40 -58 43l-45 3c-5 0 -8 4 -8 8
c0 3 3 8 9 7c41 -4 74 -5 111 -5c36 0 68 4 101 4c6 0 8 -4 8 -7c0 -4 -2 -8 -8 -8l-25 -1c-46 -2 -65 -13 -65 -44v-436c0 -86 -20 -218 -196 -218c-164 0 -224 93 -224 207v443c0 31 -10 42 -45 45l-40 4c-5 0 -8 4 -8 8c0 3 3 8 9 7c35 -4 72 -5 109 -5c36 0 92 3 125 3
c6 0 8 -4 8 -7c0 -4 -2 -8 -8 -8l-25 -1c-43 -1 -55 -14 -55 -45v-443c0 -81 25 -188 154 -188c143 0 176 94 176 188v446z" />
    <glyph glyph-name="Umacron" unicode="&#x16a;" horiz-adv-x="651" 
d="M468 802c7 0 11 5 11 10s-4 10 -11 10h-241c-7 0 -11 -5 -11 -10s4 -10 11 -10h241zM523 644c0 31 -16 40 -58 43l-45 3c-5 0 -8 4 -8 8c0 3 3 8 9 7c41 -4 74 -5 111 -5c36 0 68 4 101 4c6 0 8 -4 8 -7c0 -4 -2 -8 -8 -8l-25 -1c-46 -2 -65 -13 -65 -44v-436
c0 -86 -20 -218 -196 -218c-164 0 -224 93 -224 207v443c0 31 -10 42 -45 45l-40 4c-5 0 -8 4 -8 8c0 3 3 8 9 7c35 -4 72 -5 109 -5c36 0 92 3 125 3c6 0 8 -4 8 -7c0 -4 -2 -8 -8 -8l-25 -1c-43 -1 -55 -14 -55 -45v-443c0 -81 25 -188 154 -188c143 0 176 94 176 188v446
z" />
    <glyph glyph-name="Uogonek" unicode="&#x172;" horiz-adv-x="659" 
d="M633 704c6 0 8 -4 8 -7c0 -4 -2 -8 -8 -8l-25 -1c-46 -2 -65 -13 -65 -44v-436c0 -71 -14 -173 -118 -207c-1 -1 -2 -1 -4 -2c-60 -23 -80 -50 -80 -77c0 -23 20 -34 36 -34c17 0 30 8 39 14c6 4 11 8 15 8c3 0 6 -3 6 -6c0 -4 -4 -7 -9 -12c-14 -12 -33 -23 -56 -23
c-27 0 -52 20 -52 52c0 20 8 35 20 48c3 4 5 7 5 11c0 8 -11 9 -27 11c-142 10 -195 99 -195 206v443c0 31 -10 42 -45 45l-40 4c-5 0 -8 4 -8 8c0 3 3 8 9 7c35 -4 72 -5 109 -5c36 0 92 3 125 3c6 0 8 -4 8 -7c0 -4 -2 -8 -8 -8l-25 -1c-43 -1 -55 -14 -55 -45v-443
c0 -81 25 -188 154 -188c143 0 176 94 176 188v446c0 31 -16 40 -58 43l-45 3c-5 0 -8 4 -8 8c0 3 3 8 9 7c41 -4 74 -5 111 -5c36 0 68 4 101 4z" />
    <glyph glyph-name="Uring" unicode="&#x16e;" horiz-adv-x="651" 
d="M288 832c0 50 29 80 66 80c36 0 65 -30 65 -80c0 -49 -33 -79 -65 -79c-33 0 -66 30 -66 79zM306 833c0 -41 20 -62 48 -62s47 21 47 62c0 38 -19 61 -47 61s-48 -23 -48 -61zM523 644c0 31 -16 40 -58 43l-45 3c-5 0 -8 4 -8 8c0 3 3 8 9 7c41 -4 74 -5 111 -5
c36 0 68 4 101 4c6 0 8 -4 8 -7c0 -4 -2 -8 -8 -8l-25 -1c-46 -2 -65 -13 -65 -44v-436c0 -86 -20 -218 -196 -218c-164 0 -224 93 -224 207v443c0 31 -10 42 -45 45l-40 4c-5 0 -8 4 -8 8c0 3 3 8 9 7c35 -4 72 -5 109 -5c36 0 92 3 125 3c6 0 8 -4 8 -7c0 -4 -2 -8 -8 -8
l-25 -1c-43 -1 -55 -14 -55 -45v-443c0 -81 25 -188 154 -188c143 0 176 94 176 188v446z" />
    <glyph glyph-name="Utilde" unicode="&#x168;" horiz-adv-x="651" 
d="M406 765c45 1 74 42 74 85c0 15 -5 23 -17 23c-11 0 -17 -8 -17 -23c0 -46 -12 -65 -40 -65c-50 0 -53 88 -118 88c-45 0 -75 -42 -75 -85c0 -15 5 -23 17 -23c11 0 17 8 17 23c0 46 12 65 40 65c50 0 55 -89 119 -88zM523 644c0 31 -16 40 -58 43l-45 3c-5 0 -8 4 -8 8
c0 3 3 8 9 7c41 -4 74 -5 111 -5c36 0 68 4 101 4c6 0 8 -4 8 -7c0 -4 -2 -8 -8 -8l-25 -1c-46 -2 -65 -13 -65 -44v-436c0 -86 -20 -218 -196 -218c-164 0 -224 93 -224 207v443c0 31 -10 42 -45 45l-40 4c-5 0 -8 4 -8 8c0 3 3 8 9 7c35 -4 72 -5 109 -5c36 0 92 3 125 3
c6 0 8 -4 8 -7c0 -4 -2 -8 -8 -8l-25 -1c-43 -1 -55 -14 -55 -45v-443c0 -81 25 -188 154 -188c143 0 176 94 176 188v446z" />
    <glyph glyph-name="V" unicode="V" horiz-adv-x="590" 
d="M487 642l-166 -646c-2 -6 -5 -10 -9 -10c-5 0 -8 4 -10 10c-13 40 -46 187 -165 644c-7 31 -17 42 -52 45l-40 4c-5 0 -8 4 -8 8c0 3 3 8 9 7c35 -6 72 -5 109 -5c36 0 92 3 125 3c6 0 8 -4 8 -7c0 -4 -2 -8 -8 -8l-25 -1c-35 -2 -46 -13 -46 -29c0 -5 1 -10 2 -15
l121 -498c2 -7 3 -9 5 -9s3 2 4 5l125 502c7 33 0 42 -42 45l-45 3c-5 0 -8 4 -8 8c0 3 3 8 9 7c41 -6 74 -5 111 -5c36 0 68 4 101 4c6 0 8 -4 8 -7c0 -4 -2 -8 -8 -8l-25 -1c-52 -2 -71 -10 -80 -46z" />
    <glyph glyph-name="W" unicode="W" horiz-adv-x="700" 
d="M718 704c6 0 8 -4 8 -7c0 -4 -2 -8 -8 -8l-25 -1c-52 -2 -75 -12 -84 -60c-8 -41 -110 -584 -117 -627c-1 -6 -4 -11 -10 -11s-8 5 -9 11l-109 521c-32 -166 -94 -488 -99 -521c-1 -6 -3 -11 -9 -11s-9 5 -10 11c-4 23 -127 604 -134 639c-6 31 -19 42 -54 45l-40 4
c-5 0 -8 4 -8 8c0 3 3 8 9 7c35 -6 72 -5 109 -5c36 0 93 2 126 2c26 0 63 -2 100 -2c36 0 92 3 125 3c6 0 8 -4 8 -7c0 -4 -2 -8 -8 -8l-25 -1c-38 -2 -48 -6 -48 -25c0 -6 1 -12 2 -19l89 -467c1 -7 3 -9 5 -9c3 0 4 3 5 6l82 458c5 34 3 54 -39 57l-45 3c-5 0 -8 4 -8 8
c0 3 3 8 9 7c41 -7 74 -5 111 -5c36 0 68 4 101 4zM280 172l73 400l-14 68c-9 46 -24 48 -85 48c-66 0 -75 -13 -75 -28c0 -5 2 -11 3 -18l88 -467c1 -7 3 -9 5 -9c3 0 4 3 5 6z" />
    <glyph glyph-name="Wacute" unicode="&#x1e82;" horiz-adv-x="700" 
d="M292 782c-6 -5 -14 3 -8 9l127 147c9 10 18 14 28 14c13 0 23 -12 23 -26c0 -8 -4 -17 -14 -24zM718 704c6 0 8 -4 8 -7c0 -4 -2 -8 -8 -8l-25 -1c-52 -2 -75 -12 -84 -60c-8 -41 -110 -584 -117 -627c-1 -6 -4 -11 -10 -11s-8 5 -9 11l-109 521
c-32 -166 -94 -488 -99 -521c-1 -6 -3 -11 -9 -11s-9 5 -10 11c-4 23 -127 604 -134 639c-6 31 -19 42 -54 45l-40 4c-5 0 -8 4 -8 8c0 3 3 8 9 7c35 -6 72 -5 109 -5c36 0 93 2 126 2c26 0 63 -2 100 -2c36 0 92 3 125 3c6 0 8 -4 8 -7c0 -4 -2 -8 -8 -8l-25 -1
c-38 -2 -48 -6 -48 -25c0 -6 1 -12 2 -19l89 -467c1 -7 3 -9 5 -9c3 0 4 3 5 6l82 458c5 34 3 54 -39 57l-45 3c-5 0 -8 4 -8 8c0 3 3 8 9 7c41 -7 74 -5 111 -5c36 0 68 4 101 4zM280 172l73 400l-14 68c-9 46 -24 48 -85 48c-66 0 -75 -13 -75 -28c0 -5 2 -11 3 -18
l88 -467c1 -7 3 -9 5 -9c3 0 4 3 5 6z" />
    <glyph glyph-name="Wcircumflex" unicode="&#x174;" horiz-adv-x="700" 
d="M241 759c-6 -6 -15 -1 -8 9l107 147c8 11 18 15 28 15s20 -4 28 -15l107 -147c9 -12 -2 -15 -8 -9l-121 125c-2 2 -4 3 -6 3s-4 -1 -6 -3zM718 704c6 0 8 -4 8 -7c0 -4 -2 -8 -8 -8l-25 -1c-52 -2 -75 -12 -84 -60c-8 -41 -110 -584 -117 -627c-1 -6 -4 -11 -10 -11
s-8 5 -9 11l-109 521c-32 -166 -94 -488 -99 -521c-1 -6 -3 -11 -9 -11s-9 5 -10 11c-4 23 -127 604 -134 639c-6 31 -19 42 -54 45l-40 4c-5 0 -8 4 -8 8c0 3 3 8 9 7c35 -6 72 -5 109 -5c36 0 93 2 126 2c26 0 63 -2 100 -2c36 0 92 3 125 3c6 0 8 -4 8 -7
c0 -4 -2 -8 -8 -8l-25 -1c-38 -2 -48 -6 -48 -25c0 -6 1 -12 2 -19l89 -467c1 -7 3 -9 5 -9c3 0 4 3 5 6l82 458c5 34 3 54 -39 57l-45 3c-5 0 -8 4 -8 8c0 3 3 8 9 7c41 -7 74 -5 111 -5c36 0 68 4 101 4zM280 172l73 400l-14 68c-9 46 -24 48 -85 48
c-66 0 -75 -13 -75 -28c0 -5 2 -11 3 -18l88 -467c1 -7 3 -9 5 -9c3 0 4 3 5 6z" />
    <glyph glyph-name="Wdieresis" unicode="&#x1e84;" horiz-adv-x="700" 
d="M282 767c-21 0 -38 21 -39 45c0 25 17 45 39 45s38 -20 38 -45c0 -24 -16 -45 -38 -45zM466 767c-21 0 -39 21 -40 45c0 25 18 45 40 45s38 -20 38 -45c0 -24 -16 -45 -38 -45zM718 704c6 0 8 -4 8 -7c0 -4 -2 -8 -8 -8l-25 -1c-52 -2 -75 -12 -84 -60
c-8 -41 -110 -584 -117 -627c-1 -6 -4 -11 -10 -11s-8 5 -9 11l-109 521c-32 -166 -94 -488 -99 -521c-1 -6 -3 -11 -9 -11s-9 5 -10 11c-4 23 -127 604 -134 639c-6 31 -19 42 -54 45l-40 4c-5 0 -8 4 -8 8c0 3 3 8 9 7c35 -6 72 -5 109 -5c36 0 93 2 126 2
c26 0 63 -2 100 -2c36 0 92 3 125 3c6 0 8 -4 8 -7c0 -4 -2 -8 -8 -8l-25 -1c-38 -2 -48 -6 -48 -25c0 -6 1 -12 2 -19l89 -467c1 -7 3 -9 5 -9c3 0 4 3 5 6l82 458c5 34 3 54 -39 57l-45 3c-5 0 -8 4 -8 8c0 3 3 8 9 7c41 -7 74 -5 111 -5c36 0 68 4 101 4zM280 172l73 400
l-14 68c-9 46 -24 48 -85 48c-66 0 -75 -13 -75 -28c0 -5 2 -11 3 -18l88 -467c1 -7 3 -9 5 -9c3 0 4 3 5 6z" />
    <glyph glyph-name="Wgrave" unicode="&#x1e80;" horiz-adv-x="700" 
d="M292 886c-10 7 -14 16 -14 24c0 14 10 26 23 26c10 0 19 -4 28 -14l127 -147c6 -6 -2 -14 -8 -9zM718 704c6 0 8 -4 8 -7c0 -4 -2 -8 -8 -8l-25 -1c-52 -2 -75 -12 -84 -60c-8 -41 -110 -584 -117 -627c-1 -6 -4 -11 -10 -11s-8 5 -9 11l-109 521
c-32 -166 -94 -488 -99 -521c-1 -6 -3 -11 -9 -11s-9 5 -10 11c-4 23 -127 604 -134 639c-6 31 -19 42 -54 45l-40 4c-5 0 -8 4 -8 8c0 3 3 8 9 7c35 -6 72 -5 109 -5c36 0 93 2 126 2c26 0 63 -2 100 -2c36 0 92 3 125 3c6 0 8 -4 8 -7c0 -4 -2 -8 -8 -8l-25 -1
c-38 -2 -48 -6 -48 -25c0 -6 1 -12 2 -19l89 -467c1 -7 3 -9 5 -9c3 0 4 3 5 6l82 458c5 34 3 54 -39 57l-45 3c-5 0 -8 4 -8 8c0 3 3 8 9 7c41 -7 74 -5 111 -5c36 0 68 4 101 4zM280 172l73 400l-14 68c-9 46 -24 48 -85 48c-66 0 -75 -13 -75 -28c0 -5 2 -11 3 -18
l88 -467c1 -7 3 -9 5 -9c3 0 4 3 5 6z" />
    <glyph glyph-name="X" unicode="X" horiz-adv-x="550" 
d="M441 641l-123 -257l153 -324c12 -25 20 -45 62 -45h28c6 0 9 -4 9 -8s-3 -7 -9 -7h-224c-5 0 -8 4 -8 8c0 3 3 7 8 7h24c42 0 46 21 36 43l-117 250l-118 -245c-12 -24 -2 -48 37 -48h30c6 0 8 -4 8 -7c0 -4 -2 -8 -8 -8h-203c-5 0 -7 4 -7 8c0 3 2 7 7 7h29
c57 0 70 25 86 57l127 261l-143 307c-14 31 -23 42 -58 45l-40 4c-5 0 -8 4 -8 8c0 3 3 8 9 7c35 -6 72 -5 109 -5c36 0 92 3 125 3c6 0 8 -4 8 -7c0 -4 -2 -8 -8 -8l-25 -1c-31 -1 -44 -8 -44 -23c0 -6 2 -13 6 -21l107 -229l110 229c16 33 8 42 -34 45l-45 3
c-5 0 -8 4 -8 8c0 3 3 8 9 7c41 -7 74 -5 111 -5c36 0 68 4 101 4c6 0 8 -4 8 -7c0 -4 -2 -8 -8 -8l-25 -1c-52 -2 -67 -11 -84 -47z" />
    <glyph glyph-name="Y" unicode="Y" horiz-adv-x="530" 
d="M248 59c0 -31 -12 -45 -55 -46l-35 -1c-6 0 -8 -4 -8 -8c0 -3 2 -7 8 -7c33 0 89 3 125 3s92 -3 125 -3c6 0 8 4 8 7c0 4 -2 8 -8 8l-35 1c-43 1 -55 15 -55 44v236l121 349c12 36 24 44 76 46l25 1c6 0 8 4 8 8c0 3 -2 7 -8 7c-33 0 -65 -4 -101 -4c-37 0 -70 -2 -111 5
c-6 1 -9 -4 -9 -7c0 -4 3 -8 8 -8l45 -3c42 -3 53 -13 42 -45l-102 -289c-5 -12 -12 -15 -18 0l-104 292c-1 3 -2 7 -2 12c0 16 11 28 46 29l25 1c6 0 8 4 8 8c0 3 -2 7 -8 7c-33 0 -89 -3 -125 -3c-37 0 -74 -1 -109 5c-6 1 -9 -4 -9 -7c0 -4 3 -8 8 -8l40 -4
c35 -3 41 -15 52 -45l132 -348v-233z" />
    <glyph glyph-name="Yacute" unicode="&#xdd;" horiz-adv-x="530" 
d="M203 791l127 147c9 10 18 14 28 14c13 0 23 -12 23 -26c0 -8 -4 -17 -14 -24l-156 -120c-6 -5 -14 3 -8 9zM248 59c0 -31 -12 -45 -55 -46l-35 -1c-6 0 -8 -4 -8 -8c0 -3 2 -7 8 -7c33 0 89 3 125 3s92 -3 125 -3c6 0 8 4 8 7c0 4 -2 8 -8 8l-35 1c-43 1 -55 15 -55 44
v236l121 349c12 36 24 44 76 46l25 1c6 0 8 4 8 8c0 3 -2 7 -8 7c-33 0 -65 -4 -101 -4c-37 0 -70 -2 -111 5c-6 1 -9 -4 -9 -7c0 -4 3 -8 8 -8l45 -3c42 -3 53 -13 42 -45l-102 -289c-5 -12 -12 -15 -18 0l-104 292c-1 3 -2 7 -2 12c0 16 11 28 46 29l25 1c6 0 8 4 8 8
c0 3 -2 7 -8 7c-33 0 -89 -3 -125 -3c-37 0 -74 -1 -109 5c-6 1 -9 -4 -9 -7c0 -4 3 -8 8 -8l40 -4c35 -3 41 -15 52 -45l132 -348v-233z" />
    <glyph glyph-name="Ycircumflex" unicode="&#x176;" horiz-adv-x="530" 
d="M281 884c2 2 4 3 6 3s4 -1 6 -3l121 -125c6 -6 17 -3 8 9l-107 147c-8 11 -18 15 -28 15s-20 -4 -28 -15l-107 -147c-7 -10 2 -15 8 -9zM248 59c0 -31 -12 -45 -55 -46l-35 -1c-6 0 -8 -4 -8 -8c0 -3 2 -7 8 -7c33 0 89 3 125 3s92 -3 125 -3c6 0 8 4 8 7c0 4 -2 8 -8 8
l-35 1c-43 1 -55 15 -55 44v236l121 349c12 36 24 44 76 46l25 1c6 0 8 4 8 8c0 3 -2 7 -8 7c-33 0 -65 -4 -101 -4c-37 0 -70 -2 -111 5c-6 1 -9 -4 -9 -7c0 -4 3 -8 8 -8l45 -3c42 -3 53 -13 42 -45l-102 -289c-5 -12 -12 -15 -18 0l-104 292c-1 3 -2 7 -2 12
c0 16 11 28 46 29l25 1c6 0 8 4 8 8c0 3 -2 7 -8 7c-33 0 -89 -3 -125 -3c-37 0 -74 -1 -109 5c-6 1 -9 -4 -9 -7c0 -4 3 -8 8 -8l40 -4c35 -3 41 -15 52 -45l132 -348v-233z" />
    <glyph glyph-name="Ydieresis" unicode="&#x178;" horiz-adv-x="530" 
d="M162 812c0 25 17 45 39 45s38 -20 38 -45c0 -24 -16 -45 -38 -45c-21 0 -38 21 -39 45zM345 812c0 25 18 45 40 45s38 -20 38 -45c0 -24 -16 -45 -38 -45c-21 0 -39 21 -40 45zM248 59c0 -31 -12 -45 -55 -46l-35 -1c-6 0 -8 -4 -8 -8c0 -3 2 -7 8 -7c33 0 89 3 125 3
s92 -3 125 -3c6 0 8 4 8 7c0 4 -2 8 -8 8l-35 1c-43 1 -55 15 -55 44v236l121 349c12 36 24 44 76 46l25 1c6 0 8 4 8 8c0 3 -2 7 -8 7c-33 0 -65 -4 -101 -4c-37 0 -70 -2 -111 5c-6 1 -9 -4 -9 -7c0 -4 3 -8 8 -8l45 -3c42 -3 53 -13 42 -45l-102 -289
c-5 -12 -12 -15 -18 0l-104 292c-1 3 -2 7 -2 12c0 16 11 28 46 29l25 1c6 0 8 4 8 8c0 3 -2 7 -8 7c-33 0 -89 -3 -125 -3c-37 0 -74 -1 -109 5c-6 1 -9 -4 -9 -7c0 -4 3 -8 8 -8l40 -4c35 -3 41 -15 52 -45l132 -348v-233z" />
    <glyph glyph-name="uni1EF4" unicode="&#x1ef4;" horiz-adv-x="530" 
d="M248 59c0 -31 -12 -45 -55 -46l-35 -1c-6 0 -8 -4 -8 -8c0 -3 2 -7 8 -7c33 0 89 3 125 3s92 -3 125 -3c6 0 8 4 8 7c0 4 -2 8 -8 8l-35 1c-43 1 -55 15 -55 44v236l121 349c12 36 24 44 76 46l25 1c6 0 8 4 8 8c0 3 -2 7 -8 7c-33 0 -65 -4 -101 -4c-37 0 -70 -2 -111 5
c-6 1 -9 -4 -9 -7c0 -4 3 -8 8 -8l45 -3c42 -3 53 -13 42 -45l-102 -289c-5 -12 -12 -15 -18 0l-104 292c-1 3 -2 7 -2 12c0 16 11 28 46 29l25 1c6 0 8 4 8 8c0 3 -2 7 -8 7c-33 0 -89 -3 -125 -3c-37 0 -74 -1 -109 5c-6 1 -9 -4 -9 -7c0 -4 3 -8 8 -8l40 -4
c35 -3 41 -15 52 -45l132 -348v-233zM246 -100c0 21 14 38 32 38s32 -17 32 -38c0 -20 -14 -37 -32 -37c-17 0 -32 17 -32 37z" />
    <glyph glyph-name="Ygrave" unicode="&#x1ef2;" horiz-adv-x="530" 
d="M371 764c6 -6 -2 -14 -8 -9l-156 120c-10 7 -14 16 -14 24c0 14 10 26 23 26c10 0 19 -4 28 -14zM248 59c0 -31 -12 -45 -55 -46l-35 -1c-6 0 -8 -4 -8 -8c0 -3 2 -7 8 -7c33 0 89 3 125 3s92 -3 125 -3c6 0 8 4 8 7c0 4 -2 8 -8 8l-35 1c-43 1 -55 15 -55 44v236
l121 349c12 36 24 44 76 46l25 1c6 0 8 4 8 8c0 3 -2 7 -8 7c-33 0 -65 -4 -101 -4c-37 0 -70 -2 -111 5c-6 1 -9 -4 -9 -7c0 -4 3 -8 8 -8l45 -3c42 -3 53 -13 42 -45l-102 -289c-5 -12 -12 -15 -18 0l-104 292c-1 3 -2 7 -2 12c0 16 11 28 46 29l25 1c6 0 8 4 8 8
c0 3 -2 7 -8 7c-33 0 -89 -3 -125 -3c-37 0 -74 -1 -109 5c-6 1 -9 -4 -9 -7c0 -4 3 -8 8 -8l40 -4c35 -3 41 -15 52 -45l132 -348v-233z" />
    <glyph glyph-name="uni1EF6" unicode="&#x1ef6;" horiz-adv-x="530" 
d="M261 798c-20 0 -37 15 -37 37c0 23 16 46 57 46c46 0 79 -33 79 -70c0 -14 -4 -27 -10 -40c-3 -7 -5 -9 -9 -9s-8 3 -6 9c4 12 7 24 7 33c0 22 -10 37 -23 37c-15 0 -19 -9 -23 -20c-5 -11 -15 -23 -35 -23zM248 59c0 -31 -12 -45 -55 -46l-35 -1c-6 0 -8 -4 -8 -8
c0 -3 2 -7 8 -7c33 0 89 3 125 3s92 -3 125 -3c6 0 8 4 8 7c0 4 -2 8 -8 8l-35 1c-43 1 -55 15 -55 44v236l121 349c12 36 24 44 76 46l25 1c6 0 8 4 8 8c0 3 -2 7 -8 7c-33 0 -65 -4 -101 -4c-37 0 -70 -2 -111 5c-6 1 -9 -4 -9 -7c0 -4 3 -8 8 -8l45 -3
c42 -3 53 -13 42 -45l-102 -289c-5 -12 -12 -15 -18 0l-104 292c-1 3 -2 7 -2 12c0 16 11 28 46 29l25 1c6 0 8 4 8 8c0 3 -2 7 -8 7c-33 0 -89 -3 -125 -3c-37 0 -74 -1 -109 5c-6 1 -9 -4 -9 -7c0 -4 3 -8 8 -8l40 -4c35 -3 41 -15 52 -45l132 -348v-233z" />
    <glyph glyph-name="uni1EF8" unicode="&#x1ef8;" horiz-adv-x="530" 
d="M350 765c45 1 74 42 74 85c0 15 -5 23 -17 23c-11 0 -17 -8 -17 -23c0 -46 -12 -65 -40 -65c-50 0 -53 88 -118 88c-45 0 -75 -42 -75 -85c0 -15 5 -23 17 -23c11 0 17 8 17 23c0 46 12 65 40 65c50 0 55 -89 119 -88zM248 59c0 -31 -12 -45 -55 -46l-35 -1
c-6 0 -8 -4 -8 -8c0 -3 2 -7 8 -7c33 0 89 3 125 3s92 -3 125 -3c6 0 8 4 8 7c0 4 -2 8 -8 8l-35 1c-43 1 -55 15 -55 44v236l121 349c12 36 24 44 76 46l25 1c6 0 8 4 8 8c0 3 -2 7 -8 7c-33 0 -65 -4 -101 -4c-37 0 -70 -2 -111 5c-6 1 -9 -4 -9 -7c0 -4 3 -8 8 -8l45 -3
c42 -3 53 -13 42 -45l-102 -289c-5 -12 -12 -15 -18 0l-104 292c-1 3 -2 7 -2 12c0 16 11 28 46 29l25 1c6 0 8 4 8 8c0 3 -2 7 -8 7c-33 0 -89 -3 -125 -3c-37 0 -74 -1 -109 5c-6 1 -9 -4 -9 -7c0 -4 3 -8 8 -8l40 -4c35 -3 41 -15 52 -45l132 -348v-233z" />
    <glyph glyph-name="Z" unicode="Z" horiz-adv-x="510" 
d="M343 20c85 0 105 68 142 193c2 5 6 7 9 6c4 -1 8 -5 7 -10c-24 -87 -43 -161 -43 -221c0 -5 -4 -7 -7 -7c-4 0 -7 2 -7 7c0 10 -9 12 -27 12h-361c-15 0 -20 19 -14 30l320 622c5 10 2 15 0 17s-6 3 -9 3h-145c-85 0 -103 -62 -144 -165c-2 -5 -6 -7 -9 -6
c-4 1 -8 5 -6 10c26 64 44 145 44 219c0 5 4 7 7 7c4 0 7 -2 7 -7c0 -23 2 -38 27 -38h303c14 0 19 -18 13 -29l-322 -624c-5 -10 -2 -15 0 -17s6 -2 9 -2h71h135z" />
    <glyph glyph-name="Zacute" unicode="&#x179;" horiz-adv-x="510" 
d="M177 791l127 147c9 10 18 14 28 14c13 0 23 -12 23 -26c0 -8 -4 -17 -14 -24l-156 -120c-6 -5 -14 3 -8 9zM343 20c85 0 105 68 142 193c2 5 6 7 9 6c4 -1 8 -5 7 -10c-24 -87 -43 -161 -43 -221c0 -5 -4 -7 -7 -7c-4 0 -7 2 -7 7c0 10 -9 12 -27 12h-361
c-15 0 -20 19 -14 30l320 622c5 10 2 15 0 17s-6 3 -9 3h-145c-85 0 -103 -62 -144 -165c-2 -5 -6 -7 -9 -6c-4 1 -8 5 -6 10c26 64 44 145 44 219c0 5 4 7 7 7c4 0 7 -2 7 -7c0 -23 2 -38 27 -38h303c14 0 19 -18 13 -29l-322 -624c-5 -10 -2 -15 0 -17s6 -2 9 -2h71h135z
" />
    <glyph glyph-name="Zcaron" unicode="&#x17d;" horiz-adv-x="510" 
d="M258 803l-121 125c-6 6 -15 1 -8 -9l107 -147c8 -11 18 -15 28 -15s20 4 28 15l107 147c9 12 -2 15 -8 9l-121 -125c-2 -2 -4 -3 -6 -3s-4 1 -6 3zM343 20c85 0 105 68 142 193c2 5 6 7 9 6c4 -1 8 -5 7 -10c-24 -87 -43 -161 -43 -221c0 -5 -4 -7 -7 -7c-4 0 -7 2 -7 7
c0 10 -9 12 -27 12h-361c-15 0 -20 19 -14 30l320 622c5 10 2 15 0 17s-6 3 -9 3h-145c-85 0 -103 -62 -144 -165c-2 -5 -6 -7 -9 -6c-4 1 -8 5 -6 10c26 64 44 145 44 219c0 5 4 7 7 7c4 0 7 -2 7 -7c0 -23 2 -38 27 -38h303c14 0 19 -18 13 -29l-322 -624
c-5 -10 -2 -15 0 -17s6 -2 9 -2h71h135z" />
    <glyph glyph-name="Zdotaccent" unicode="&#x17b;" horiz-adv-x="510" 
d="M234 865c0 21 14 38 32 38s32 -17 32 -38c0 -20 -14 -37 -32 -37c-17 0 -32 17 -32 37zM343 20c85 0 105 68 142 193c2 5 6 7 9 6c4 -1 8 -5 7 -10c-24 -87 -43 -161 -43 -221c0 -5 -4 -7 -7 -7c-4 0 -7 2 -7 7c0 10 -9 12 -27 12h-361c-15 0 -20 19 -14 30l320 622
c5 10 2 15 0 17s-6 3 -9 3h-145c-85 0 -103 -62 -144 -165c-2 -5 -6 -7 -9 -6c-4 1 -8 5 -6 10c26 64 44 145 44 219c0 5 4 7 7 7c4 0 7 -2 7 -7c0 -23 2 -38 27 -38h303c14 0 19 -18 13 -29l-322 -624c-5 -10 -2 -15 0 -17s6 -2 9 -2h71h135z" />
    <glyph glyph-name="uni1E92" unicode="&#x1e92;" horiz-adv-x="510" 
d="M343 20c85 0 105 68 142 193c2 5 6 7 9 6c4 -1 8 -5 7 -10c-24 -87 -43 -161 -43 -221c0 -5 -4 -7 -7 -7c-4 0 -7 2 -7 7c0 10 -9 12 -27 12h-361c-15 0 -20 19 -14 30l320 622c5 10 2 15 0 17s-6 3 -9 3h-145c-85 0 -103 -62 -144 -165c-2 -5 -6 -7 -9 -6
c-4 1 -8 5 -6 10c26 64 44 145 44 219c0 5 4 7 7 7c4 0 7 -2 7 -7c0 -23 2 -38 27 -38h303c14 0 19 -18 13 -29l-322 -624c-5 -10 -2 -15 0 -17s6 -2 9 -2h71h135zM223 -100c0 21 14 38 32 38s32 -17 32 -38c0 -20 -14 -37 -32 -37c-17 0 -32 17 -32 37z" />
    <glyph glyph-name="R.alt" horiz-adv-x="600" 
d="M162 700h150c88 0 181 -64 181 -170c0 -82 -61 -159 -134 -158c-7 0 -6 -8 0 -8c201 -46 164 -377 415 -377c126 0 174 67 209 129c8 13 24 7 15 -9c-44 -81 -106 -147 -245 -147c-344 0 -282 399 -483 399h-35c-30 0 -37 -5 -37 -24v-278c0 -29 12 -43 55 -44l35 -1
c6 0 8 -4 8 -8c0 -3 -2 -7 -8 -7c-33 0 -89 3 -125 3s-92 -3 -125 -3c-6 0 -8 4 -8 7c0 4 2 8 8 8l25 1c43 2 65 15 65 46v581c0 31 -10 43 -45 45l-40 2c-5 0 -8 4 -8 8c0 3 3 7 9 7c35 0 72 -2 118 -2zM198 408c0 -20 7 -29 27 -29h91c88 1 103 97 103 150
c0 85 -39 151 -138 151h-24c-59 0 -59 -12 -59 -56v-216z" />
    <glyph glyph-name="S.alt" horiz-adv-x="540" 
d="M449 142c-1 -73 -52 -159 -196 -158c-127 1 -179 121 -180 187c-1 80 35 125 93 124c65 -1 90 -56 90 -108c0 -5 4 -9 7 -9s7 4 7 9c0 78 -34 134 -117 135c-70 1 -142 -48 -142 -149c0 -108 80 -209 244 -210c168 -1 255 109 255 201c0 134 -96 185 -173 228
c-89 50 -202 92 -202 184c0 72 59 114 134 114c113 0 185 -124 185 -249c0 -5 4 -8 7 -8c4 0 8 4 8 9c0 30 -4 70 -4 121c0 31 0 76 12 136c1 5 -2 9 -6 9s-7 -2 -8 -7l-8 -40c-4 -18 -12 -29 -22 -29c-5 0 -11 2 -15 6c-24 24 -77 74 -153 74c-115 0 -181 -63 -180 -160
c1 -90 72 -162 201 -226c87 -43 164 -87 163 -184z" />
    <glyph glyph-name="a" unicode="a" horiz-adv-x="469" 
d="M443 84c5 0 8 -3 8 -8c0 -63 -26 -88 -64 -88c-35 0 -64 16 -79 66h-11c-34 -57 -81 -68 -134 -68c-78 0 -151 47 -151 146c0 45 20 82 50 112c-11 25 -21 62 -21 112c0 96 63 185 156 185c106 0 171 -68 171 -187l-1 -280c0 -43 9 -63 35 -63s34 32 34 65c0 4 2 8 7 8z
M61 358c-1 -45 8 -76 18 -99c60 49 150 75 217 80c0 145 -42 184 -107 182c-70 -2 -127 -72 -128 -163zM183 8c70 0 115 55 114 146l-1 165c-127 -20 -218 -69 -218 -185c0 -81 43 -126 105 -126z" />
    <glyph glyph-name="aacute" unicode="&#xe1;" horiz-adv-x="469" 
d="M111 600c-6 -5 -14 3 -8 9l127 147c9 10 18 14 28 14c13 0 23 -12 23 -26c0 -8 -4 -17 -14 -24zM443 84c5 0 8 -3 8 -8c0 -63 -26 -88 -64 -88c-35 0 -64 16 -79 66h-11c-34 -57 -81 -68 -134 -68c-78 0 -151 47 -151 146c0 45 20 82 50 112c-11 25 -21 62 -21 112
c0 96 63 185 156 185c106 0 171 -68 171 -187l-1 -280c0 -43 9 -63 35 -63s34 32 34 65c0 4 2 8 7 8zM61 358c-1 -45 8 -76 18 -99c60 49 150 75 217 80c0 145 -42 184 -107 182c-70 -2 -127 -72 -128 -163zM183 8c70 0 115 55 114 146l-1 165c-127 -20 -218 -69 -218 -185
c0 -81 43 -126 105 -126z" />
    <glyph glyph-name="abreve" unicode="&#x103;" horiz-adv-x="469" 
d="M197 652c-61 0 -106 42 -106 101c0 6 4 10 9 10s9 -4 9 -10c0 -43 35 -80 88 -80c51 0 86 37 86 80c0 6 4 9 9 9s8 -3 8 -9c0 -60 -43 -101 -103 -101zM443 84c5 0 8 -3 8 -8c0 -63 -26 -88 -64 -88c-35 0 -64 16 -79 66h-11c-34 -57 -81 -68 -134 -68
c-78 0 -151 47 -151 146c0 45 20 82 50 112c-11 25 -21 62 -21 112c0 96 63 185 156 185c106 0 171 -68 171 -187l-1 -280c0 -43 9 -63 35 -63s34 32 34 65c0 4 2 8 7 8zM61 358c-1 -45 8 -76 18 -99c60 49 150 75 217 80c0 145 -42 184 -107 182c-70 -2 -127 -72 -128 -163
zM183 8c70 0 115 55 114 146l-1 165c-127 -20 -218 -69 -218 -185c0 -81 43 -126 105 -126z" />
    <glyph glyph-name="uni1EAF" unicode="&#x1eaf;" horiz-adv-x="469" 
d="M111 810c-6 -5 -14 3 -8 9l127 147c9 10 18 14 28 14c13 0 23 -12 23 -26c0 -8 -4 -17 -14 -24zM197 652c-61 0 -106 42 -106 101c0 6 4 10 9 10s9 -4 9 -10c0 -43 35 -80 88 -80c51 0 86 37 86 80c0 6 4 9 9 9s8 -3 8 -9c0 -60 -43 -101 -103 -101zM443 84
c5 0 8 -3 8 -8c0 -63 -26 -88 -64 -88c-35 0 -64 16 -79 66h-11c-34 -57 -81 -68 -134 -68c-78 0 -151 47 -151 146c0 45 20 82 50 112c-11 25 -21 62 -21 112c0 96 63 185 156 185c106 0 171 -68 171 -187l-1 -280c0 -43 9 -63 35 -63s34 32 34 65c0 4 2 8 7 8zM61 358
c-1 -45 8 -76 18 -99c60 49 150 75 217 80c0 145 -42 184 -107 182c-70 -2 -127 -72 -128 -163zM183 8c70 0 115 55 114 146l-1 165c-127 -20 -218 -69 -218 -185c0 -81 43 -126 105 -126z" />
    <glyph glyph-name="uni1EB7" unicode="&#x1eb7;" horiz-adv-x="469" 
d="M197 652c-61 0 -106 42 -106 101c0 6 4 10 9 10s9 -4 9 -10c0 -43 35 -80 88 -80c51 0 86 37 86 80c0 6 4 9 9 9s8 -3 8 -9c0 -60 -43 -101 -103 -101zM443 84c5 0 8 -3 8 -8c0 -63 -26 -88 -64 -88c-35 0 -64 16 -79 66h-11c-34 -57 -81 -68 -134 -68
c-78 0 -151 47 -151 146c0 45 20 82 50 112c-11 25 -21 62 -21 112c0 96 63 185 156 185c106 0 171 -68 171 -187l-1 -280c0 -43 9 -63 35 -63s34 32 34 65c0 4 2 8 7 8zM61 358c-1 -45 8 -76 18 -99c60 49 150 75 217 80c0 145 -42 184 -107 182c-70 -2 -127 -72 -128 -163
zM183 8c70 0 115 55 114 146l-1 165c-127 -20 -218 -69 -218 -185c0 -81 43 -126 105 -126zM196 -74c18 0 32 -17 32 -38c0 -20 -14 -37 -32 -37c-17 0 -32 17 -32 37c0 21 14 38 32 38z" />
    <glyph glyph-name="uni1EB1" unicode="&#x1eb1;" horiz-adv-x="469" 
d="M135 950c-10 7 -14 16 -14 24c0 14 10 26 23 26c10 0 19 -4 28 -14l127 -147c6 -6 -2 -14 -8 -9zM197 652c-61 0 -106 42 -106 101c0 6 4 10 9 10s9 -4 9 -10c0 -43 35 -80 88 -80c51 0 86 37 86 80c0 6 4 9 9 9s8 -3 8 -9c0 -60 -43 -101 -103 -101zM443 84
c5 0 8 -3 8 -8c0 -63 -26 -88 -64 -88c-35 0 -64 16 -79 66h-11c-34 -57 -81 -68 -134 -68c-78 0 -151 47 -151 146c0 45 20 82 50 112c-11 25 -21 62 -21 112c0 96 63 185 156 185c106 0 171 -68 171 -187l-1 -280c0 -43 9 -63 35 -63s34 32 34 65c0 4 2 8 7 8zM61 358
c-1 -45 8 -76 18 -99c60 49 150 75 217 80c0 145 -42 184 -107 182c-70 -2 -127 -72 -128 -163zM183 8c70 0 115 55 114 146l-1 165c-127 -20 -218 -69 -218 -185c0 -81 43 -126 105 -126z" />
    <glyph glyph-name="uni1EB3" unicode="&#x1eb3;" horiz-adv-x="469" 
d="M166 846c-20 0 -37 15 -37 37c0 23 16 46 57 46c46 0 79 -33 79 -70c0 -14 -4 -27 -10 -40c-3 -7 -5 -9 -9 -9s-8 3 -6 9c4 12 7 24 7 33c0 22 -10 37 -23 37c-15 0 -19 -9 -23 -20c-5 -11 -15 -23 -35 -23zM197 652c-61 0 -106 42 -106 101c0 6 4 10 9 10s9 -4 9 -10
c0 -43 35 -80 88 -80c51 0 86 37 86 80c0 6 4 9 9 9s8 -3 8 -9c0 -60 -43 -101 -103 -101zM443 84c5 0 8 -3 8 -8c0 -63 -26 -88 -64 -88c-35 0 -64 16 -79 66h-11c-34 -57 -81 -68 -134 -68c-78 0 -151 47 -151 146c0 45 20 82 50 112c-11 25 -21 62 -21 112
c0 96 63 185 156 185c106 0 171 -68 171 -187l-1 -280c0 -43 9 -63 35 -63s34 32 34 65c0 4 2 8 7 8zM61 358c-1 -45 8 -76 18 -99c60 49 150 75 217 80c0 145 -42 184 -107 182c-70 -2 -127 -72 -128 -163zM183 8c70 0 115 55 114 146l-1 165c-127 -20 -218 -69 -218 -185
c0 -81 43 -126 105 -126z" />
    <glyph glyph-name="uni1EB5" unicode="&#x1eb5;" horiz-adv-x="469" 
d="M79 841c-12 0 -17 8 -17 23c0 43 30 85 75 85c65 0 68 -88 118 -88c28 0 40 19 40 65c0 15 6 23 17 23c12 0 17 -8 17 -23c0 -43 -29 -84 -74 -85c-64 -1 -69 88 -119 88c-28 0 -40 -19 -40 -65c0 -15 -6 -23 -17 -23zM283 753c0 6 4 9 9 9s8 -3 8 -9
c0 -60 -43 -101 -103 -101c-61 0 -106 42 -106 101c0 6 4 10 9 10s9 -4 9 -10c0 -43 35 -80 88 -80c51 0 86 37 86 80zM443 84c5 0 8 -3 8 -8c0 -63 -26 -88 -64 -88c-35 0 -64 16 -79 66h-11c-34 -57 -81 -68 -134 -68c-78 0 -151 47 -151 146c0 45 20 82 50 112
c-11 25 -21 62 -21 112c0 96 63 185 156 185c106 0 171 -68 171 -187l-1 -280c0 -43 9 -63 35 -63s34 32 34 65c0 4 2 8 7 8zM61 358c-1 -45 8 -76 18 -99c60 49 150 75 217 80c0 145 -42 184 -107 182c-70 -2 -127 -72 -128 -163zM183 8c70 0 115 55 114 146l-1 165
c-127 -20 -218 -69 -218 -185c0 -81 43 -126 105 -126z" />
    <glyph glyph-name="uni01CE" unicode="&#x1ce;" horiz-adv-x="469" 
d="M168 640l-107 147c-7 10 2 15 8 9l121 -125c2 -2 4 -3 6 -3s4 1 6 3l121 125c6 6 17 3 8 -9l-107 -147c-8 -11 -18 -15 -28 -15s-20 4 -28 15zM443 84c5 0 8 -3 8 -8c0 -63 -26 -88 -64 -88c-35 0 -64 16 -79 66h-11c-34 -57 -81 -68 -134 -68c-78 0 -151 47 -151 146
c0 45 20 82 50 112c-11 25 -21 62 -21 112c0 96 63 185 156 185c106 0 171 -68 171 -187l-1 -280c0 -43 9 -63 35 -63s34 32 34 65c0 4 2 8 7 8zM61 358c-1 -45 8 -76 18 -99c60 49 150 75 217 80c0 145 -42 184 -107 182c-70 -2 -127 -72 -128 -163zM183 8
c70 0 115 55 114 146l-1 165c-127 -20 -218 -69 -218 -185c0 -81 43 -126 105 -126z" />
    <glyph glyph-name="acircumflex" unicode="&#xe2;" horiz-adv-x="469" 
d="M71 575c-6 -6 -15 -1 -8 9l107 147c8 11 18 15 28 15s20 -4 28 -15l107 -147c9 -12 -2 -15 -8 -9l-121 125c-2 2 -4 3 -6 3s-4 -1 -6 -3zM443 84c5 0 8 -3 8 -8c0 -63 -26 -88 -64 -88c-35 0 -64 16 -79 66h-11c-34 -57 -81 -68 -134 -68c-78 0 -151 47 -151 146
c0 45 20 82 50 112c-11 25 -21 62 -21 112c0 96 63 185 156 185c106 0 171 -68 171 -187l-1 -280c0 -43 9 -63 35 -63s34 32 34 65c0 4 2 8 7 8zM61 358c-1 -45 8 -76 18 -99c60 49 150 75 217 80c0 145 -42 184 -107 182c-70 -2 -127 -72 -128 -163zM183 8
c70 0 115 55 114 146l-1 165c-127 -20 -218 -69 -218 -185c0 -81 43 -126 105 -126z" />
    <glyph glyph-name="uni1EA5" unicode="&#x1ea5;" horiz-adv-x="469" 
d="M110 723c-6 -5 -14 3 -8 9l127 147c9 10 18 14 28 14c13 0 23 -12 23 -26c0 -8 -4 -17 -14 -24zM71 575c-6 -6 -15 -1 -8 9l107 147c8 11 18 15 28 15s20 -4 28 -15l107 -147c9 -12 -2 -15 -8 -9l-121 125c-2 2 -4 3 -6 3s-4 -1 -6 -3zM443 84c5 0 8 -3 8 -8
c0 -63 -26 -88 -64 -88c-35 0 -64 16 -79 66h-11c-34 -57 -81 -68 -134 -68c-78 0 -151 47 -151 146c0 45 20 82 50 112c-11 25 -21 62 -21 112c0 96 63 185 156 185c106 0 171 -68 171 -187l-1 -280c0 -43 9 -63 35 -63s34 32 34 65c0 4 2 8 7 8zM61 358
c-1 -45 8 -76 18 -99c60 49 150 75 217 80c0 145 -42 184 -107 182c-70 -2 -127 -72 -128 -163zM183 8c70 0 115 55 114 146l-1 165c-127 -20 -218 -69 -218 -185c0 -81 43 -126 105 -126z" />
    <glyph glyph-name="uni1EAD" unicode="&#x1ead;" horiz-adv-x="469" 
d="M71 575c-6 -6 -15 -1 -8 9l107 147c8 11 18 15 28 15s20 -4 28 -15l107 -147c9 -12 -2 -15 -8 -9l-121 125c-2 2 -4 3 -6 3s-4 -1 -6 -3zM443 84c5 0 8 -3 8 -8c0 -63 -26 -88 -64 -88c-35 0 -64 16 -79 66h-11c-34 -57 -81 -68 -134 -68c-78 0 -151 47 -151 146
c0 45 20 82 50 112c-11 25 -21 62 -21 112c0 96 63 185 156 185c106 0 171 -68 171 -187l-1 -280c0 -43 9 -63 35 -63s34 32 34 65c0 4 2 8 7 8zM61 358c-1 -45 8 -76 18 -99c60 49 150 75 217 80c0 145 -42 184 -107 182c-70 -2 -127 -72 -128 -163zM183 8
c70 0 115 55 114 146l-1 165c-127 -20 -218 -69 -218 -185c0 -81 43 -126 105 -126zM196 -74c18 0 32 -17 32 -38c0 -20 -14 -37 -32 -37c-17 0 -32 17 -32 37c0 21 14 38 32 38z" />
    <glyph glyph-name="uni1EA7" unicode="&#x1ea7;" horiz-adv-x="469" 
d="M134 863c-10 7 -14 16 -14 24c0 14 10 26 23 26c10 0 19 -4 28 -14l127 -147c6 -6 -2 -14 -8 -9zM71 575c-6 -6 -15 -1 -8 9l107 147c8 11 18 15 28 15s20 -4 28 -15l107 -147c9 -12 -2 -15 -8 -9l-121 125c-2 2 -4 3 -6 3s-4 -1 -6 -3zM443 84c5 0 8 -3 8 -8
c0 -63 -26 -88 -64 -88c-35 0 -64 16 -79 66h-11c-34 -57 -81 -68 -134 -68c-78 0 -151 47 -151 146c0 45 20 82 50 112c-11 25 -21 62 -21 112c0 96 63 185 156 185c106 0 171 -68 171 -187l-1 -280c0 -43 9 -63 35 -63s34 32 34 65c0 4 2 8 7 8zM61 358
c-1 -45 8 -76 18 -99c60 49 150 75 217 80c0 145 -42 184 -107 182c-70 -2 -127 -72 -128 -163zM183 8c70 0 115 55 114 146l-1 165c-127 -20 -218 -69 -218 -185c0 -81 43 -126 105 -126z" />
    <glyph glyph-name="uni1EA9" unicode="&#x1ea9;" horiz-adv-x="469" 
d="M294 717c-20 0 -37 15 -37 37c0 23 16 46 57 46c46 0 79 -33 79 -70c0 -14 -4 -27 -10 -40c-3 -7 -5 -9 -9 -9s-8 3 -6 9c4 12 7 24 7 33c0 22 -10 37 -23 37c-15 0 -19 -9 -23 -20c-5 -11 -15 -23 -35 -23zM71 575c-6 -6 -15 -1 -8 9l107 147c8 11 18 15 28 15
s20 -4 28 -15l107 -147c9 -12 -2 -15 -8 -9l-121 125c-2 2 -4 3 -6 3s-4 -1 -6 -3zM443 84c5 0 8 -3 8 -8c0 -63 -26 -88 -64 -88c-35 0 -64 16 -79 66h-11c-34 -57 -81 -68 -134 -68c-78 0 -151 47 -151 146c0 45 20 82 50 112c-11 25 -21 62 -21 112c0 96 63 185 156 185
c106 0 171 -68 171 -187l-1 -280c0 -43 9 -63 35 -63s34 32 34 65c0 4 2 8 7 8zM61 358c-1 -45 8 -76 18 -99c60 49 150 75 217 80c0 145 -42 184 -107 182c-70 -2 -127 -72 -128 -163zM183 8c70 0 115 55 114 146l-1 165c-127 -20 -218 -69 -218 -185
c0 -81 43 -126 105 -126z" />
    <glyph glyph-name="uni1EAB" unicode="&#x1eab;" horiz-adv-x="469" 
d="M78 754c-12 0 -17 8 -17 23c0 43 30 85 75 85c65 0 68 -88 118 -88c28 0 40 19 40 65c0 15 6 23 17 23c12 0 17 -8 17 -23c0 -43 -29 -84 -74 -85c-64 -1 -69 88 -119 88c-28 0 -40 -19 -40 -65c0 -15 -6 -23 -17 -23zM71 575c-6 -6 -15 -1 -8 9l107 147
c8 11 18 15 28 15s20 -4 28 -15l107 -147c9 -12 -2 -15 -8 -9l-121 125c-2 2 -4 3 -6 3s-4 -1 -6 -3zM443 84c5 0 8 -3 8 -8c0 -63 -26 -88 -64 -88c-35 0 -64 16 -79 66h-11c-34 -57 -81 -68 -134 -68c-78 0 -151 47 -151 146c0 45 20 82 50 112c-11 25 -21 62 -21 112
c0 96 63 185 156 185c106 0 171 -68 171 -187l-1 -280c0 -43 9 -63 35 -63s34 32 34 65c0 4 2 8 7 8zM61 358c-1 -45 8 -76 18 -99c60 49 150 75 217 80c0 145 -42 184 -107 182c-70 -2 -127 -72 -128 -163zM183 8c70 0 115 55 114 146l-1 165c-127 -20 -218 -69 -218 -185
c0 -81 43 -126 105 -126z" />
    <glyph glyph-name="adieresis" unicode="&#xe4;" horiz-adv-x="469" 
d="M102 619c-23 0 -42 24 -43 50c0 28 19 50 43 50s42 -22 42 -50c0 -26 -18 -50 -42 -50zM304 619c-23 0 -42 24 -43 50c0 28 19 50 43 50s42 -22 42 -50c0 -26 -18 -50 -42 -50zM443 84c5 0 8 -3 8 -8c0 -63 -26 -88 -64 -88c-35 0 -64 16 -79 66h-11
c-34 -57 -81 -68 -134 -68c-78 0 -151 47 -151 146c0 45 20 82 50 112c-11 25 -21 62 -21 112c0 96 63 185 156 185c106 0 171 -68 171 -187l-1 -280c0 -43 9 -63 35 -63s34 32 34 65c0 4 2 8 7 8zM61 358c-1 -45 8 -76 18 -99c60 49 150 75 217 80c0 145 -42 184 -107 182
c-70 -2 -127 -72 -128 -163zM183 8c70 0 115 55 114 146l-1 165c-127 -20 -218 -69 -218 -185c0 -81 43 -126 105 -126z" />
    <glyph glyph-name="uni01DF" unicode="&#x1df;" horiz-adv-x="469" 
d="M100 763c-6 0 -9 5 -9 9s3 9 9 9h199c6 0 9 -5 9 -9s-3 -9 -9 -9h-199zM102 619c-23 0 -42 24 -43 50c0 28 19 50 43 50s42 -22 42 -50c0 -26 -18 -50 -42 -50zM261 669c0 28 19 50 43 50s42 -22 42 -50c0 -26 -18 -50 -42 -50c-23 0 -42 24 -43 50zM443 84
c5 0 8 -3 8 -8c0 -63 -26 -88 -64 -88c-35 0 -64 16 -79 66h-11c-34 -57 -81 -68 -134 -68c-78 0 -151 47 -151 146c0 45 20 82 50 112c-11 25 -21 62 -21 112c0 96 63 185 156 185c106 0 171 -68 171 -187l-1 -280c0 -43 9 -63 35 -63s34 32 34 65c0 4 2 8 7 8zM61 358
c-1 -45 8 -76 18 -99c60 49 150 75 217 80c0 145 -42 184 -107 182c-70 -2 -127 -72 -128 -163zM183 8c70 0 115 55 114 146l-1 165c-127 -20 -218 -69 -218 -185c0 -81 43 -126 105 -126z" />
    <glyph glyph-name="uni1EA1" unicode="&#x1ea1;" horiz-adv-x="469" 
d="M443 84c5 0 8 -3 8 -8c0 -63 -26 -88 -64 -88c-35 0 -64 16 -79 66h-11c-34 -57 -81 -68 -134 -68c-78 0 -151 47 -151 146c0 45 20 82 50 112c-11 25 -21 62 -21 112c0 96 63 185 156 185c106 0 171 -68 171 -187l-1 -280c0 -43 9 -63 35 -63s34 32 34 65c0 4 2 8 7 8z
M61 358c-1 -45 8 -76 18 -99c60 49 150 75 217 80c0 145 -42 184 -107 182c-70 -2 -127 -72 -128 -163zM183 8c70 0 115 55 114 146l-1 165c-127 -20 -218 -69 -218 -185c0 -81 43 -126 105 -126zM196 -74c18 0 32 -17 32 -38c0 -20 -14 -37 -32 -37c-17 0 -32 17 -32 37
c0 21 14 38 32 38z" />
    <glyph glyph-name="agrave" unicode="&#xe0;" horiz-adv-x="469" 
d="M135 740c-10 7 -14 16 -14 24c0 14 10 26 23 26c10 0 19 -4 28 -14l127 -147c6 -6 -2 -14 -8 -9zM443 84c5 0 8 -3 8 -8c0 -63 -26 -88 -64 -88c-35 0 -64 16 -79 66h-11c-34 -57 -81 -68 -134 -68c-78 0 -151 47 -151 146c0 45 20 82 50 112c-11 25 -21 62 -21 112
c0 96 63 185 156 185c106 0 171 -68 171 -187l-1 -280c0 -43 9 -63 35 -63s34 32 34 65c0 4 2 8 7 8zM61 358c-1 -45 8 -76 18 -99c60 49 150 75 217 80c0 145 -42 184 -107 182c-70 -2 -127 -72 -128 -163zM183 8c70 0 115 55 114 146l-1 165c-127 -20 -218 -69 -218 -185
c0 -81 43 -126 105 -126z" />
    <glyph glyph-name="uni1EA3" unicode="&#x1ea3;" horiz-adv-x="469" 
d="M166 636c-20 0 -37 15 -37 37c0 23 16 46 57 46c46 0 79 -33 79 -70c0 -14 -4 -27 -10 -40c-3 -7 -5 -9 -9 -9s-8 3 -6 9c4 12 7 24 7 33c0 22 -10 37 -23 37c-15 0 -19 -9 -23 -20c-5 -11 -15 -23 -35 -23zM443 84c5 0 8 -3 8 -8c0 -63 -26 -88 -64 -88
c-35 0 -64 16 -79 66h-11c-34 -57 -81 -68 -134 -68c-78 0 -151 47 -151 146c0 45 20 82 50 112c-11 25 -21 62 -21 112c0 96 63 185 156 185c106 0 171 -68 171 -187l-1 -280c0 -43 9 -63 35 -63s34 32 34 65c0 4 2 8 7 8zM61 358c-1 -45 8 -76 18 -99c60 49 150 75 217 80
c0 145 -42 184 -107 182c-70 -2 -127 -72 -128 -163zM183 8c70 0 115 55 114 146l-1 165c-127 -20 -218 -69 -218 -185c0 -81 43 -126 105 -126z" />
    <glyph glyph-name="amacron" unicode="&#x101;" horiz-adv-x="469" 
d="M98 614c-6 0 -9 5 -9 9s3 9 9 9h199c6 0 9 -5 9 -9s-3 -9 -9 -9h-199zM443 84c5 0 8 -3 8 -8c0 -63 -26 -88 -64 -88c-35 0 -64 16 -79 66h-11c-34 -57 -81 -68 -134 -68c-78 0 -151 47 -151 146c0 45 20 82 50 112c-11 25 -21 62 -21 112c0 96 63 185 156 185
c106 0 171 -68 171 -187l-1 -280c0 -43 9 -63 35 -63s34 32 34 65c0 4 2 8 7 8zM61 358c-1 -45 8 -76 18 -99c60 49 150 75 217 80c0 145 -42 184 -107 182c-70 -2 -127 -72 -128 -163zM183 8c70 0 115 55 114 146l-1 165c-127 -20 -218 -69 -218 -185
c0 -81 43 -126 105 -126z" />
    <glyph glyph-name="aogonek" unicode="&#x105;" horiz-adv-x="478" 
d="M436 -100c3 0 6 -3 6 -6c0 -4 -4 -7 -9 -12c-14 -12 -33 -23 -56 -23c-27 0 -52 20 -52 52c0 25 12 43 30 57l-1 1c9 8 12 11 12 16c0 2 -1 4 -2 6c-25 6 -44 24 -56 63h-11c-34 -57 -81 -68 -134 -68c-78 0 -151 47 -151 146c0 45 20 82 50 112c-11 25 -21 62 -21 112
c0 96 63 185 156 185c106 0 171 -68 171 -187l-1 -280c0 -43 9 -63 35 -63s34 32 34 65c0 4 2 8 7 8s8 -3 8 -8c0 -34 -8 -57 -21 -71c3 -1 5 -4 5 -7c0 -5 -4 -7 -9 -9c-60 -23 -80 -50 -80 -77c0 -23 20 -34 36 -34c17 0 30 8 39 14c6 4 11 8 15 8zM61 358
c-1 -45 8 -76 18 -99c60 49 150 75 217 80c0 145 -42 184 -107 182c-70 -2 -127 -72 -128 -163zM183 8c70 0 115 55 114 146l-1 165c-127 -20 -218 -69 -218 -185c0 -81 43 -126 105 -126z" />
    <glyph glyph-name="aring" unicode="&#xe5;" horiz-adv-x="469" 
d="M197 569c-33 0 -66 30 -66 79c0 50 29 80 66 80c36 0 65 -30 65 -80c0 -49 -33 -79 -65 -79zM197 710c-28 0 -48 -23 -48 -61c0 -41 20 -62 48 -62s47 21 47 62c0 38 -19 61 -47 61zM443 84c5 0 8 -3 8 -8c0 -63 -26 -88 -64 -88c-35 0 -64 16 -79 66h-11
c-34 -57 -81 -68 -134 -68c-78 0 -151 47 -151 146c0 45 20 82 50 112c-11 25 -21 62 -21 112c0 96 63 185 156 185c106 0 171 -68 171 -187l-1 -280c0 -43 9 -63 35 -63s34 32 34 65c0 4 2 8 7 8zM61 358c-1 -45 8 -76 18 -99c60 49 150 75 217 80c0 145 -42 184 -107 182
c-70 -2 -127 -72 -128 -163zM183 8c70 0 115 55 114 146l-1 165c-127 -20 -218 -69 -218 -185c0 -81 43 -126 105 -126z" />
    <glyph glyph-name="atilde" unicode="&#xe3;" horiz-adv-x="469" 
d="M79 631c-12 0 -17 8 -17 23c0 43 30 85 75 85c65 0 68 -88 118 -88c28 0 40 19 40 65c0 15 6 23 17 23c12 0 17 -8 17 -23c0 -43 -29 -84 -74 -85c-64 -1 -69 88 -119 88c-28 0 -40 -19 -40 -65c0 -15 -6 -23 -17 -23zM443 84c5 0 8 -3 8 -8c0 -63 -26 -88 -64 -88
c-35 0 -64 16 -79 66h-11c-34 -57 -81 -68 -134 -68c-78 0 -151 47 -151 146c0 45 20 82 50 112c-11 25 -21 62 -21 112c0 96 63 185 156 185c106 0 171 -68 171 -187l-1 -280c0 -43 9 -63 35 -63s34 32 34 65c0 4 2 8 7 8zM61 358c-1 -45 8 -76 18 -99c60 49 150 75 217 80
c0 145 -42 184 -107 182c-70 -2 -127 -72 -128 -163zM183 8c70 0 115 55 114 146l-1 165c-127 -20 -218 -69 -218 -185c0 -81 43 -126 105 -126z" />
    <glyph glyph-name="ae" unicode="&#xe6;" horiz-adv-x="715" 
d="M396 294c-13 0 -20 -7 -20 -17v-64c0 -108 50 -199 136 -199c103 0 158 118 158 216c0 4 3 7 8 7s7 -3 7 -7c0 -142 -65 -244 -181 -244c-81 0 -140 50 -173 117c-22 -66 -76 -117 -171 -117c-82 0 -148 47 -148 132c0 44 19 81 50 111c-12 25 -27 66 -28 127
c-2 98 61 185 156 185c73 0 126 -32 152 -91c38 59 98 90 160 90c98 0 183 -93 183 -208v-19c0 -10 -6 -17 -19 -17zM54 358c0 -56 12 -90 24 -115c51 42 127 72 210 96c0 145 -41 184 -106 182c-69 -2 -128 -72 -128 -163zM376 352v-21c0 -10 7 -17 20 -17l195 1
c13 0 19 7 19 17c0 125 -49 187 -114 187c-73 0 -120 -74 -120 -167zM175 8c70 0 115 55 114 146l-1 165c-155 -46 -210 -93 -210 -194c0 -75 35 -117 97 -117z" />
    <glyph glyph-name="b" unicode="b" horiz-adv-x="520" 
d="M106 83v562c0 11 -4 18 -12 18c-15 0 -32 -5 -59 -5c-8 0 -13 2 -13 7s4 7 9 7c50 0 109 32 133 78h13l-1 -279c0 -10 6 -10 10 -5c21 30 66 64 128 64c129 0 196 -115 196 -260c0 -148 -47 -277 -203 -277c-62 0 -94 33 -118 59l-8 11h-8v-72h-13c-36 14 -84 14 -114 9
c-5 -1 -8 1 -9 5c-1 5 3 7 7 8c31 8 62 9 62 70zM176 196c0 -113 43 -178 130 -179c100 -1 130 127 130 253c0 110 -31 228 -132 229c-81 1 -128 -44 -128 -154v-149z" />
    <glyph glyph-name="uni1E05" unicode="&#x1e05;" horiz-adv-x="520" 
d="M106 83v562c0 11 -4 18 -12 18c-15 0 -32 -5 -59 -5c-8 0 -13 2 -13 7s4 7 9 7c50 0 109 32 133 78h13l-1 -279c0 -10 6 -10 10 -5c21 30 66 64 128 64c129 0 196 -115 196 -260c0 -148 -47 -277 -203 -277c-62 0 -94 33 -118 59l-8 11h-8v-72h-13c-36 14 -84 14 -114 9
c-5 -1 -8 1 -9 5c-1 5 3 7 7 8c31 8 62 9 62 70zM176 196c0 -113 43 -178 130 -179c100 -1 130 127 130 253c0 110 -31 228 -132 229c-81 1 -128 -44 -128 -154v-149zM199 -112c0 21 14 38 32 38s32 -17 32 -38c0 -20 -14 -37 -32 -37c-17 0 -32 17 -32 37z" />
    <glyph glyph-name="c" unicode="c" horiz-adv-x="428" 
d="M105 323v-110c0 -110 49 -201 142 -201c92 0 137 99 137 182c0 4 3 8 8 8s7 -4 7 -8c0 -97 -47 -204 -166 -204c-133 0 -203 122 -203 277c0 160 70 272 200 274c73 1 106 -54 135 -54c15 0 22 10 29 23c2 4 5 5 8 4s5 -5 3 -9c-16 -33 -27 -99 -27 -215
c0 -4 -2 -8 -7 -8s-8 4 -8 8c0 157 -50 227 -118 229c-89 3 -140 -91 -140 -196z" />
    <glyph glyph-name="cacute" unicode="&#x107;" horiz-adv-x="428" 
d="M143 581l127 147c9 10 18 14 28 14c13 0 23 -12 23 -26c0 -8 -4 -17 -14 -24l-156 -120c-6 -5 -14 3 -8 9zM105 323v-110c0 -110 49 -201 142 -201c92 0 137 99 137 182c0 4 3 8 8 8s7 -4 7 -8c0 -97 -47 -204 -166 -204c-133 0 -203 122 -203 277c0 160 70 272 200 274
c73 1 106 -54 135 -54c15 0 22 10 29 23c2 4 5 5 8 4s5 -5 3 -9c-16 -33 -27 -99 -27 -215c0 -4 -2 -8 -7 -8s-8 4 -8 8c0 157 -50 227 -118 229c-89 3 -140 -91 -140 -196z" />
    <glyph glyph-name="ccaron" unicode="&#x10d;" horiz-adv-x="428" 
d="M230 643l-121 125c-6 6 -15 1 -8 -9l107 -147c8 -11 18 -15 28 -15s20 4 28 15l107 147c9 12 -2 15 -8 9l-121 -125c-2 -2 -4 -3 -6 -3s-4 1 -6 3zM105 323v-110c0 -110 49 -201 142 -201c92 0 137 99 137 182c0 4 3 8 8 8s7 -4 7 -8c0 -97 -47 -204 -166 -204
c-133 0 -203 122 -203 277c0 160 70 272 200 274c73 1 106 -54 135 -54c15 0 22 10 29 23c2 4 5 5 8 4s5 -5 3 -9c-16 -33 -27 -99 -27 -215c0 -4 -2 -8 -7 -8s-8 4 -8 8c0 157 -50 227 -118 229c-89 3 -140 -91 -140 -196z" />
    <glyph glyph-name="ccedilla" unicode="&#xe7;" horiz-adv-x="428" 
d="M245 519c-89 3 -140 -91 -140 -196v-110c0 -110 49 -201 142 -201c92 0 137 99 137 182c0 4 3 8 8 8s7 -4 7 -8c0 -97 -47 -204 -166 -204c-9 0 -17 1 -25 2c-6 -10 -10 -19 -10 -26c0 -10 6 -17 30 -21c27 -4 69 -16 69 -66c0 -49 -34 -72 -73 -72s-60 25 -60 59
c0 5 3 10 8 10s8 -5 8 -10c0 -23 15 -41 40 -41c26 0 41 17 41 44c0 29 -14 41 -41 52c-27 9 -41 21 -41 40c0 12 5 22 11 34c-105 23 -160 135 -160 272c0 160 70 272 200 274c73 1 106 -54 135 -54c15 0 22 10 29 23c2 4 5 5 8 4s5 -5 3 -9c-16 -33 -27 -99 -27 -215
c0 -4 -2 -8 -7 -8s-8 4 -8 8c0 157 -50 227 -118 229z" />
    <glyph glyph-name="cdotaccent" unicode="&#x10b;" horiz-adv-x="428" 
d="M204 662c0 21 14 38 32 38s32 -17 32 -38c0 -20 -14 -37 -32 -37c-17 0 -32 17 -32 37zM105 323v-110c0 -110 49 -201 142 -201c92 0 137 99 137 182c0 4 3 8 8 8s7 -4 7 -8c0 -97 -47 -204 -166 -204c-133 0 -203 122 -203 277c0 160 70 272 200 274
c73 1 106 -54 135 -54c15 0 22 10 29 23c2 4 5 5 8 4s5 -5 3 -9c-16 -33 -27 -99 -27 -215c0 -4 -2 -8 -7 -8s-8 4 -8 8c0 157 -50 227 -118 229c-89 3 -140 -91 -140 -196z" />
    <glyph glyph-name="d" unicode="d" horiz-adv-x="525" 
d="M414 84c0 -61 48 -67 78 -70c4 0 8 -3 7 -8c-1 -4 -4 -5 -9 -5c-30 2 -72 9 -130 -9h-13v71h-8l-8 -11c-21 -29 -56 -59 -118 -59c-156 0 -203 129 -203 277c0 145 67 260 196 260c62 0 108 -33 128 -64c3 -5 10 -5 10 5l-1 172c0 13 -4 20 -12 20c-15 0 -32 -5 -59 -5
c-8 0 -13 2 -13 7s4 7 9 7c50 0 109 32 133 78h13v-666zM344 196v149c0 110 -47 155 -128 154c-101 -1 -132 -119 -132 -229c0 -126 30 -254 130 -253c87 1 130 66 130 179z" />
    <glyph glyph-name="eth" unicode="&#xf0;" horiz-adv-x="458" 
d="M307 654c80 -63 131 -176 131 -356c0 -195 -64 -307 -211 -308c-150 0 -202 116 -202 277c0 153 41 260 195 260c77 0 123 -45 132 -59h8c-13 77 -40 133 -79 171l-133 -75c-5 -3 -10 -6 -14 -2c-3 3 -3 8 2 11l134 75c-44 38 -104 56 -179 57c-4 0 -7 3 -7 8s3 7 7 7
c77 0 147 -17 204 -57l122 68c5 3 10 6 14 2c3 -3 3 -7 -2 -11zM227 14c116 2 141 94 141 263c0 154 -70 223 -141 223c-113 0 -132 -104 -132 -236c0 -133 23 -251 132 -250z" />
    <glyph glyph-name="dcaron" unicode="&#x10f;" horiz-adv-x="525" 
d="M366 852l-121 125c-6 6 -15 1 -8 -9l107 -147c8 -11 18 -15 28 -15s20 4 28 15l107 147c9 12 -2 15 -8 9l-121 -125c-2 -2 -4 -3 -6 -3s-4 1 -6 3zM414 84c0 -61 48 -67 78 -70c4 0 8 -3 7 -8c-1 -4 -4 -5 -9 -5c-30 2 -72 9 -130 -9h-13v71h-8l-8 -11
c-21 -29 -56 -59 -118 -59c-156 0 -203 129 -203 277c0 145 67 260 196 260c62 0 108 -33 128 -64c3 -5 10 -5 10 5l-1 172c0 13 -4 20 -12 20c-15 0 -32 -5 -59 -5c-8 0 -13 2 -13 7s4 7 9 7c50 0 109 32 133 78h13v-666zM344 196v149c0 110 -47 155 -128 154
c-101 -1 -132 -119 -132 -229c0 -126 30 -254 130 -253c87 1 130 66 130 179z" />
    <glyph glyph-name="dcroat" unicode="&#x111;" horiz-adv-x="515" 
d="M492 14c4 0 8 -3 7 -8c-1 -4 -4 -5 -9 -5c-30 2 -72 9 -130 -9h-13v71h-8l-8 -11c-21 -29 -56 -59 -118 -59c-156 0 -203 129 -203 277c0 145 67 260 196 260c62 0 108 -33 128 -64c3 -5 10 -5 10 5l-1 104l-129 -1c-6 0 -11 0 -11 7c0 6 3 9 11 9l129 1v52
c0 13 -4 20 -12 20c-15 0 -32 -5 -59 -5c-8 0 -13 2 -13 7s4 7 9 7c50 0 109 32 133 78h13v-158l67 1c6 0 12 -2 12 -8c0 -5 -3 -9 -11 -9l-68 -1v-491c0 -61 48 -67 78 -70zM344 196v149c0 110 -47 155 -128 154c-101 -1 -132 -119 -132 -229c0 -126 30 -254 130 -253
c87 1 130 66 130 179z" />
    <glyph glyph-name="uni1E0D" unicode="&#x1e0d;" horiz-adv-x="525" 
d="M414 84c0 -61 48 -67 78 -70c4 0 8 -3 7 -8c-1 -4 -4 -5 -9 -5c-30 2 -72 9 -130 -9h-13v71h-8l-8 -11c-21 -29 -56 -59 -118 -59c-156 0 -203 129 -203 277c0 145 67 260 196 260c62 0 108 -33 128 -64c3 -5 10 -5 10 5l-1 172c0 13 -4 20 -12 20c-15 0 -32 -5 -59 -5
c-8 0 -13 2 -13 7s4 7 9 7c50 0 109 32 133 78h13v-666zM344 196v149c0 110 -47 155 -128 154c-101 -1 -132 -119 -132 -229c0 -126 30 -254 130 -253c87 1 130 66 130 179zM159 -82c0 21 14 38 32 38s32 -17 32 -38c0 -20 -14 -37 -32 -37c-17 0 -32 17 -32 37z" />
    <glyph glyph-name="e" unicode="e" horiz-adv-x="434" 
d="M389 230c0 4 3 7 8 7s7 -3 7 -7c0 -142 -65 -244 -181 -244c-130 0 -203 128 -203 248v57c0 164 98 249 201 249c98 0 183 -93 183 -208v-19c0 -10 -6 -17 -19 -17l-270 -2c-13 0 -20 -7 -20 -17v-64c0 -108 50 -199 136 -199c103 0 158 118 158 216zM115 314l195 1
c13 0 19 7 19 17c0 125 -49 187 -114 187c-73 0 -120 -74 -120 -167v-21c0 -10 7 -17 20 -17z" />
    <glyph glyph-name="eacute" unicode="&#xe9;" horiz-adv-x="434" 
d="M124 611l127 147c9 10 18 14 28 14c13 0 23 -12 23 -26c0 -8 -4 -17 -14 -24l-156 -120c-6 -5 -14 3 -8 9zM389 230c0 4 3 7 8 7s7 -3 7 -7c0 -142 -65 -244 -181 -244c-130 0 -203 128 -203 248v57c0 164 98 249 201 249c98 0 183 -93 183 -208v-19
c0 -10 -6 -17 -19 -17l-270 -2c-13 0 -20 -7 -20 -17v-64c0 -108 50 -199 136 -199c103 0 158 118 158 216zM115 314l195 1c13 0 19 7 19 17c0 125 -49 187 -114 187c-73 0 -120 -74 -120 -167v-21c0 -10 7 -17 20 -17z" />
    <glyph glyph-name="ecaron" unicode="&#x11b;" horiz-adv-x="434" 
d="M211 673l-121 125c-6 6 -15 1 -8 -9l107 -147c8 -11 18 -15 28 -15s20 4 28 15l107 147c9 12 -2 15 -8 9l-121 -125c-2 -2 -4 -3 -6 -3s-4 1 -6 3zM389 230c0 4 3 7 8 7s7 -3 7 -7c0 -142 -65 -244 -181 -244c-130 0 -203 128 -203 248v57c0 164 98 249 201 249
c98 0 183 -93 183 -208v-19c0 -10 -6 -17 -19 -17l-270 -2c-13 0 -20 -7 -20 -17v-64c0 -108 50 -199 136 -199c103 0 158 118 158 216zM115 314l195 1c13 0 19 7 19 17c0 125 -49 187 -114 187c-73 0 -120 -74 -120 -167v-21c0 -10 7 -17 20 -17z" />
    <glyph glyph-name="uni0229" unicode="&#x229;" horiz-adv-x="434" 
d="M115 294c-13 0 -20 -7 -20 -17v-64c0 -108 50 -199 136 -199c103 0 158 118 158 216c0 4 3 7 8 7s7 -3 7 -7c0 -136 -60 -236 -168 -244c-7 -12 -14 -25 -14 -34c0 -10 6 -17 30 -21c27 -4 69 -16 69 -66c0 -49 -34 -72 -73 -72s-60 25 -60 59c0 5 3 10 8 10s8 -5 8 -10
c0 -23 15 -41 40 -41c26 0 41 17 41 44c0 29 -14 41 -41 52c-27 9 -41 21 -41 40c0 14 7 26 13 39c-125 4 -196 130 -196 248v57c0 164 98 249 201 249c98 0 183 -93 183 -208v-19c0 -10 -6 -17 -19 -17zM95 352v-21c0 -10 7 -17 20 -17l195 1c13 0 19 7 19 17
c0 125 -49 187 -114 187c-73 0 -120 -74 -120 -167z" />
    <glyph glyph-name="ecircumflex" unicode="&#xea;" horiz-adv-x="434" 
d="M213 702c2 2 4 3 6 3s4 -1 6 -3l121 -125c6 -6 17 -3 8 9l-107 147c-8 11 -18 15 -28 15s-20 -4 -28 -15l-107 -147c-7 -10 2 -15 8 -9zM389 230c0 4 3 7 8 7s7 -3 7 -7c0 -142 -65 -244 -181 -244c-130 0 -203 128 -203 248v57c0 164 98 249 201 249
c98 0 183 -93 183 -208v-19c0 -10 -6 -17 -19 -17l-270 -2c-13 0 -20 -7 -20 -17v-64c0 -108 50 -199 136 -199c103 0 158 118 158 216zM115 314l195 1c13 0 19 7 19 17c0 125 -49 187 -114 187c-73 0 -120 -74 -120 -167v-21c0 -10 7 -17 20 -17z" />
    <glyph glyph-name="uni1EBF" unicode="&#x1ebf;" horiz-adv-x="434" 
d="M123 734l127 147c9 10 18 14 28 14c13 0 23 -12 23 -26c0 -8 -4 -17 -14 -24l-156 -120c-6 -5 -14 3 -8 9zM213 702c2 2 4 3 6 3s4 -1 6 -3l121 -125c6 -6 17 -3 8 9l-107 147c-8 11 -18 15 -28 15s-20 -4 -28 -15l-107 -147c-7 -10 2 -15 8 -9zM389 230c0 4 3 7 8 7
s7 -3 7 -7c0 -142 -65 -244 -181 -244c-130 0 -203 128 -203 248v57c0 164 98 249 201 249c98 0 183 -93 183 -208v-19c0 -10 -6 -17 -19 -17l-270 -2c-13 0 -20 -7 -20 -17v-64c0 -108 50 -199 136 -199c103 0 158 118 158 216zM115 314l195 1c13 0 19 7 19 17
c0 125 -49 187 -114 187c-73 0 -120 -74 -120 -167v-21c0 -10 7 -17 20 -17z" />
    <glyph glyph-name="uni1EC7" unicode="&#x1ec7;" horiz-adv-x="434" 
d="M213 702c2 2 4 3 6 3s4 -1 6 -3l121 -125c6 -6 17 -3 8 9l-107 147c-8 11 -18 15 -28 15s-20 -4 -28 -15l-107 -147c-7 -10 2 -15 8 -9zM389 230c0 4 3 7 8 7s7 -3 7 -7c0 -142 -65 -244 -181 -244c-130 0 -203 128 -203 248v57c0 164 98 249 201 249
c98 0 183 -93 183 -208v-19c0 -10 -6 -17 -19 -17l-270 -2c-13 0 -20 -7 -20 -17v-64c0 -108 50 -199 136 -199c103 0 158 118 158 216zM115 314l195 1c13 0 19 7 19 17c0 125 -49 187 -114 187c-73 0 -120 -74 -120 -167v-21c0 -10 7 -17 20 -17zM195 -90c0 21 14 38 32 38
s32 -17 32 -38c0 -20 -14 -37 -32 -37c-17 0 -32 17 -32 37z" />
    <glyph glyph-name="uni1EC1" unicode="&#x1ec1;" horiz-adv-x="434" 
d="M319 754c6 -6 -2 -14 -8 -9l-156 120c-10 7 -14 16 -14 24c0 14 10 26 23 26c10 0 19 -4 28 -14zM213 702c2 2 4 3 6 3s4 -1 6 -3l121 -125c6 -6 17 -3 8 9l-107 147c-8 11 -18 15 -28 15s-20 -4 -28 -15l-107 -147c-7 -10 2 -15 8 -9zM389 230c0 4 3 7 8 7s7 -3 7 -7
c0 -142 -65 -244 -181 -244c-130 0 -203 128 -203 248v57c0 164 98 249 201 249c98 0 183 -93 183 -208v-19c0 -10 -6 -17 -19 -17l-270 -2c-13 0 -20 -7 -20 -17v-64c0 -108 50 -199 136 -199c103 0 158 118 158 216zM115 314l195 1c13 0 19 7 19 17
c0 125 -49 187 -114 187c-73 0 -120 -74 -120 -167v-21c0 -10 7 -17 20 -17z" />
    <glyph glyph-name="uni1EC3" unicode="&#x1ec3;" horiz-adv-x="434" 
d="M294 717c-20 0 -37 15 -37 37c0 23 16 46 57 46c46 0 79 -33 79 -70c0 -14 -4 -27 -10 -40c-3 -7 -5 -9 -9 -9s-8 3 -6 9c4 12 7 24 7 33c0 22 -10 37 -23 37c-15 0 -19 -9 -23 -20c-5 -11 -15 -23 -35 -23zM213 702c2 2 4 3 6 3s4 -1 6 -3l121 -125c6 -6 17 -3 8 9
l-107 147c-8 11 -18 15 -28 15s-20 -4 -28 -15l-107 -147c-7 -10 2 -15 8 -9zM389 230c0 4 3 7 8 7s7 -3 7 -7c0 -142 -65 -244 -181 -244c-130 0 -203 128 -203 248v57c0 164 98 249 201 249c98 0 183 -93 183 -208v-19c0 -10 -6 -17 -19 -17l-270 -2c-13 0 -20 -7 -20 -17
v-64c0 -108 50 -199 136 -199c103 0 158 118 158 216zM115 314l195 1c13 0 19 7 19 17c0 125 -49 187 -114 187c-73 0 -120 -74 -120 -167v-21c0 -10 7 -17 20 -17z" />
    <glyph glyph-name="uni1EC5" unicode="&#x1ec5;" horiz-adv-x="434" 
d="M275 756c45 1 74 42 74 85c0 15 -5 23 -17 23c-11 0 -17 -8 -17 -23c0 -46 -12 -65 -40 -65c-50 0 -53 88 -118 88c-45 0 -75 -42 -75 -85c0 -15 5 -23 17 -23c11 0 17 8 17 23c0 46 12 65 40 65c50 0 55 -89 119 -88zM213 702c2 2 4 3 6 3s4 -1 6 -3l121 -125
c6 -6 17 -3 8 9l-107 147c-8 11 -18 15 -28 15s-20 -4 -28 -15l-107 -147c-7 -10 2 -15 8 -9zM389 230c0 4 3 7 8 7s7 -3 7 -7c0 -142 -65 -244 -181 -244c-130 0 -203 128 -203 248v57c0 164 98 249 201 249c98 0 183 -93 183 -208v-19c0 -10 -6 -17 -19 -17l-270 -2
c-13 0 -20 -7 -20 -17v-64c0 -108 50 -199 136 -199c103 0 158 118 158 216zM115 314l195 1c13 0 19 7 19 17c0 125 -49 187 -114 187c-73 0 -120 -74 -120 -167v-21c0 -10 7 -17 20 -17z" />
    <glyph glyph-name="edieresis" unicode="&#xeb;" horiz-adv-x="434" 
d="M80 671c0 28 19 50 43 50s42 -22 42 -50c0 -26 -18 -50 -42 -50c-23 0 -42 24 -43 50zM282 671c0 28 19 50 43 50s42 -22 42 -50c0 -26 -18 -50 -42 -50c-23 0 -42 24 -43 50zM389 230c0 4 3 7 8 7s7 -3 7 -7c0 -142 -65 -244 -181 -244c-130 0 -203 128 -203 248v57
c0 164 98 249 201 249c98 0 183 -93 183 -208v-19c0 -10 -6 -17 -19 -17l-270 -2c-13 0 -20 -7 -20 -17v-64c0 -108 50 -199 136 -199c103 0 158 118 158 216zM115 314l195 1c13 0 19 7 19 17c0 125 -49 187 -114 187c-73 0 -120 -74 -120 -167v-21c0 -10 7 -17 20 -17z" />
    <glyph glyph-name="edotaccent" unicode="&#x117;" horiz-adv-x="434" 
d="M185 692c0 21 14 38 32 38s32 -17 32 -38c0 -20 -14 -37 -32 -37c-17 0 -32 17 -32 37zM389 230c0 4 3 7 8 7s7 -3 7 -7c0 -142 -65 -244 -181 -244c-130 0 -203 128 -203 248v57c0 164 98 249 201 249c98 0 183 -93 183 -208v-19c0 -10 -6 -17 -19 -17l-270 -2
c-13 0 -20 -7 -20 -17v-64c0 -108 50 -199 136 -199c103 0 158 118 158 216zM115 314l195 1c13 0 19 7 19 17c0 125 -49 187 -114 187c-73 0 -120 -74 -120 -167v-21c0 -10 7 -17 20 -17z" />
    <glyph glyph-name="uni1EB9" unicode="&#x1eb9;" horiz-adv-x="434" 
d="M389 230c0 4 3 7 8 7s7 -3 7 -7c0 -142 -65 -244 -181 -244c-130 0 -203 128 -203 248v57c0 164 98 249 201 249c98 0 183 -93 183 -208v-19c0 -10 -6 -17 -19 -17l-270 -2c-13 0 -20 -7 -20 -17v-64c0 -108 50 -199 136 -199c103 0 158 118 158 216zM115 314l195 1
c13 0 19 7 19 17c0 125 -49 187 -114 187c-73 0 -120 -74 -120 -167v-21c0 -10 7 -17 20 -17zM195 -90c0 21 14 38 32 38s32 -17 32 -38c0 -20 -14 -37 -32 -37c-17 0 -32 17 -32 37z" />
    <glyph glyph-name="egrave" unicode="&#xe8;" horiz-adv-x="434" 
d="M320 631c6 -6 -2 -14 -8 -9l-156 120c-10 7 -14 16 -14 24c0 14 10 26 23 26c10 0 19 -4 28 -14zM389 230c0 4 3 7 8 7s7 -3 7 -7c0 -142 -65 -244 -181 -244c-130 0 -203 128 -203 248v57c0 164 98 249 201 249c98 0 183 -93 183 -208v-19c0 -10 -6 -17 -19 -17l-270 -2
c-13 0 -20 -7 -20 -17v-64c0 -108 50 -199 136 -199c103 0 158 118 158 216zM115 314l195 1c13 0 19 7 19 17c0 125 -49 187 -114 187c-73 0 -120 -74 -120 -167v-21c0 -10 7 -17 20 -17z" />
    <glyph glyph-name="uni1EBB" unicode="&#x1ebb;" horiz-adv-x="434" 
d="M187 638c-20 0 -37 15 -37 37c0 23 16 46 57 46c46 0 79 -33 79 -70c0 -14 -4 -27 -10 -40c-3 -7 -5 -9 -9 -9s-8 3 -6 9c4 12 7 24 7 33c0 22 -10 37 -23 37c-15 0 -19 -9 -23 -20c-5 -11 -15 -23 -35 -23zM389 230c0 4 3 7 8 7s7 -3 7 -7c0 -142 -65 -244 -181 -244
c-130 0 -203 128 -203 248v57c0 164 98 249 201 249c98 0 183 -93 183 -208v-19c0 -10 -6 -17 -19 -17l-270 -2c-13 0 -20 -7 -20 -17v-64c0 -108 50 -199 136 -199c103 0 158 118 158 216zM115 314l195 1c13 0 19 7 19 17c0 125 -49 187 -114 187c-73 0 -120 -74 -120 -167
v-21c0 -10 7 -17 20 -17z" />
    <glyph glyph-name="emacron" unicode="&#x113;" horiz-adv-x="434" 
d="M318 616c6 0 9 5 9 9s-3 9 -9 9h-199c-6 0 -9 -5 -9 -9s3 -9 9 -9h199zM389 230c0 4 3 7 8 7s7 -3 7 -7c0 -142 -65 -244 -181 -244c-130 0 -203 128 -203 248v57c0 164 98 249 201 249c98 0 183 -93 183 -208v-19c0 -10 -6 -17 -19 -17l-270 -2c-13 0 -20 -7 -20 -17
v-64c0 -108 50 -199 136 -199c103 0 158 118 158 216zM115 314l195 1c13 0 19 7 19 17c0 125 -49 187 -114 187c-73 0 -120 -74 -120 -167v-21c0 -10 7 -17 20 -17z" />
    <glyph glyph-name="eogonek" unicode="&#x119;" horiz-adv-x="434" 
d="M115 294c-13 0 -20 -7 -20 -17v-64c0 -108 50 -199 136 -199c103 0 158 118 158 216c0 4 3 7 8 7s7 -3 7 -7c0 -108 -37 -193 -106 -227v-2c0 -5 -4 -7 -9 -9c-60 -23 -80 -50 -80 -77c0 -23 20 -34 36 -34c17 0 30 8 39 14c6 4 11 8 15 8c3 0 6 -3 6 -6
c0 -4 -4 -7 -9 -12c-14 -12 -33 -23 -56 -23c-27 0 -52 20 -52 52c0 18 7 33 17 45l-1 1c8 9 12 14 10 20c-1 4 -4 6 -8 7c-120 11 -186 132 -186 247v57c0 164 98 249 201 249c98 0 183 -93 183 -208v-19c0 -10 -6 -17 -19 -17zM95 352v-21c0 -10 7 -17 20 -17l195 1
c13 0 19 7 19 17c0 125 -49 187 -114 187c-73 0 -120 -74 -120 -167z" />
    <glyph glyph-name="uni1EBD" unicode="&#x1ebd;" horiz-adv-x="434" 
d="M276 633c45 1 74 42 74 85c0 15 -5 23 -17 23c-11 0 -17 -8 -17 -23c0 -46 -12 -65 -40 -65c-50 0 -53 88 -118 88c-45 0 -75 -42 -75 -85c0 -15 5 -23 17 -23c11 0 17 8 17 23c0 46 12 65 40 65c50 0 55 -89 119 -88zM389 230c0 4 3 7 8 7s7 -3 7 -7
c0 -142 -65 -244 -181 -244c-130 0 -203 128 -203 248v57c0 164 98 249 201 249c98 0 183 -93 183 -208v-19c0 -10 -6 -17 -19 -17l-270 -2c-13 0 -20 -7 -20 -17v-64c0 -108 50 -199 136 -199c103 0 158 118 158 216zM115 314l195 1c13 0 19 7 19 17
c0 125 -49 187 -114 187c-73 0 -120 -74 -120 -167v-21c0 -10 7 -17 20 -17z" />
    <glyph glyph-name="f" unicode="f" horiz-adv-x="367" 
d="M226 750c58 0 101 -42 101 -122c0 -5 -1 -9 -6 -9c-6 0 -7 5 -7 9c0 60 -29 102 -75 102c-54 0 -80 -45 -80 -128v-69c0 -10 6 -17 19 -17h101c5 0 9 -2 9 -8s-5 -7 -9 -7h-101c-13 0 -19 -7 -19 -17v-428c0 -26 14 -43 50 -44l26 -1c6 0 8 -4 8 -8c0 -3 -2 -7 -8 -7
c-13 0 -71 4 -107 4c-37 0 -61 -4 -97 -4c-6 0 -9 4 -9 7c0 4 3 8 8 8l20 1c31 2 43 21 43 44l1 431c0 8 -7 14 -19 14h-40c-4 0 -9 1 -9 7s4 8 9 8h40c12 0 19 6 19 15v60c0 98 42 159 132 159z" />
    <glyph glyph-name="g" unicode="g" horiz-adv-x="474" 
d="M249 -5c111 -1 194 -53 193 -141c-1 -86 -65 -135 -181 -135c-113 0 -186 67 -186 153c0 26 7 58 23 77c-48 16 -78 42 -78 85c0 42 27 66 45 75c12 6 11 11 3 25c-24 42 -33 96 -33 147c0 121 50 252 199 248c73 -2 122 -35 152 -81c25 19 33 31 33 49c0 8 -7 13 -17 16
c-12 3 -29 12 -29 37c0 20 15 38 36 38c23 0 40 -17 40 -50c0 -49 -29 -82 -56 -102c27 -46 37 -103 37 -155c0 -101 -44 -242 -191 -242c-52 0 -87 17 -128 48c-7 5 -11 7 -19 7c-16 0 -38 -19 -38 -44c0 -69 114 -54 195 -55zM233 511c-97 0 -123 -123 -123 -229
c0 -80 4 -225 127 -225c118 0 118 145 118 225c0 106 -20 229 -122 229zM263 -261c71 -1 120 36 120 93c0 58 -39 99 -144 100c-48 0 -93 4 -128 14c-12 -19 -19 -47 -19 -69c0 -77 65 -136 171 -138z" />
    <glyph glyph-name="gbreve" unicode="&#x11f;" horiz-adv-x="474" 
d="M234 652c-61 0 -106 42 -106 101c0 6 4 10 9 10s9 -4 9 -10c0 -43 35 -80 88 -80c51 0 86 37 86 80c0 6 4 9 9 9s8 -3 8 -9c0 -60 -43 -101 -103 -101zM249 -5c111 -1 194 -53 193 -141c-1 -86 -65 -135 -181 -135c-113 0 -186 67 -186 153c0 26 7 58 23 77
c-48 16 -78 42 -78 85c0 42 27 66 45 75c12 6 11 11 3 25c-24 42 -33 96 -33 147c0 121 50 252 199 248c73 -2 122 -35 152 -81c25 19 33 31 33 49c0 8 -7 13 -17 16c-12 3 -29 12 -29 37c0 20 15 38 36 38c23 0 40 -17 40 -50c0 -49 -29 -82 -56 -102
c27 -46 37 -103 37 -155c0 -101 -44 -242 -191 -242c-52 0 -87 17 -128 48c-7 5 -11 7 -19 7c-16 0 -38 -19 -38 -44c0 -69 114 -54 195 -55zM233 511c-97 0 -123 -123 -123 -229c0 -80 4 -225 127 -225c118 0 118 145 118 225c0 106 -20 229 -122 229zM263 -261
c71 -1 120 36 120 93c0 58 -39 99 -144 100c-48 0 -93 4 -128 14c-12 -19 -19 -47 -19 -69c0 -77 65 -136 171 -138z" />
    <glyph glyph-name="gcaron" unicode="&#x1e7;" horiz-adv-x="474" 
d="M205 640l-107 147c-7 10 2 15 8 9l121 -125c2 -2 4 -3 6 -3s4 1 6 3l121 125c6 6 17 3 8 -9l-107 -147c-8 -11 -18 -15 -28 -15s-20 4 -28 15zM249 -5c111 -1 194 -53 193 -141c-1 -86 -65 -135 -181 -135c-113 0 -186 67 -186 153c0 26 7 58 23 77c-48 16 -78 42 -78 85
c0 42 27 66 45 75c12 6 11 11 3 25c-24 42 -33 96 -33 147c0 121 50 252 199 248c73 -2 122 -35 152 -81c25 19 33 31 33 49c0 8 -7 13 -17 16c-12 3 -29 12 -29 37c0 20 15 38 36 38c23 0 40 -17 40 -50c0 -49 -29 -82 -56 -102c27 -46 37 -103 37 -155
c0 -101 -44 -242 -191 -242c-52 0 -87 17 -128 48c-7 5 -11 7 -19 7c-16 0 -38 -19 -38 -44c0 -69 114 -54 195 -55zM233 511c-97 0 -123 -123 -123 -229c0 -80 4 -225 127 -225c118 0 118 145 118 225c0 106 -20 229 -122 229zM263 -261c71 -1 120 36 120 93
c0 58 -39 99 -144 100c-48 0 -93 4 -128 14c-12 -19 -19 -47 -19 -69c0 -77 65 -136 171 -138z" />
    <glyph glyph-name="uni0123" unicode="&#x123;" horiz-adv-x="474" 
d="M217 609c-27 0 -46 22 -46 62c0 76 71 139 126 139c7 0 10 -3 10 -7s-3 -7 -9 -7c-38 0 -90 -42 -90 -78c0 -17 11 -21 23 -26c13 -5 28 -18 28 -41c0 -22 -17 -42 -42 -42zM249 -5c111 -1 194 -53 193 -141c-1 -86 -65 -135 -181 -135c-113 0 -186 67 -186 153
c0 26 7 58 23 77c-48 16 -78 42 -78 85c0 42 27 66 45 75c12 6 11 11 3 25c-24 42 -33 96 -33 147c0 121 50 252 199 248c73 -2 122 -35 152 -81c25 19 33 31 33 49c0 8 -7 13 -17 16c-12 3 -29 12 -29 37c0 20 15 38 36 38c23 0 40 -17 40 -50c0 -49 -29 -82 -56 -102
c27 -46 37 -103 37 -155c0 -101 -44 -242 -191 -242c-52 0 -87 17 -128 48c-7 5 -11 7 -19 7c-16 0 -38 -19 -38 -44c0 -69 114 -54 195 -55zM233 511c-97 0 -123 -123 -123 -229c0 -80 4 -225 127 -225c118 0 118 145 118 225c0 106 -20 229 -122 229zM263 -261
c71 -1 120 36 120 93c0 58 -39 99 -144 100c-48 0 -93 4 -128 14c-12 -19 -19 -47 -19 -69c0 -77 65 -136 171 -138z" />
    <glyph glyph-name="gdotaccent" unicode="&#x121;" horiz-adv-x="474" 
d="M233 653c-17 0 -32 17 -32 37c0 21 14 38 32 38s32 -17 32 -38c0 -20 -14 -37 -32 -37zM249 -5c111 -1 194 -53 193 -141c-1 -86 -65 -135 -181 -135c-113 0 -186 67 -186 153c0 26 7 58 23 77c-48 16 -78 42 -78 85c0 42 27 66 45 75c12 6 11 11 3 25
c-24 42 -33 96 -33 147c0 121 50 252 199 248c73 -2 122 -35 152 -81c25 19 33 31 33 49c0 8 -7 13 -17 16c-12 3 -29 12 -29 37c0 20 15 38 36 38c23 0 40 -17 40 -50c0 -49 -29 -82 -56 -102c27 -46 37 -103 37 -155c0 -101 -44 -242 -191 -242c-52 0 -87 17 -128 48
c-7 5 -11 7 -19 7c-16 0 -38 -19 -38 -44c0 -69 114 -54 195 -55zM233 511c-97 0 -123 -123 -123 -229c0 -80 4 -225 127 -225c118 0 118 145 118 225c0 106 -20 229 -122 229zM263 -261c71 -1 120 36 120 93c0 58 -39 99 -144 100c-48 0 -93 4 -128 14
c-12 -19 -19 -47 -19 -69c0 -77 65 -136 171 -138z" />
    <glyph glyph-name="h" unicode="h" horiz-adv-x="576" 
d="M472 56c0 -23 13 -41 44 -43l13 -1c5 0 8 -4 8 -8c0 -3 -3 -7 -9 -7c-24 0 -47 3 -84 3c-36 0 -105 -4 -118 -4c-6 0 -8 4 -8 7c0 4 2 8 8 8l26 1c36 1 50 18 50 44v298c0 98 -20 155 -91 155c-87 0 -139 -109 -139 -221v-232c0 -26 14 -43 50 -44l26 -1c6 0 8 -4 8 -8
c0 -3 -2 -7 -8 -7c-13 0 -76 4 -112 4c-37 0 -69 -4 -105 -4c-6 0 -9 4 -9 7c0 4 3 8 8 8h28c31 0 44 22 44 45v560c0 61 -43 67 -64 72c-4 1 -8 3 -7 8c1 4 4 6 9 5c6 -1 26 -3 32 -3c41 0 70 12 87 62h13v-319h6c29 55 74 90 139 90c84 0 155 -60 155 -193v-282z" />
    <glyph glyph-name="hbar" unicode="&#x127;" horiz-adv-x="576" 
d="M529 12c5 0 8 -4 8 -8c0 -3 -3 -7 -9 -7c-24 0 -47 3 -84 3c-36 0 -105 -4 -118 -4c-6 0 -8 4 -8 7c0 4 2 8 8 8l26 1c36 1 50 18 50 44v298c0 98 -20 155 -91 155c-87 0 -139 -109 -139 -221v-232c0 -26 14 -43 50 -44l26 -1c6 0 8 -4 8 -8c0 -3 -2 -7 -8 -7
c-13 0 -76 4 -112 4c-37 0 -69 -4 -105 -4c-6 0 -9 4 -9 7c0 4 3 8 8 8h28c31 0 44 22 44 45v545h-84c-6 0 -12 -1 -15 6c-2 4 3 9 8 9h91c0 61 -43 67 -64 72c-4 1 -8 3 -7 8c1 4 4 6 9 5c6 -1 26 -3 32 -3c41 0 70 12 87 62h13v-144h125c7 0 12 1 15 -6c2 -4 -2 -8 -8 -9
h-132v-160h6c29 55 74 90 139 90c84 0 155 -60 155 -193v-282c0 -23 13 -41 44 -43z" />
    <glyph glyph-name="uni1E25" unicode="&#x1e25;" horiz-adv-x="576" 
d="M472 56c0 -23 13 -41 44 -43l13 -1c5 0 8 -4 8 -8c0 -3 -3 -7 -9 -7c-24 0 -47 3 -84 3c-36 0 -105 -4 -118 -4c-6 0 -8 4 -8 7c0 4 2 8 8 8l26 1c36 1 50 18 50 44v298c0 98 -20 155 -91 155c-87 0 -139 -109 -139 -221v-232c0 -26 14 -43 50 -44l26 -1c6 0 8 -4 8 -8
c0 -3 -2 -7 -8 -7c-13 0 -76 4 -112 4c-37 0 -69 -4 -105 -4c-6 0 -9 4 -9 7c0 4 3 8 8 8h28c31 0 44 22 44 45v560c0 61 -43 67 -64 72c-4 1 -8 3 -7 8c1 4 4 6 9 5c6 -1 26 -3 32 -3c41 0 70 12 87 62h13v-319h6c29 55 74 90 139 90c84 0 155 -60 155 -193v-282zM239 -76
c0 21 14 38 32 38s32 -17 32 -38c0 -20 -14 -37 -32 -37c-17 0 -32 17 -32 37z" />
    <glyph glyph-name="i" unicode="i" horiz-adv-x="262" 
d="M128 573c-26 0 -43 29 -43 52c0 24 17 52 43 52c25 0 42 -28 42 -52c0 -23 -17 -52 -42 -52zM97 55v341c0 61 -31 65 -62 73c-4 1 -8 3 -7 8c1 4 4 6 9 5c9 -2 17 -4 26 -4c40 0 83 18 91 47h13v-469c0 -26 14 -43 50 -44l26 -1c6 0 8 -4 8 -8c0 -3 -2 -7 -8 -7
c-13 0 -82 4 -112 4c-43 0 -70 -4 -106 -4c-6 0 -9 4 -9 7c0 4 3 8 8 8l30 1c31 1 43 15 43 43z" />
    <glyph glyph-name="dotlessi" unicode="&#x131;" horiz-adv-x="262" 
d="M97 55v341c0 61 -31 65 -62 73c-4 1 -8 3 -7 8c1 4 4 6 9 5c9 -2 17 -4 26 -4c40 0 83 18 91 47h13v-469c0 -26 14 -43 50 -44l26 -1c6 0 8 -4 8 -8c0 -3 -2 -7 -8 -7c-13 0 -82 4 -112 4c-43 0 -70 -4 -106 -4c-6 0 -9 4 -9 7c0 4 3 8 8 8l30 1c31 1 43 15 43 43z" />
    <glyph glyph-name="iacute" unicode="&#xed;" horiz-adv-x="248" 
d="M69 593l106 121c8 8 15 12 24 12c11 0 19 -10 19 -22c0 -7 -3 -14 -12 -20l-131 -99c-5 -4 -11 3 -6 8zM99 396c0 61 -31 65 -62 73c-4 1 -8 3 -7 8c1 4 4 6 9 5c9 -2 17 -4 26 -4c40 0 83 18 91 47h13v-504l76 -6c5 -1 11 -2 11 -8c0 -7 -7 -7 -11 -7h-219
c-4 0 -9 1 -9 7s4 8 9 8c41 0 73 0 73 46v335z" />
    <glyph glyph-name="uni01D0" unicode="&#x1d0;" horiz-adv-x="262" 
d="M124 603l-95 98c-5 5 -12 1 -7 -7l84 -115c7 -9 15 -12 22 -12c8 0 16 3 22 12l84 115c8 10 -1 12 -6 7l-95 -98c-1 -1 -3 -2 -5 -2c-1 0 -3 1 -4 2zM97 55v341c0 61 -31 65 -62 73c-4 1 -8 3 -7 8c1 4 4 6 9 5c9 -2 17 -4 26 -4c40 0 83 18 91 47h13v-469
c0 -26 14 -43 50 -44l26 -1c6 0 8 -4 8 -8c0 -3 -2 -7 -8 -7c-13 0 -82 4 -112 4c-43 0 -70 -4 -106 -4c-6 0 -9 4 -9 7c0 4 3 8 8 8l30 1c31 1 43 15 43 43z" />
    <glyph glyph-name="icircumflex" unicode="&#xee;" horiz-adv-x="271" 
d="M123 660c1 1 3 2 4 2c2 0 4 -1 5 -2l95 -98c5 -5 14 -3 6 7l-84 115c-6 9 -14 12 -22 12c-7 0 -15 -3 -22 -12l-84 -115c-5 -8 2 -12 7 -7zM98 396c0 61 -31 65 -62 73c-4 1 -8 3 -7 8c1 4 4 6 9 5c9 -2 17 -4 26 -4c40 0 83 18 91 47h13v-470c0 -26 13 -44 49 -45l26 -1
c6 0 8 -4 8 -8c0 -3 -2 -7 -8 -7c-13 0 -82 5 -112 6c-43 0 -70 -3 -106 -3c-6 0 -9 4 -9 7c0 4 3 8 8 8l30 1c31 1 44 14 44 42v341z" />
    <glyph glyph-name="idieresis" unicode="&#xef;" horiz-adv-x="290" 
d="M16 650c0 28 18 50 43 50c24 0 41 -22 41 -50c0 -26 -17 -49 -41 -49c-23 0 -42 23 -43 49zM215 650c0 28 19 50 43 50s41 -22 41 -50c0 -26 -17 -49 -41 -49c-23 0 -42 23 -43 49zM130 396c0 61 -31 65 -62 73c-4 1 -8 3 -7 8c1 4 4 6 9 5c9 -2 17 -4 26 -4
c40 0 83 18 91 47h13v-470c0 -26 13 -44 49 -45l26 -1c6 0 8 -4 8 -8c0 -3 -2 -7 -8 -7c-13 0 -82 5 -112 6c-43 0 -70 -3 -106 -3c-6 0 -9 4 -9 7c0 4 3 8 8 8l30 1c31 1 44 14 44 42v341z" />
    <glyph glyph-name="i.loclTRK" horiz-adv-x="262" 
d="M128 573c-26 0 -43 29 -43 52c0 24 17 52 43 52c25 0 42 -28 42 -52c0 -23 -17 -52 -42 -52zM97 55v341c0 61 -31 65 -62 73c-4 1 -8 3 -7 8c1 4 4 6 9 5c9 -2 17 -4 26 -4c40 0 83 18 91 47h13v-469c0 -26 14 -43 50 -44l26 -1c6 0 8 -4 8 -8c0 -3 -2 -7 -8 -7
c-13 0 -82 4 -112 4c-43 0 -70 -4 -106 -4c-6 0 -9 4 -9 7c0 4 3 8 8 8l30 1c31 1 43 15 43 43z" />
    <glyph glyph-name="uni1ECB" unicode="&#x1ecb;" horiz-adv-x="262" 
d="M128 573c-26 0 -43 29 -43 52c0 24 17 52 43 52c25 0 42 -28 42 -52c0 -23 -17 -52 -42 -52zM97 55v341c0 61 -31 65 -62 73c-4 1 -8 3 -7 8c1 4 4 6 9 5c9 -2 17 -4 26 -4c40 0 83 18 91 47h13v-469c0 -26 14 -43 50 -44l26 -1c6 0 8 -4 8 -8c0 -3 -2 -7 -8 -7
c-13 0 -82 4 -112 4c-43 0 -70 -4 -106 -4c-6 0 -9 4 -9 7c0 4 3 8 8 8l30 1c31 1 43 15 43 43zM99 -76c0 21 14 38 32 38s32 -17 32 -38c0 -20 -14 -37 -32 -37c-17 0 -32 17 -32 37z" />
    <glyph glyph-name="igrave" unicode="&#xec;" horiz-adv-x="260" 
d="M182 593c5 -5 -1 -12 -6 -8l-131 99c-9 6 -12 13 -12 20c0 12 8 22 19 22c9 0 16 -4 24 -12zM98 396c0 61 -31 65 -62 73c-4 1 -8 3 -7 8c1 4 4 6 9 5c9 -2 17 -4 26 -4c40 0 83 18 91 47h13v-504l76 -6c5 -1 11 -2 11 -8c0 -7 -7 -7 -11 -7h-219c-4 0 -9 1 -9 7s4 8 9 8
c41 0 73 0 73 46v335z" />
    <glyph glyph-name="uni1EC9" unicode="&#x1ec9;" horiz-adv-x="262" 
d="M100 592c-20 0 -37 15 -37 37c0 23 16 46 57 46c46 0 79 -33 79 -70c0 -14 -4 -27 -10 -40c-3 -7 -5 -9 -9 -9s-8 3 -6 9c4 12 7 24 7 33c0 22 -10 37 -23 37c-15 0 -19 -9 -23 -20c-5 -11 -15 -23 -35 -23zM97 55v341c0 61 -31 65 -62 73c-4 1 -8 3 -7 8c1 4 4 6 9 5
c9 -2 17 -4 26 -4c40 0 83 18 91 47h13v-469c0 -26 14 -43 50 -44l26 -1c6 0 8 -4 8 -8c0 -3 -2 -7 -8 -7c-13 0 -82 4 -112 4c-43 0 -70 -4 -106 -4c-6 0 -9 4 -9 7c0 4 3 8 8 8l30 1c31 1 43 15 43 43z" />
    <glyph glyph-name="imacron" unicode="&#x12b;" horiz-adv-x="257" 
d="M223 629c6 0 9 5 9 9s-3 9 -9 9h-199c-6 0 -9 -5 -9 -9s3 -9 9 -9h199zM99 396c0 61 -31 65 -62 73c-4 1 -8 3 -7 8c1 4 4 6 9 5c9 -2 17 -4 26 -4c40 0 83 18 91 47h13v-504l76 -6c5 -1 11 -2 11 -8c0 -7 -7 -7 -11 -7h-219c-4 0 -9 1 -9 7s4 8 9 8c41 0 73 0 73 46v335
z" />
    <glyph glyph-name="iogonek" unicode="&#x12f;" horiz-adv-x="262" 
d="M128 573c-26 0 -43 29 -43 52c0 24 17 52 43 52c25 0 42 -28 42 -52c0 -23 -17 -52 -42 -52zM261 -95c3 0 6 -3 6 -6c0 -4 -4 -7 -9 -12c-14 -12 -33 -23 -56 -23c-27 0 -52 20 -52 52c0 23 10 40 26 54l-1 1c8 8 14 12 13 19s-8 8 -19 9c-15 1 -28 1 -38 1
c-43 0 -70 -4 -106 -4c-6 0 -9 4 -9 7c0 4 3 8 8 8l30 1c31 1 43 15 43 43v341c0 61 -31 65 -62 73c-4 1 -8 3 -7 8c1 4 4 6 9 5c9 -2 17 -4 26 -4c40 0 83 18 91 47h13v-469c0 -26 14 -43 50 -44l26 -1c2 0 4 -1 5 -2c1 1 1 1 2 1c5 2 10 -2 10 -7s-4 -7 -9 -9
c-60 -23 -80 -50 -80 -77c0 -23 20 -34 36 -34c17 0 30 8 39 14c6 4 11 8 15 8zM213 -3l1 -3c1 1 3 2 5 3h-6z" />
    <glyph glyph-name="itilde" unicode="&#x129;" horiz-adv-x="262" 
d="M189 587c45 1 74 42 74 85c0 15 -5 23 -17 23c-11 0 -17 -8 -17 -23c0 -46 -12 -65 -40 -65c-50 0 -53 88 -118 88c-45 0 -75 -42 -75 -85c0 -15 5 -23 17 -23c11 0 17 8 17 23c0 46 12 65 40 65c50 0 55 -89 119 -88zM97 55v341c0 61 -31 65 -62 73c-4 1 -8 3 -7 8
c1 4 4 6 9 5c9 -2 17 -4 26 -4c40 0 83 18 91 47h13v-469c0 -26 14 -43 50 -44l26 -1c6 0 8 -4 8 -8c0 -3 -2 -7 -8 -7c-13 0 -82 4 -112 4c-43 0 -70 -4 -106 -4c-6 0 -9 4 -9 7c0 4 3 8 8 8l30 1c31 1 43 15 43 43z" />
    <glyph glyph-name="j" unicode="j" horiz-adv-x="236" 
d="M133 573c-26 0 -43 29 -43 52c0 24 17 52 43 52c25 0 42 -28 42 -52c0 -23 -17 -52 -42 -52zM106 396c0 61 -31 65 -62 73c-4 1 -8 3 -7 8c1 4 4 6 9 5c9 -2 17 -4 26 -4c40 0 83 18 91 47h13v-617c0 -186 -61 -215 -173 -215c-6 0 -11 0 -12 5s2 10 8 10
c38 0 127 -4 127 103c0 86 -20 110 -20 216v369z" />
    <glyph glyph-name="k" unicode="k" horiz-adv-x="540" 
d="M511 13l20 -2c6 -1 8 -4 8 -8c0 -3 -2 -7 -8 -7c-13 0 -91 4 -127 4c-37 0 -57 -5 -98 -5c-6 0 -9 4 -9 7c0 4 3 8 8 8l28 2c12 1 34 2 34 25c0 6 -1 14 -8 24l-146 216l-41 -49l-2 -169c0 -35 11 -45 31 -46l30 -2c6 0 8 -4 8 -8c0 -3 -2 -7 -8 -7c-13 0 -50 4 -96 4
c-47 0 -84 -4 -97 -4c-6 0 -8 4 -8 7c0 4 2 8 8 8l30 2c21 1 32 11 32 46v537c0 61 -30 65 -61 73c-4 1 -8 3 -7 8c1 4 4 6 9 5c9 -2 17 -4 26 -4c40 0 84 23 91 82h12v-489h7l165 188c22 25 17 39 -27 42l-46 3c-5 0 -8 4 -8 8c0 3 3 7 9 7c41 0 61 -5 98 -5
c36 0 105 4 118 4c6 0 8 -4 8 -7c0 -4 -2 -8 -8 -8l-13 -1c-53 -4 -79 -18 -115 -59l-98 -113l182 -286c15 -23 31 -27 69 -31z" />
    <glyph glyph-name="uni0137" unicode="&#x137;" horiz-adv-x="540" 
d="M511 13l20 -2c6 -1 8 -4 8 -8c0 -3 -2 -7 -8 -7c-13 0 -91 4 -127 4c-37 0 -57 -5 -98 -5c-6 0 -9 4 -9 7c0 4 3 8 8 8l28 2c12 1 34 2 34 25c0 6 -1 14 -8 24l-146 216l-41 -49l-2 -169c0 -35 11 -45 31 -46l30 -2c6 0 8 -4 8 -8c0 -3 -2 -7 -8 -7c-13 0 -50 4 -96 4
c-47 0 -84 -4 -97 -4c-6 0 -8 4 -8 7c0 4 2 8 8 8l30 2c21 1 32 11 32 46v537c0 61 -30 65 -61 73c-4 1 -8 3 -7 8c1 4 4 6 9 5c9 -2 17 -4 26 -4c40 0 84 23 91 82h12v-489h7l165 188c22 25 17 39 -27 42l-46 3c-5 0 -8 4 -8 8c0 3 3 7 9 7c41 0 61 -5 98 -5
c36 0 105 4 118 4c6 0 8 -4 8 -7c0 -4 -2 -8 -8 -8l-13 -1c-53 -4 -79 -18 -115 -59l-98 -113l182 -286c15 -23 31 -27 69 -31zM210 -75c0 22 17 42 42 42c27 0 46 -22 46 -62c0 -76 -71 -139 -126 -139c-7 0 -10 3 -10 7s3 7 9 7c38 0 90 42 90 78c0 17 -11 21 -23 26
c-13 5 -28 18 -28 41z" />
    <glyph glyph-name="l" unicode="l" horiz-adv-x="261" 
d="M203 13l30 -2c6 0 8 -4 8 -8c0 -3 -2 -7 -8 -7c-13 0 -50 4 -96 4s-83 -4 -96 -4c-6 0 -8 4 -8 7c0 4 2 8 8 8l30 2c21 1 31 11 31 46l1 537c0 61 -31 64 -62 72c-4 1 -8 4 -7 9c1 4 4 6 9 5c9 -2 17 -4 26 -4c40 0 85 23 92 82h13l-1 -701c0 -35 10 -45 30 -46z" />
    <glyph glyph-name="lacute" unicode="&#x13a;" horiz-adv-x="261" 
d="M42 810l127 147c9 10 18 14 28 14c13 0 23 -12 23 -26c0 -8 -4 -17 -14 -24l-156 -120c-6 -5 -14 3 -8 9zM203 13l30 -2c6 0 8 -4 8 -8c0 -3 -2 -7 -8 -7c-13 0 -50 4 -96 4s-83 -4 -96 -4c-6 0 -8 4 -8 7c0 4 2 8 8 8l30 2c21 1 31 11 31 46l1 537c0 61 -31 64 -62 72
c-4 1 -8 4 -7 9c1 4 4 6 9 5c9 -2 17 -4 26 -4c40 0 85 23 92 82h13l-1 -701c0 -35 10 -45 30 -46z" />
    <glyph glyph-name="lcaron" unicode="&#x13e;" horiz-adv-x="261" 
d="M124 852l-121 125c-6 6 -15 1 -8 -9l107 -147c8 -11 18 -15 28 -15s20 4 28 15l107 147c9 12 -2 15 -8 9l-121 -125c-2 -2 -4 -3 -6 -3s-4 1 -6 3zM203 13l30 -2c6 0 8 -4 8 -8c0 -3 -2 -7 -8 -7c-13 0 -50 4 -96 4s-83 -4 -96 -4c-6 0 -8 4 -8 7c0 4 2 8 8 8l30 2
c21 1 31 11 31 46l1 537c0 61 -31 64 -62 72c-4 1 -8 4 -7 9c1 4 4 6 9 5c9 -2 17 -4 26 -4c40 0 85 23 92 82h13l-1 -701c0 -35 10 -45 30 -46z" />
    <glyph glyph-name="uni013C" unicode="&#x13c;" horiz-adv-x="261" 
d="M203 13l30 -2c6 0 8 -4 8 -8c0 -3 -2 -7 -8 -7c-13 0 -50 4 -96 4s-83 -4 -96 -4c-6 0 -8 4 -8 7c0 4 2 8 8 8l30 2c21 1 31 11 31 46l1 537c0 61 -31 64 -62 72c-4 1 -8 4 -7 9c1 4 4 6 9 5c9 -2 17 -4 26 -4c40 0 85 23 92 82h13l-1 -701c0 -35 10 -45 30 -46zM97 -75
c0 22 17 42 42 42c27 0 46 -22 46 -62c0 -76 -71 -139 -126 -139c-7 0 -10 3 -10 7s3 7 9 7c38 0 90 42 90 78c0 17 -11 21 -23 26c-13 5 -28 18 -28 41z" />
    <glyph glyph-name="uni1E37" unicode="&#x1e37;" horiz-adv-x="261" 
d="M203 13l30 -2c6 0 8 -4 8 -8c0 -3 -2 -7 -8 -7c-13 0 -50 4 -96 4s-83 -4 -96 -4c-6 0 -8 4 -8 7c0 4 2 8 8 8l30 2c21 1 31 11 31 46l1 537c0 61 -31 64 -62 72c-4 1 -8 4 -7 9c1 4 4 6 9 5c9 -2 17 -4 26 -4c40 0 85 23 92 82h13l-1 -701c0 -35 10 -45 30 -46zM111 -76
c0 21 14 38 32 38s32 -17 32 -38c0 -20 -14 -37 -32 -37c-17 0 -32 17 -32 37z" />
    <glyph glyph-name="lslash" unicode="&#x142;" horiz-adv-x="289" 
d="M296 471c4 -4 4 -8 -2 -13l-109 -59v-340c0 -35 10 -45 30 -46l30 -2c6 0 8 -4 8 -8c0 -3 -2 -7 -8 -7c-13 0 -50 4 -96 4s-83 -4 -96 -4c-6 0 -8 4 -8 7c0 4 2 8 8 8l30 2c21 1 31 11 31 46l1 301l-97 -53c-6 -3 -11 -7 -15 -3s-4 10 2 13l110 60v219
c0 61 -31 64 -62 72c-4 1 -8 4 -7 9c1 4 4 6 9 5c9 -2 17 -4 26 -4c40 0 85 23 92 82h13v-344l95 52c5 4 11 7 15 3z" />
    <glyph glyph-name="m" unicode="m" horiz-adv-x="828" 
d="M379 59c0 -35 -11 -45 -32 -46l-30 -2c-6 0 -8 -4 -8 -8c0 -3 2 -7 8 -7c13 0 50 4 96 4s83 -4 96 -4c6 0 8 4 8 7c0 4 -2 8 -8 8l-30 2c-20 1 -30 11 -30 46v239c0 109 49 223 122 223c66 0 91 -59 91 -157v-308c0 -23 -13 -43 -44 -45l-28 -2c-5 0 -8 -3 -8 -7
c0 -3 3 -7 9 -7c36 0 63 5 100 5c36 0 87 -4 100 -4c6 0 8 4 8 7c0 4 -2 7 -8 8l-9 1c-36 4 -50 18 -50 44v292c0 133 -76 193 -155 193c-56 0 -102 -40 -134 -108h-6c-25 74 -82 108 -142 108c-52 0 -95 -34 -123 -90h-6v74h-13c-24 -46 -83 -78 -133 -78c-5 0 -9 -2 -9 -7
s5 -7 13 -7c27 0 44 5 58 5c9 0 13 -7 13 -18l1 -364c0 -23 -13 -43 -44 -45l-26 -2c-5 0 -8 -3 -8 -7c0 -3 3 -7 9 -7c36 0 61 5 98 5c36 0 104 -4 117 -4c6 0 8 4 8 7c0 4 -2 8 -8 8l-26 1c-36 1 -50 18 -50 44v242c0 112 49 223 123 223c67 0 90 -59 90 -157v-305z" />
    <glyph glyph-name="uni1E3F" unicode="&#x1e3f;" horiz-adv-x="828" 
d="M322 565l127 147c9 10 18 14 28 14c13 0 23 -12 23 -26c0 -8 -4 -17 -14 -24l-156 -120c-6 -5 -14 3 -8 9zM379 59c0 -35 -11 -45 -32 -46l-30 -2c-6 0 -8 -4 -8 -8c0 -3 2 -7 8 -7c13 0 50 4 96 4s83 -4 96 -4c6 0 8 4 8 7c0 4 -2 8 -8 8l-30 2c-20 1 -30 11 -30 46v239
c0 109 49 223 122 223c66 0 91 -59 91 -157v-308c0 -23 -13 -43 -44 -45l-28 -2c-5 0 -8 -3 -8 -7c0 -3 3 -7 9 -7c36 0 63 5 100 5c36 0 87 -4 100 -4c6 0 8 4 8 7c0 4 -2 7 -8 8l-9 1c-36 4 -50 18 -50 44v292c0 133 -76 193 -155 193c-56 0 -102 -40 -134 -108h-6
c-25 74 -82 108 -142 108c-52 0 -95 -34 -123 -90h-6v74h-13c-24 -46 -83 -78 -133 -78c-5 0 -9 -2 -9 -7s5 -7 13 -7c27 0 44 5 58 5c9 0 13 -7 13 -18l1 -364c0 -23 -13 -43 -44 -45l-26 -2c-5 0 -8 -3 -8 -7c0 -3 3 -7 9 -7c36 0 61 5 98 5c36 0 104 -4 117 -4
c6 0 8 4 8 7c0 4 -2 8 -8 8l-26 1c-36 1 -50 18 -50 44v242c0 112 49 223 123 223c67 0 90 -59 90 -157v-305z" />
    <glyph glyph-name="n" unicode="n" horiz-adv-x="537" 
d="M462 56c0 -23 13 -42 44 -44l13 -1c5 0 8 -4 8 -8c0 -3 -3 -7 -9 -7c-24 0 -47 4 -84 4c-36 0 -105 -4 -118 -4c-6 0 -8 4 -8 7c0 4 2 8 8 8l26 1c36 1 50 18 50 44v308c0 98 -32 154 -98 154c-77 0 -129 -98 -129 -220v-242c0 -26 14 -43 50 -44l26 -1c6 0 8 -4 8 -8
c0 -3 -2 -7 -8 -7c-13 0 -82 4 -118 4c-37 0 -63 -4 -99 -4c-6 0 -9 4 -9 7c0 4 3 8 8 8h28c31 0 44 22 44 45l-1 364c0 11 -4 18 -13 18c-14 0 -31 -5 -58 -5c-8 0 -13 2 -13 7s4 7 9 7c50 0 109 32 133 78h13v-74h6c29 55 77 87 128 87c79 0 163 -57 163 -190v-292z" />
    <glyph glyph-name="nacute" unicode="&#x144;" horiz-adv-x="537" 
d="M181 581l127 147c9 10 18 14 28 14c13 0 23 -12 23 -26c0 -8 -4 -17 -14 -24l-156 -120c-6 -5 -14 3 -8 9zM462 56c0 -23 13 -42 44 -44l13 -1c5 0 8 -4 8 -8c0 -3 -3 -7 -9 -7c-24 0 -47 4 -84 4c-36 0 -105 -4 -118 -4c-6 0 -8 4 -8 7c0 4 2 8 8 8l26 1
c36 1 50 18 50 44v308c0 98 -32 154 -98 154c-77 0 -129 -98 -129 -220v-242c0 -26 14 -43 50 -44l26 -1c6 0 8 -4 8 -8c0 -3 -2 -7 -8 -7c-13 0 -82 4 -118 4c-37 0 -63 -4 -99 -4c-6 0 -9 4 -9 7c0 4 3 8 8 8h28c31 0 44 22 44 45l-1 364c0 11 -4 18 -13 18
c-14 0 -31 -5 -58 -5c-8 0 -13 2 -13 7s4 7 9 7c50 0 109 32 133 78h13v-74h6c29 55 77 87 128 87c79 0 163 -57 163 -190v-292z" />
    <glyph glyph-name="ncaron" unicode="&#x148;" horiz-adv-x="537" 
d="M268 643l-121 125c-6 6 -15 1 -8 -9l107 -147c8 -11 18 -15 28 -15s20 4 28 15l107 147c9 12 -2 15 -8 9l-121 -125c-2 -2 -4 -3 -6 -3s-4 1 -6 3zM462 56c0 -23 13 -42 44 -44l13 -1c5 0 8 -4 8 -8c0 -3 -3 -7 -9 -7c-24 0 -47 4 -84 4c-36 0 -105 -4 -118 -4
c-6 0 -8 4 -8 7c0 4 2 8 8 8l26 1c36 1 50 18 50 44v308c0 98 -32 154 -98 154c-77 0 -129 -98 -129 -220v-242c0 -26 14 -43 50 -44l26 -1c6 0 8 -4 8 -8c0 -3 -2 -7 -8 -7c-13 0 -82 4 -118 4c-37 0 -63 -4 -99 -4c-6 0 -9 4 -9 7c0 4 3 8 8 8h28c31 0 44 22 44 45l-1 364
c0 11 -4 18 -13 18c-14 0 -31 -5 -58 -5c-8 0 -13 2 -13 7s4 7 9 7c50 0 109 32 133 78h13v-74h6c29 55 77 87 128 87c79 0 163 -57 163 -190v-292z" />
    <glyph glyph-name="uni0146" unicode="&#x146;" horiz-adv-x="537" 
d="M462 56c0 -23 13 -42 44 -44l13 -1c5 0 8 -4 8 -8c0 -3 -3 -7 -9 -7c-24 0 -47 4 -84 4c-36 0 -105 -4 -118 -4c-6 0 -8 4 -8 7c0 4 2 8 8 8l26 1c36 1 50 18 50 44v308c0 98 -32 154 -98 154c-77 0 -129 -98 -129 -220v-242c0 -26 14 -43 50 -44l26 -1c6 0 8 -4 8 -8
c0 -3 -2 -7 -8 -7c-13 0 -82 4 -118 4c-37 0 -63 -4 -99 -4c-6 0 -9 4 -9 7c0 4 3 8 8 8h28c31 0 44 22 44 45l-1 364c0 11 -4 18 -13 18c-14 0 -31 -5 -58 -5c-8 0 -13 2 -13 7s4 7 9 7c50 0 109 32 133 78h13v-74h6c29 55 77 87 128 87c79 0 163 -57 163 -190v-292z
M229 -75c0 22 17 42 42 42c27 0 46 -22 46 -62c0 -76 -71 -139 -126 -139c-7 0 -10 3 -10 7s3 7 9 7c38 0 90 42 90 78c0 17 -11 21 -23 26c-13 5 -28 18 -28 41z" />
    <glyph glyph-name="uni1E45" unicode="&#x1e45;" horiz-adv-x="537" 
d="M242 662c0 21 14 38 32 38s32 -17 32 -38c0 -20 -14 -37 -32 -37c-17 0 -32 17 -32 37zM462 56c0 -23 13 -42 44 -44l13 -1c5 0 8 -4 8 -8c0 -3 -3 -7 -9 -7c-24 0 -47 4 -84 4c-36 0 -105 -4 -118 -4c-6 0 -8 4 -8 7c0 4 2 8 8 8l26 1c36 1 50 18 50 44v308
c0 98 -32 154 -98 154c-77 0 -129 -98 -129 -220v-242c0 -26 14 -43 50 -44l26 -1c6 0 8 -4 8 -8c0 -3 -2 -7 -8 -7c-13 0 -82 4 -118 4c-37 0 -63 -4 -99 -4c-6 0 -9 4 -9 7c0 4 3 8 8 8h28c31 0 44 22 44 45l-1 364c0 11 -4 18 -13 18c-14 0 -31 -5 -58 -5
c-8 0 -13 2 -13 7s4 7 9 7c50 0 109 32 133 78h13v-74h6c29 55 77 87 128 87c79 0 163 -57 163 -190v-292z" />
    <glyph glyph-name="uni1E47" unicode="&#x1e47;" horiz-adv-x="537" 
d="M462 56c0 -23 13 -42 44 -44l13 -1c5 0 8 -4 8 -8c0 -3 -3 -7 -9 -7c-24 0 -47 4 -84 4c-36 0 -105 -4 -118 -4c-6 0 -8 4 -8 7c0 4 2 8 8 8l26 1c36 1 50 18 50 44v308c0 98 -32 154 -98 154c-77 0 -129 -98 -129 -220v-242c0 -26 14 -43 50 -44l26 -1c6 0 8 -4 8 -8
c0 -3 -2 -7 -8 -7c-13 0 -82 4 -118 4c-37 0 -63 -4 -99 -4c-6 0 -9 4 -9 7c0 4 3 8 8 8h28c31 0 44 22 44 45l-1 364c0 11 -4 18 -13 18c-14 0 -31 -5 -58 -5c-8 0 -13 2 -13 7s4 7 9 7c50 0 109 32 133 78h13v-74h6c29 55 77 87 128 87c79 0 163 -57 163 -190v-292z
M243 -76c0 21 14 38 32 38s32 -17 32 -38c0 -20 -14 -37 -32 -37c-17 0 -32 17 -32 37z" />
    <glyph glyph-name="eng" unicode="&#x14b;" horiz-adv-x="540" 
d="M463 33c0 -107 -54 -150 -146 -150c-6 0 -11 0 -12 5s2 10 8 10c18 0 100 6 100 93c0 86 -20 90 -20 196v177c0 98 -32 154 -98 154c-77 0 -129 -98 -129 -220v-242c0 -26 14 -43 50 -44l26 -1c6 0 8 -4 8 -8c0 -3 -2 -7 -8 -7c-13 0 -82 4 -118 4c-37 0 -63 -4 -99 -4
c-6 0 -9 4 -9 7c0 4 3 8 8 8h28c31 0 44 22 44 45l-1 364c0 11 -4 18 -13 18c-14 0 -31 -5 -58 -5c-8 0 -13 2 -13 7s4 7 9 7c50 0 109 32 133 78h13v-74h6c29 55 77 87 128 87c79 0 163 -57 163 -190v-315z" />
    <glyph glyph-name="ntilde" unicode="&#xf1;" horiz-adv-x="537" 
d="M333 603c45 1 74 42 74 85c0 15 -5 23 -17 23c-11 0 -17 -8 -17 -23c0 -46 -12 -65 -40 -65c-50 0 -53 88 -118 88c-45 0 -75 -42 -75 -85c0 -15 5 -23 17 -23c11 0 17 8 17 23c0 46 12 65 40 65c50 0 55 -89 119 -88zM462 56c0 -23 13 -42 44 -44l13 -1c5 0 8 -4 8 -8
c0 -3 -3 -7 -9 -7c-24 0 -47 4 -84 4c-36 0 -105 -4 -118 -4c-6 0 -8 4 -8 7c0 4 2 8 8 8l26 1c36 1 50 18 50 44v308c0 98 -32 154 -98 154c-77 0 -129 -98 -129 -220v-242c0 -26 14 -43 50 -44l26 -1c6 0 8 -4 8 -8c0 -3 -2 -7 -8 -7c-13 0 -82 4 -118 4
c-37 0 -63 -4 -99 -4c-6 0 -9 4 -9 7c0 4 3 8 8 8h28c31 0 44 22 44 45l-1 364c0 11 -4 18 -13 18c-14 0 -31 -5 -58 -5c-8 0 -13 2 -13 7s4 7 9 7c50 0 109 32 133 78h13v-74h6c29 55 77 87 128 87c79 0 163 -57 163 -190v-292z" />
    <glyph glyph-name="o" unicode="o" horiz-adv-x="426" 
d="M10 270c0 -177 90 -281 203 -281c124 0 203 119 203 281c0 160 -95 271 -203 271c-110 0 -203 -101 -203 -271zM85 213v110c0 86 40 198 128 198s127 -112 127 -198v-110c0 -89 -39 -204 -127 -204s-128 115 -128 204z" />
    <glyph glyph-name="oacute" unicode="&#xf3;" horiz-adv-x="426" 
d="M119 609l127 147c9 10 18 14 28 14c13 0 23 -12 23 -26c0 -8 -4 -17 -14 -24l-156 -120c-6 -5 -14 3 -8 9zM10 270c0 -177 90 -281 203 -281c124 0 203 119 203 281c0 160 -95 271 -203 271c-110 0 -203 -101 -203 -271zM85 213v110c0 86 40 198 128 198
s127 -112 127 -198v-110c0 -89 -39 -204 -127 -204s-128 115 -128 204z" />
    <glyph glyph-name="uni01D2" unicode="&#x1d2;" horiz-adv-x="426" 
d="M206 671l-121 125c-6 6 -15 1 -8 -9l107 -147c8 -11 18 -15 28 -15s20 4 28 15l107 147c9 12 -2 15 -8 9l-121 -125c-2 -2 -4 -3 -6 -3s-4 1 -6 3zM10 270c0 -177 90 -281 203 -281c124 0 203 119 203 281c0 160 -95 271 -203 271c-110 0 -203 -101 -203 -271zM85 213
v110c0 86 40 198 128 198s127 -112 127 -198v-110c0 -89 -39 -204 -127 -204s-128 115 -128 204z" />
    <glyph glyph-name="ocircumflex" unicode="&#xf4;" horiz-adv-x="426" 
d="M208 700c2 2 4 3 6 3s4 -1 6 -3l121 -125c6 -6 17 -3 8 9l-107 147c-8 11 -18 15 -28 15s-20 -4 -28 -15l-107 -147c-7 -10 2 -15 8 -9zM10 270c0 -177 90 -281 203 -281c124 0 203 119 203 281c0 160 -95 271 -203 271c-110 0 -203 -101 -203 -271zM85 213v110
c0 86 40 198 128 198s127 -112 127 -198v-110c0 -89 -39 -204 -127 -204s-128 115 -128 204z" />
    <glyph glyph-name="uni1ED1" unicode="&#x1ed1;" horiz-adv-x="426" 
d="M118 732l127 147c9 10 18 14 28 14c13 0 23 -12 23 -26c0 -8 -4 -17 -14 -24l-156 -120c-6 -5 -14 3 -8 9zM208 700c2 2 4 3 6 3s4 -1 6 -3l121 -125c6 -6 17 -3 8 9l-107 147c-8 11 -18 15 -28 15s-20 -4 -28 -15l-107 -147c-7 -10 2 -15 8 -9zM10 270
c0 -177 90 -281 203 -281c124 0 203 119 203 281c0 160 -95 271 -203 271c-110 0 -203 -101 -203 -271zM85 213v110c0 86 40 198 128 198s127 -112 127 -198v-110c0 -89 -39 -204 -127 -204s-128 115 -128 204z" />
    <glyph glyph-name="uni1ED9" unicode="&#x1ed9;" horiz-adv-x="426" 
d="M208 700c2 2 4 3 6 3s4 -1 6 -3l121 -125c6 -6 17 -3 8 9l-107 147c-8 11 -18 15 -28 15s-20 -4 -28 -15l-107 -147c-7 -10 2 -15 8 -9zM10 270c0 -177 90 -281 203 -281c124 0 203 119 203 281c0 160 -95 271 -203 271c-110 0 -203 -101 -203 -271zM85 213v110
c0 86 40 198 128 198s127 -112 127 -198v-110c0 -89 -39 -204 -127 -204s-128 115 -128 204zM181 -87c0 21 14 38 32 38s32 -17 32 -38c0 -20 -14 -37 -32 -37c-17 0 -32 17 -32 37z" />
    <glyph glyph-name="uni1ED3" unicode="&#x1ed3;" horiz-adv-x="426" 
d="M314 752c6 -6 -2 -14 -8 -9l-156 120c-10 7 -14 16 -14 24c0 14 10 26 23 26c10 0 19 -4 28 -14zM208 700c2 2 4 3 6 3s4 -1 6 -3l121 -125c6 -6 17 -3 8 9l-107 147c-8 11 -18 15 -28 15s-20 -4 -28 -15l-107 -147c-7 -10 2 -15 8 -9zM10 270c0 -177 90 -281 203 -281
c124 0 203 119 203 281c0 160 -95 271 -203 271c-110 0 -203 -101 -203 -271zM85 213v110c0 86 40 198 128 198s127 -112 127 -198v-110c0 -89 -39 -204 -127 -204s-128 115 -128 204z" />
    <glyph glyph-name="uni1ED5" unicode="&#x1ed5;" horiz-adv-x="426" 
d="M294 717c-20 0 -37 15 -37 37c0 23 16 46 57 46c46 0 79 -33 79 -70c0 -14 -4 -27 -10 -40c-3 -7 -5 -9 -9 -9s-8 3 -6 9c4 12 7 24 7 33c0 22 -10 37 -23 37c-15 0 -19 -9 -23 -20c-5 -11 -15 -23 -35 -23zM208 700c2 2 4 3 6 3s4 -1 6 -3l121 -125c6 -6 17 -3 8 9
l-107 147c-8 11 -18 15 -28 15s-20 -4 -28 -15l-107 -147c-7 -10 2 -15 8 -9zM10 270c0 -177 90 -281 203 -281c124 0 203 119 203 281c0 160 -95 271 -203 271c-110 0 -203 -101 -203 -271zM85 213v110c0 86 40 198 128 198s127 -112 127 -198v-110
c0 -89 -39 -204 -127 -204s-128 115 -128 204z" />
    <glyph glyph-name="uni1ED7" unicode="&#x1ed7;" horiz-adv-x="426" 
d="M270 754c45 1 74 42 74 85c0 15 -5 23 -17 23c-11 0 -17 -8 -17 -23c0 -46 -12 -65 -40 -65c-50 0 -53 88 -118 88c-45 0 -75 -42 -75 -85c0 -15 5 -23 17 -23c11 0 17 8 17 23c0 46 12 65 40 65c50 0 55 -89 119 -88zM208 700c2 2 4 3 6 3s4 -1 6 -3l121 -125
c6 -6 17 -3 8 9l-107 147c-8 11 -18 15 -28 15s-20 -4 -28 -15l-107 -147c-7 -10 2 -15 8 -9zM10 270c0 -177 90 -281 203 -281c124 0 203 119 203 281c0 160 -95 271 -203 271c-110 0 -203 -101 -203 -271zM85 213v110c0 86 40 198 128 198s127 -112 127 -198v-110
c0 -89 -39 -204 -127 -204s-128 115 -128 204z" />
    </font>
</defs>
</svg>
